STARTFONT 2.1
FONT -Efont-Fixed-Medium-I-Normal--24-240-75-75-C-120-ISO10646-1
SIZE 24 75 75
FONTBOUNDINGBOX 19 24 -3 -2
STARTPROPERTIES 18
COPYRIGHT "(c) Copyright 2000-2003 /efont/ The Electronic Font Open Laboratory."
FOUNDRY "Efont"
FAMILY_NAME "Fixed"
WEIGHT_NAME "Medium"
SLANT "I"
SETWIDTH_NAME "Normal"
ADD_STYLE_NAME ""
PIXEL_SIZE 24
POINT_SIZE 240
RESOLUTION_X 75
RESOLUTION_Y 75
AVERAGE_WIDTH 120
CHARSET_REGISTRY "ISO10646"
CHARSET_ENCODING "1"
_MULE_BASELINE_OFFSET -3
FONT_ASCENT 22
FONT_DESCENT 2
DEFAULT_CHAR 32
ENDPROPERTIES
CHARS 2125
STARTCHAR U+0020
ENCODING 32
SWIDTH 500 0
DWIDTH 12 0
BBX 19 24 -3 -2
BITMAP 
000000
000000
000000
000000
000000
000000
000000
000000
000000
000000
000000
000000
000000
000000
000000
000000
000000
000000
000000
000000
000000
000000
000000
000000
ENDCHAR
STARTCHAR U+0021
ENCODING 33
SWIDTH 500 0
DWIDTH 12 0
BBX 19 24 -3 -2
BITMAP 
000000
000000
000000
000000
000000
001800
003000
003000
003000
006000
006000
006000
00C000
00C000
00C000
000000
000000
018000
078000
030000
000000
000000
000000
000000
ENDCHAR
STARTCHAR U+0022
ENCODING 34
SWIDTH 500 0
DWIDTH 12 0
BBX 19 24 -3 -2
BITMAP 
000000
000000
000000
000000
006600
006600
00CC00
00CC00
00CC00
000000
000000
000000
000000
000000
000000
000000
000000
000000
000000
000000
000000
000000
000000
000000
ENDCHAR
STARTCHAR U+0023
ENCODING 35
SWIDTH 500 0
DWIDTH 12 0
BBX 19 24 -3 -2
BITMAP 
000000
000000
000000
000000
000000
003300
006600
006600
01FF00
03FE00
019800
019800
033000
033000
0FF800
1FF000
0CC000
0CC000
198000
000000
000000
000000
000000
000000
ENDCHAR
STARTCHAR U+0024
ENCODING 36
SWIDTH 500 0
DWIDTH 12 0
BBX 19 24 -3 -2
BITMAP 
000000
000000
000000
000000
000000
001800
00FC00
01FF00
033300
066000
03E000
01F800
00F800
00CC00
00CC00
199800
1FF000
0FE000
030000
000000
000000
000000
000000
000000
ENDCHAR
STARTCHAR U+0025
ENCODING 37
SWIDTH 500 0
DWIDTH 12 0
BBX 19 24 -3 -2
BITMAP 
000000
000000
000000
000000
000000
00E300
03E600
036C00
03EC00
03B000
003000
006000
00C000
018000
01B800
06F800
06D800
0CF800
18E000
000000
000000
000000
000000
000000
ENDCHAR
STARTCHAR U+0026
ENCODING 38
SWIDTH 500 0
DWIDTH 12 0
BBX 19 24 -3 -2
BITMAP 
000000
000000
000000
000000
000000
001C00
007C00
00EE00
00C600
019800
00F800
01F000
07C000
0E6C00
0C3C00
187000
186000
0FF800
0F3000
000000
000000
000000
000000
000000
ENDCHAR
STARTCHAR U+0027
ENCODING 39
SWIDTH 500 0
DWIDTH 12 0
BBX 19 24 -3 -2
BITMAP 
000000
000000
000000
001800
003C00
003C00
001800
001800
003000
00C000
000000
000000
000000
000000
000000
000000
000000
000000
000000
000000
000000
000000
000000
000000
ENDCHAR
STARTCHAR U+0028
ENCODING 40
SWIDTH 500 0
DWIDTH 12 0
BBX 19 24 -3 -2
BITMAP 
000000
000000
000000
000000
000000
000600
001800
003800
003000
00E000
00C000
00C000
018000
018000
01C000
018000
01C000
00C000
00C000
000000
000000
000000
000000
000000
ENDCHAR
STARTCHAR U+0029
ENCODING 41
SWIDTH 500 0
DWIDTH 12 0
BBX 19 24 -3 -2
BITMAP 
000000
000000
000000
000000
000000
006000
006000
007000
003000
007000
003000
003000
006000
006000
00E000
018000
038000
030000
0C0000
000000
000000
000000
000000
000000
ENDCHAR
STARTCHAR U+002A
ENCODING 42
SWIDTH 500 0
DWIDTH 12 0
BBX 19 24 -3 -2
BITMAP 
000000
000000
000000
000000
000000
000000
000000
003000
003000
066600
076E00
01F800
00C000
03F000
0EDC00
199800
018000
018000
000000
000000
000000
000000
000000
000000
ENDCHAR
STARTCHAR U+002B
ENCODING 43
SWIDTH 500 0
DWIDTH 12 0
BBX 19 24 -3 -2
BITMAP 
000000
000000
000000
000000
000000
000000
000000
000000
003000
006000
006000
006000
0FFC00
0FFC00
00C000
018000
018000
018000
000000
000000
000000
000000
000000
000000
ENDCHAR
STARTCHAR U+002C
ENCODING 44
SWIDTH 500 0
DWIDTH 12 0
BBX 19 24 -3 -2
BITMAP 
000000
000000
000000
000000
000000
000000
000000
000000
000000
000000
000000
000000
000000
000000
000000
018000
03C000
03C000
018000
018000
030000
0C0000
000000
000000
ENDCHAR
STARTCHAR U+002D
ENCODING 45
SWIDTH 500 0
DWIDTH 12 0
BBX 19 24 -3 -2
BITMAP 
000000
000000
000000
000000
000000
000000
000000
000000
000000
000000
000000
000000
0FFC00
0FFC00
000000
000000
000000
000000
000000
000000
000000
000000
000000
000000
ENDCHAR
STARTCHAR U+002E
ENCODING 46
SWIDTH 500 0
DWIDTH 12 0
BBX 19 24 -3 -2
BITMAP 
000000
000000
000000
000000
000000
000000
000000
000000
000000
000000
000000
000000
000000
000000
000000
018000
03C000
03C000
030000
000000
000000
000000
000000
000000
ENDCHAR
STARTCHAR U+002F
ENCODING 47
SWIDTH 500 0
DWIDTH 12 0
BBX 19 24 -3 -2
BITMAP 
000000
000000
000000
000000
000000
000300
000600
000C00
000C00
003000
003000
006000
00C000
018000
018000
060000
060000
0C0000
180000
000000
000000
000000
000000
000000
ENDCHAR
STARTCHAR U+0030
ENCODING 48
SWIDTH 500 0
DWIDTH 12 0
BBX 19 24 -3 -2
BITMAP 
000000
000000
000000
000000
000000
003C00
00FC00
01CE00
018600
031C00
033C00
036C00
079800
071800
061800
0C3000
0E7000
07E000
078000
000000
000000
000000
000000
000000
ENDCHAR
STARTCHAR U+0031
ENCODING 49
SWIDTH 500 0
DWIDTH 12 0
BBX 19 24 -3 -2
BITMAP 
000000
000000
000000
000000
000000
001800
007000
00F000
01B000
006000
006000
006000
00C000
00C000
00C000
018000
018000
0FF000
1FE000
000000
000000
000000
000000
000000
ENDCHAR
STARTCHAR U+0032
ENCODING 50
SWIDTH 500 0
DWIDTH 12 0
BBX 19 24 -3 -2
BITMAP 
000000
000000
000000
000000
000000
003E00
00FE00
018700
018300
000600
000C00
001800
006000
00C000
018000
060000
0C0000
0FF800
1FF000
000000
000000
000000
000000
000000
ENDCHAR
STARTCHAR U+0033
ENCODING 51
SWIDTH 500 0
DWIDTH 12 0
BBX 19 24 -3 -2
BITMAP 
000000
000000
000000
000000
000000
003E00
00FE00
018700
018300
000600
000C00
007800
00F800
000C00
000C00
0C1800
0C3800
07F000
07C000
000000
000000
000000
000000
000000
ENDCHAR
STARTCHAR U+0034
ENCODING 52
SWIDTH 500 0
DWIDTH 12 0
BBX 19 24 -3 -2
BITMAP 
000000
000000
000000
000000
000000
000C00
001800
003000
003000
00D800
00D800
019800
033000
063000
07FC00
0FF800
006000
006000
00C000
000000
000000
000000
000000
000000
ENDCHAR
STARTCHAR U+0035
ENCODING 53
SWIDTH 500 0
DWIDTH 12 0
BBX 19 24 -3 -2
BITMAP 
000000
000000
000000
000000
000000
00FF00
01FE00
018000
018000
030000
03F800
03FC00
001C00
000C00
000C00
0C1800
0C3800
07F000
07C000
000000
000000
000000
000000
000000
ENDCHAR
STARTCHAR U+0036
ENCODING 54
SWIDTH 500 0
DWIDTH 12 0
BBX 19 24 -3 -2
BITMAP 
000000
000000
000000
000000
000000
003E00
00FE00
01C300
018300
030000
037800
03FC00
071C00
060C00
060C00
0C1800
0E3800
07F000
07C000
000000
000000
000000
000000
000000
ENDCHAR
STARTCHAR U+0037
ENCODING 55
SWIDTH 500 0
DWIDTH 12 0
BBX 19 24 -3 -2
BITMAP 
000000
000000
000000
000000
000000
00FF80
01FF00
000600
000600
001800
001800
003000
006000
00C000
00C000
030000
030000
060000
0C0000
000000
000000
000000
000000
000000
ENDCHAR
STARTCHAR U+0038
ENCODING 56
SWIDTH 500 0
DWIDTH 12 0
BBX 19 24 -3 -2
BITMAP 
000000
000000
000000
000000
000000
003C00
00FC00
018600
018600
030C00
01F800
01F800
073800
0E1C00
0C0C00
181800
1C3800
0FF000
0FC000
000000
000000
000000
000000
000000
ENDCHAR
STARTCHAR U+0039
ENCODING 57
SWIDTH 500 0
DWIDTH 12 0
BBX 19 24 -3 -2
BITMAP 
000000
000000
000000
000000
000000
003E00
00FE00
01C700
018300
030600
038E00
01FE00
01EC00
000C00
000C00
0C1800
0C3800
07F000
07C000
000000
000000
000000
000000
000000
ENDCHAR
STARTCHAR U+003A
ENCODING 58
SWIDTH 500 0
DWIDTH 12 0
BBX 19 24 -3 -2
BITMAP 
000000
000000
000000
000000
000000
000000
000000
000000
003000
00F000
00F000
006000
000000
000000
000000
018000
03C000
03C000
030000
000000
000000
000000
000000
000000
ENDCHAR
STARTCHAR U+003B
ENCODING 59
SWIDTH 500 0
DWIDTH 12 0
BBX 19 24 -3 -2
BITMAP 
000000
000000
000000
000000
000000
000000
000000
000000
003000
00F000
00F000
006000
000000
000000
000000
018000
03C000
03C000
018000
018000
030000
0C0000
000000
000000
ENDCHAR
STARTCHAR U+003C
ENCODING 60
SWIDTH 500 0
DWIDTH 12 0
BBX 19 24 -3 -2
BITMAP 
000000
000000
000000
000000
000000
000000
000000
000000
000300
001C00
007000
01E000
0F0000
0F0000
03C000
01E000
007000
001800
000000
000000
000000
000000
000000
000000
ENDCHAR
STARTCHAR U+003D
ENCODING 61
SWIDTH 500 0
DWIDTH 12 0
BBX 19 24 -3 -2
BITMAP 
000000
000000
000000
000000
000000
000000
000000
000000
000000
000000
07FE00
07FE00
000000
000000
0FFC00
1FF800
000000
000000
000000
000000
000000
000000
000000
000000
ENDCHAR
STARTCHAR U+003E
ENCODING 62
SWIDTH 500 0
DWIDTH 12 0
BBX 19 24 -3 -2
BITMAP 
000000
000000
000000
000000
000000
000000
000000
000000
030000
038000
00E000
007800
003C00
003C00
00F000
038000
0E0000
180000
000000
000000
000000
000000
000000
000000
ENDCHAR
STARTCHAR U+003F
ENCODING 63
SWIDTH 500 0
DWIDTH 12 0
BBX 19 24 -3 -2
BITMAP 
000000
000000
000000
000000
000000
003C00
00FC00
01CE00
010600
000C00
001800
003000
00C000
00C000
00C000
000000
000000
018000
078000
030000
000000
000000
000000
000000
ENDCHAR
STARTCHAR U+0040
ENCODING 64
SWIDTH 500 0
DWIDTH 12 0
BBX 19 24 -3 -2
BITMAP 
000000
000000
000000
000000
000000
003E00
00FE00
01C300
018300
033E00
037E00
036600
06CC00
06CC00
06FC00
0CF000
0E0000
07F800
07F000
000000
000000
000000
000000
000000
ENDCHAR
STARTCHAR U+0041
ENCODING 65
SWIDTH 500 0
DWIDTH 12 0
BBX 19 24 -3 -2
BITMAP 
000000
000000
000000
000000
000000
003E00
00FE00
01C700
018300
030600
030600
03FE00
07FC00
060C00
060C00
0C1800
0C1800
0C1800
183000
000000
000000
000000
000000
000000
ENDCHAR
STARTCHAR U+0042
ENCODING 66
SWIDTH 500 0
DWIDTH 12 0
BBX 19 24 -3 -2
BITMAP 
000000
000000
000000
000000
000000
00FC00
01FC00
018E00
018600
030C00
031800
03F800
07F800
061800
060C00
0C1800
0C3800
0FF000
1FC000
000000
000000
000000
000000
000000
ENDCHAR
STARTCHAR U+0043
ENCODING 67
SWIDTH 500 0
DWIDTH 12 0
BBX 19 24 -3 -2
BITMAP 
000000
000000
000000
000000
000000
003E00
00FE00
01C700
018300
030000
030000
030000
060000
060000
060000
0C1800
0E3800
07F000
07C000
000000
000000
000000
000000
000000
ENDCHAR
STARTCHAR U+0044
ENCODING 68
SWIDTH 500 0
DWIDTH 12 0
BBX 19 24 -3 -2
BITMAP 
000000
000000
000000
000000
000000
00FE00
01FE00
018700
018300
030600
030600
030600
060C00
060C00
060C00
0C1800
0C3800
0FF000
1FC000
000000
000000
000000
000000
000000
ENDCHAR
STARTCHAR U+0045
ENCODING 69
SWIDTH 500 0
DWIDTH 12 0
BBX 19 24 -3 -2
BITMAP 
000000
000000
000000
000000
000000
00FF80
01FF00
018000
018000
030000
030000
03F800
07F000
060000
060000
0C0000
0C0000
0FF800
1FF000
000000
000000
000000
000000
000000
ENDCHAR
STARTCHAR U+0046
ENCODING 70
SWIDTH 500 0
DWIDTH 12 0
BBX 19 24 -3 -2
BITMAP 
000000
000000
000000
000000
000000
00FF80
01FF00
018000
018000
030000
030000
03F800
07F000
060000
060000
0C0000
0C0000
0C0000
180000
000000
000000
000000
000000
000000
ENDCHAR
STARTCHAR U+0047
ENCODING 71
SWIDTH 500 0
DWIDTH 12 0
BBX 19 24 -3 -2
BITMAP 
000000
000000
000000
000000
000000
003E00
00FE00
01C700
018300
030000
030000
030000
063C00
063C00
060C00
0C1800
0E3800
07F000
07C000
000000
000000
000000
000000
000000
ENDCHAR
STARTCHAR U+0048
ENCODING 72
SWIDTH 500 0
DWIDTH 12 0
BBX 19 24 -3 -2
BITMAP 
000000
000000
000000
000000
000000
00C180
018300
018300
018300
030600
030600
03FE00
07FC00
060C00
060C00
0C1800
0C1800
0C1800
183000
000000
000000
000000
000000
000000
ENDCHAR
STARTCHAR U+0049
ENCODING 73
SWIDTH 500 0
DWIDTH 12 0
BBX 19 24 -3 -2
BITMAP 
000000
000000
000000
000000
000000
007E00
00FC00
003000
003000
006000
006000
006000
00C000
00C000
00C000
018000
018000
07E000
0FC000
000000
000000
000000
000000
000000
ENDCHAR
STARTCHAR U+004A
ENCODING 74
SWIDTH 500 0
DWIDTH 12 0
BBX 19 24 -3 -2
BITMAP 
000000
000000
000000
000000
000000
000180
000300
000300
000300
000600
000600
000600
000C00
000C00
000C00
0C1800
0C3800
07F000
07C000
000000
000000
000000
000000
000000
ENDCHAR
STARTCHAR U+004B
ENCODING 75
SWIDTH 500 0
DWIDTH 12 0
BBX 19 24 -3 -2
BITMAP 
000000
000000
000000
000000
000000
00C180
018600
018C00
019800
036000
03C000
038000
078000
06C000
064000
0C6000
0C3000
0C1000
181000
000000
000000
000000
000000
000000
ENDCHAR
STARTCHAR U+004C
ENCODING 76
SWIDTH 500 0
DWIDTH 12 0
BBX 19 24 -3 -2
BITMAP 
000000
000000
000000
000000
000000
00C000
018000
018000
018000
030000
030000
030000
060000
060000
060000
0C0000
0C0000
0FF800
1FF000
000000
000000
000000
000000
000000
ENDCHAR
STARTCHAR U+004D
ENCODING 77
SWIDTH 500 0
DWIDTH 12 0
BBX 19 24 -3 -2
BITMAP 
000000
000000
000000
000000
000000
00C180
01C700
01C700
01EF00
03FE00
037600
037600
064C00
060C00
060C00
0C1800
0C1800
0C1800
183000
000000
000000
000000
000000
000000
ENDCHAR
STARTCHAR U+004E
ENCODING 78
SWIDTH 500 0
DWIDTH 12 0
BBX 19 24 -3 -2
BITMAP 
000000
000000
000000
000000
000000
00C180
01C300
01C300
01E300
03C600
036600
036600
066C00
066C00
063C00
0C7800
0C3800
0C3800
183000
000000
000000
000000
000000
000000
ENDCHAR
STARTCHAR U+004F
ENCODING 79
SWIDTH 500 0
DWIDTH 12 0
BBX 19 24 -3 -2
BITMAP 
000000
000000
000000
000000
000000
003E00
00FE00
01C700
018300
030600
030600
030600
060C00
060C00
060C00
0C1800
0E3800
07F000
07C000
000000
000000
000000
000000
000000
ENDCHAR
STARTCHAR U+0050
ENCODING 80
SWIDTH 500 0
DWIDTH 12 0
BBX 19 24 -3 -2
BITMAP 
000000
000000
000000
000000
000000
00FE00
01FE00
018700
018300
030600
030E00
03FC00
07F000
060000
060000
0C0000
0C0000
0C0000
180000
000000
000000
000000
000000
000000
ENDCHAR
STARTCHAR U+0051
ENCODING 81
SWIDTH 500 0
DWIDTH 12 0
BBX 19 24 -3 -2
BITMAP 
000000
000000
000000
000000
000000
003E00
00FE00
01C700
018300
030600
030600
030600
060C00
060C00
060C00
0C7800
0E7800
07F000
07F800
001800
000000
000000
000000
000000
ENDCHAR
STARTCHAR U+0052
ENCODING 82
SWIDTH 500 0
DWIDTH 12 0
BBX 19 24 -3 -2
BITMAP 
000000
000000
000000
000000
000000
00FE00
01FE00
018700
018300
030600
030E00
03FC00
07F000
063000
063000
0C3000
0C3000
0C1800
183000
000000
000000
000000
000000
000000
ENDCHAR
STARTCHAR U+0053
ENCODING 83
SWIDTH 500 0
DWIDTH 12 0
BBX 19 24 -3 -2
BITMAP 
000000
000000
000000
000000
000000
003E00
00FE00
018700
018300
030000
038000
01F800
01F800
001C00
000C00
0C1800
0C3800
0FF000
0FC000
000000
000000
000000
000000
000000
ENDCHAR
STARTCHAR U+0054
ENCODING 84
SWIDTH 500 0
DWIDTH 12 0
BBX 19 24 -3 -2
BITMAP 
000000
000000
000000
000000
000000
01FF80
03FF00
003000
003000
006000
006000
006000
00C000
00C000
00C000
018000
018000
018000
030000
000000
000000
000000
000000
000000
ENDCHAR
STARTCHAR U+0055
ENCODING 85
SWIDTH 500 0
DWIDTH 12 0
BBX 19 24 -3 -2
BITMAP 
000000
000000
000000
000000
000000
00C180
018300
018300
018300
030600
030600
030600
060C00
060C00
060C00
0C1800
0E3800
07F000
07C000
000000
000000
000000
000000
000000
ENDCHAR
STARTCHAR U+0056
ENCODING 86
SWIDTH 500 0
DWIDTH 12 0
BBX 19 24 -3 -2
BITMAP 
000000
000000
000000
000000
000000
018180
030300
030300
018600
030C00
030C00
019800
033000
033000
012000
03C000
03C000
018000
030000
000000
000000
000000
000000
000000
ENDCHAR
STARTCHAR U+0057
ENCODING 87
SWIDTH 500 0
DWIDTH 12 0
BBX 19 24 -3 -2
BITMAP 
000000
000000
000000
000000
000000
00C180
018300
018300
018300
030600
030600
032600
06EC00
06EC00
07BC00
0F7800
0E3800
0E3800
183000
000000
000000
000000
000000
000000
ENDCHAR
STARTCHAR U+0058
ENCODING 88
SWIDTH 500 0
DWIDTH 12 0
BBX 19 24 -3 -2
BITMAP 
000000
000000
000000
000000
000000
00C180
018300
00C600
00C600
00D800
00D800
007000
00E000
01B000
01B000
063000
063000
0C1800
183000
000000
000000
000000
000000
000000
ENDCHAR
STARTCHAR U+0059
ENCODING 89
SWIDTH 500 0
DWIDTH 12 0
BBX 19 24 -3 -2
BITMAP 
000000
000000
000000
000000
000000
018180
030300
018600
018600
019800
01F800
00F000
00C000
00C000
00C000
018000
018000
018000
030000
000000
000000
000000
000000
000000
ENDCHAR
STARTCHAR U+005A
ENCODING 90
SWIDTH 500 0
DWIDTH 12 0
BBX 19 24 -3 -2
BITMAP 
000000
000000
000000
000000
000000
01FF80
03FF00
000300
000700
001C00
003800
007000
01C000
038000
070000
1C0000
180000
1FF800
3FF000
000000
000000
000000
000000
000000
ENDCHAR
STARTCHAR U+005B
ENCODING 91
SWIDTH 500 0
DWIDTH 12 0
BBX 19 24 -3 -2
BITMAP 
000000
000000
000000
000000
003E00
003E00
006000
006000
006000
00C000
00C000
00C000
018000
018000
018000
030000
030000
03E000
07C000
000000
000000
000000
000000
000000
ENDCHAR
STARTCHAR U+005C
ENCODING 92
SWIDTH 500 0
DWIDTH 12 0
BBX 19 24 -3 -2
BITMAP 
000000
000000
000000
000000
000000
00C000
018000
00C000
00C000
00C000
00C000
006000
00C000
006000
006000
006000
006000
003000
006000
000000
000000
000000
000000
000000
ENDCHAR
STARTCHAR U+005D
ENCODING 93
SWIDTH 500 0
DWIDTH 12 0
BBX 19 24 -3 -2
BITMAP 
000000
000000
000000
000000
007C00
007C00
001800
001800
001800
003000
003000
003000
006000
006000
006000
00C000
00C000
07C000
0F8000
000000
000000
000000
000000
000000
ENDCHAR
STARTCHAR U+005E
ENCODING 94
SWIDTH 500 0
DWIDTH 12 0
BBX 19 24 -3 -2
BITMAP 
000000
000000
000000
000000
000800
001800
006C00
00C600
018300
000000
000000
000000
000000
000000
000000
000000
000000
000000
000000
000000
000000
000000
000000
000000
ENDCHAR
STARTCHAR U+005F
ENCODING 95
SWIDTH 500 0
DWIDTH 12 0
BBX 19 24 -3 -2
BITMAP 
000000
000000
000000
000000
000000
000000
000000
000000
000000
000000
000000
000000
000000
000000
000000
000000
000000
000000
000000
000000
7FF800
FFF000
000000
000000
ENDCHAR
STARTCHAR U+0060
ENCODING 96
SWIDTH 500 0
DWIDTH 12 0
BBX 19 24 -3 -2
BITMAP 
000000
000000
000000
000C00
001800
003000
006000
007800
007800
006000
000000
000000
000000
000000
000000
000000
000000
000000
000000
000000
000000
000000
000000
000000
ENDCHAR
STARTCHAR U+0061
ENCODING 97
SWIDTH 500 0
DWIDTH 12 0
BBX 19 24 -3 -2
BITMAP 
000000
000000
000000
000000
000000
000000
000000
000000
003C00
00FC00
018600
000600
00FC00
03FC00
060C00
0C3800
0C7800
0FD800
0F3000
000000
000000
000000
000000
000000
ENDCHAR
STARTCHAR U+0062
ENCODING 98
SWIDTH 500 0
DWIDTH 12 0
BBX 19 24 -3 -2
BITMAP 
000000
000000
000000
000000
000000
00C000
018000
018000
018000
033800
037C00
03CE00
070C00
060C00
060C00
0E1800
0F3800
0DF000
19C000
000000
000000
000000
000000
000000
ENDCHAR
STARTCHAR U+0063
ENCODING 99
SWIDTH 500 0
DWIDTH 12 0
BBX 19 24 -3 -2
BITMAP 
000000
000000
000000
000000
000000
000000
000000
000000
000000
00FC00
01FC00
038600
060C00
060000
060000
0C0000
0E1800
07F800
07E000
000000
000000
000000
000000
000000
ENDCHAR
STARTCHAR U+0064
ENCODING 100
SWIDTH 500 0
DWIDTH 12 0
BBX 19 24 -3 -2
BITMAP 
000000
000000
000000
000000
000000
000180
000300
000300
000300
00F600
01FE00
038E00
060C00
060C00
060C00
0C3800
0C7800
07D800
073000
000000
000000
000000
000000
000000
ENDCHAR
STARTCHAR U+0065
ENCODING 101
SWIDTH 500 0
DWIDTH 12 0
BBX 19 24 -3 -2
BITMAP 
000000
000000
000000
000000
000000
000000
000000
000000
000000
00F800
01FC00
038600
060C00
07FC00
07FC00
0C0000
0C1800
07F800
07E000
000000
000000
000000
000000
000000
ENDCHAR
STARTCHAR U+0066
ENCODING 102
SWIDTH 500 0
DWIDTH 12 0
BBX 19 24 -3 -2
BITMAP 
000000
000000
000000
000000
000000
000E00
003C00
003000
003000
006000
01F800
01F800
00C000
00C000
00C000
018000
018000
018000
030000
000000
000000
000000
000000
000000
ENDCHAR
STARTCHAR U+0067
ENCODING 103
SWIDTH 500 0
DWIDTH 12 0
BBX 19 24 -3 -2
BITMAP 
000000
000000
000000
000000
000000
000000
000000
000000
000000
00E600
01F600
039E00
061C00
060C00
060C00
0C1800
0E3800
07F800
07B000
003000
003000
006000
0FC000
078000
ENDCHAR
STARTCHAR U+0068
ENCODING 104
SWIDTH 500 0
DWIDTH 12 0
BBX 19 24 -3 -2
BITMAP 
000000
000000
000000
000000
000000
00C000
018000
018000
018000
033800
037C00
03CE00
070C00
060C00
060C00
0C1800
0C1800
0C1800
183000
000000
000000
000000
000000
000000
ENDCHAR
STARTCHAR U+0069
ENCODING 105
SWIDTH 500 0
DWIDTH 12 0
BBX 19 24 -3 -2
BITMAP 
000000
000000
000000
000000
000000
001800
003000
000000
000000
006000
006000
006000
00C000
00C000
00C000
018000
018000
018000
030000
000000
000000
000000
000000
000000
ENDCHAR
STARTCHAR U+006A
ENCODING 106
SWIDTH 500 0
DWIDTH 12 0
BBX 19 24 -3 -2
BITMAP 
000000
000000
000000
000000
000000
001800
003000
000000
000000
006000
006000
006000
00C000
00C000
00C000
018000
018000
018000
030000
030000
030000
3E0000
380000
000000
ENDCHAR
STARTCHAR U+006B
ENCODING 107
SWIDTH 500 0
DWIDTH 12 0
BBX 19 24 -3 -2
BITMAP 
000000
000000
000000
000000
000000
000000
018000
018000
018600
031C00
033800
037000
07C000
078000
07C000
0DC000
0CE000
0C7000
186000
000000
000000
000000
000000
000000
ENDCHAR
STARTCHAR U+006C
ENCODING 108
SWIDTH 500 0
DWIDTH 12 0
BBX 19 24 -3 -2
BITMAP 
000000
000000
000000
000000
000000
001800
003000
003000
003000
006000
006000
006000
00C000
00C000
00C000
018000
018000
01E000
01C000
000000
000000
000000
000000
000000
ENDCHAR
STARTCHAR U+006D
ENCODING 109
SWIDTH 500 0
DWIDTH 12 0
BBX 19 24 -3 -2
BITMAP 
000000
000000
000000
000000
000000
000000
000000
000000
000000
06DC00
07FE00
066600
0CCC00
0CCC00
0CCC00
199800
199800
199800
333000
000000
000000
000000
000000
000000
ENDCHAR
STARTCHAR U+006E
ENCODING 110
SWIDTH 500 0
DWIDTH 12 0
BBX 19 24 -3 -2
BITMAP 
000000
000000
000000
000000
000000
000000
000000
000000
000000
033800
037C00
03C600
070C00
060C00
060C00
0C1800
0C1800
0C1800
183000
000000
000000
000000
000000
000000
ENDCHAR
STARTCHAR U+006F
ENCODING 111
SWIDTH 500 0
DWIDTH 12 0
BBX 19 24 -3 -2
BITMAP 
000000
000000
000000
000000
000000
000000
000000
000000
000000
00F800
01FC00
038E00
060C00
060C00
060C00
0C1800
0E3800
07F000
07C000
000000
000000
000000
000000
000000
ENDCHAR
STARTCHAR U+0070
ENCODING 112
SWIDTH 500 0
DWIDTH 12 0
BBX 19 24 -3 -2
BITMAP 
000000
000000
000000
000000
000000
000000
000000
000000
000000
033800
037C00
03CE00
070C00
060C00
060C00
0E1800
0F3800
0DF000
19C000
180000
180000
300000
300000
000000
ENDCHAR
STARTCHAR U+0071
ENCODING 113
SWIDTH 500 0
DWIDTH 12 0
BBX 19 24 -3 -2
BITMAP 
000000
000000
000000
000000
000000
000000
000000
000000
000000
00E600
01F600
039E00
061C00
060C00
060C00
0C3800
0E7800
07D800
073000
003000
003000
006000
006000
000000
ENDCHAR
STARTCHAR U+0072
ENCODING 114
SWIDTH 500 0
DWIDTH 12 0
BBX 19 24 -3 -2
BITMAP 
000000
000000
000000
000000
000000
000000
000000
000000
000000
033800
037C00
03C600
070C00
060000
060000
0C0000
0C0000
0C0000
180000
000000
000000
000000
000000
000000
ENDCHAR
STARTCHAR U+0073
ENCODING 115
SWIDTH 500 0
DWIDTH 12 0
BBX 19 24 -3 -2
BITMAP 
000000
000000
000000
000000
000000
000000
000000
000000
000000
01FC00
03FE00
030200
060000
03F000
01F000
001800
0C1800
0FF800
0FE000
000000
000000
000000
000000
000000
ENDCHAR
STARTCHAR U+0074
ENCODING 116
SWIDTH 500 0
DWIDTH 12 0
BBX 19 24 -3 -2
BITMAP 
000000
000000
000000
000000
000000
000000
003000
003000
003000
01F800
01F800
006000
00C000
00C000
00C000
018000
018000
01E000
01C000
000000
000000
000000
000000
000000
ENDCHAR
STARTCHAR U+0075
ENCODING 117
SWIDTH 500 0
DWIDTH 12 0
BBX 19 24 -3 -2
BITMAP 
000000
000000
000000
000000
000000
000000
000000
000000
000000
030600
030600
030600
060C00
060C00
060C00
0C3800
0E7800
07D800
073000
000000
000000
000000
000000
000000
ENDCHAR
STARTCHAR U+0076
ENCODING 118
SWIDTH 500 0
DWIDTH 12 0
BBX 19 24 -3 -2
BITMAP 
000000
000000
000000
000000
000000
000000
000000
000000
000000
060600
060600
030C00
061800
033000
033000
03C000
03C000
018000
030000
000000
000000
000000
000000
000000
ENDCHAR
STARTCHAR U+0077
ENCODING 119
SWIDTH 500 0
DWIDTH 12 0
BBX 19 24 -3 -2
BITMAP 
000000
000000
000000
000000
000000
000000
000000
000000
000000
030600
030600
030600
060C00
064C00
06EC00
0DD800
0F7800
0E3800
183000
000000
000000
000000
000000
000000
ENDCHAR
STARTCHAR U+0078
ENCODING 120
SWIDTH 500 0
DWIDTH 12 0
BBX 19 24 -3 -2
BITMAP 
000000
000000
000000
000000
000000
000000
000000
000000
000000
030600
030600
010C00
01B000
00E000
00E000
036000
063000
0C1800
183000
000000
000000
000000
000000
000000
ENDCHAR
STARTCHAR U+0079
ENCODING 121
SWIDTH 500 0
DWIDTH 12 0
BBX 19 24 -3 -2
BITMAP 
000000
000000
000000
000000
000000
000000
000000
000000
000000
030600
030600
030600
060C00
060C00
060C00
0C1800
0C3800
07F800
07B000
003000
003000
006000
1FC000
0F8000
ENDCHAR
STARTCHAR U+007A
ENCODING 122
SWIDTH 500 0
DWIDTH 12 0
BBX 19 24 -3 -2
BITMAP 
000000
000000
000000
000000
000000
000000
000000
000000
000000
03FE00
03FE00
000C00
003000
006000
00C000
030000
060000
0FF800
1FF000
000000
000000
000000
000000
000000
ENDCHAR
STARTCHAR U+007B
ENCODING 123
SWIDTH 500 0
DWIDTH 12 0
BBX 19 24 -3 -2
BITMAP 
000000
000000
000000
000000
000E00
001800
003000
003000
003000
006000
00C000
01C000
018000
00C000
00C000
018000
018000
018000
01C000
000000
000000
000000
000000
000000
ENDCHAR
STARTCHAR U+007C
ENCODING 124
SWIDTH 500 0
DWIDTH 12 0
BBX 19 24 -3 -2
BITMAP 
000000
000C00
000C00
001800
001800
001800
003000
003000
003000
006000
006000
006000
00C000
00C000
00C000
018000
018000
018000
030000
030000
030000
060000
060000
000000
ENDCHAR
STARTCHAR U+007D
ENCODING 125
SWIDTH 500 0
DWIDTH 12 0
BBX 19 24 -3 -2
BITMAP 
000000
000000
000000
000000
007000
001800
003000
003000
003000
006000
003000
003800
006000
00C000
00C000
018000
018000
018000
0E0000
000000
000000
000000
000000
000000
ENDCHAR
STARTCHAR U+007E
ENCODING 126
SWIDTH 500 0
DWIDTH 12 0
BBX 19 24 -3 -2
BITMAP 
000000
000000
000000
000000
007080
00F980
013F00
030E00
000000
000000
000000
000000
000000
000000
000000
000000
000000
000000
000000
000000
000000
000000
000000
000000
ENDCHAR
STARTCHAR U+00A0
ENCODING 160
SWIDTH 500 0
DWIDTH 12 0
BBX 19 24 -3 -2
BITMAP 
000000
000000
000000
000000
000000
000000
000000
000000
000000
000000
000000
000000
000000
000000
000000
000000
000000
000000
000000
000000
000000
000000
000000
000000
ENDCHAR
STARTCHAR U+00A1
ENCODING 161
SWIDTH 500 0
DWIDTH 12 0
BBX 19 24 -3 -2
BITMAP 
000000
000000
000000
000000
001800
003C00
003000
000000
000000
006000
006000
006000
00C000
00C000
00C000
018000
018000
018000
030000
000000
000000
000000
000000
000000
ENDCHAR
STARTCHAR U+00A2
ENCODING 162
SWIDTH 500 0
DWIDTH 12 0
BBX 19 24 -3 -2
BITMAP 
000000
000000
000000
000000
000000
000C00
001800
007C00
00FC00
03B600
033600
033000
066000
066C00
076C00
07F000
03E000
00C000
018000
000000
000000
000000
000000
000000
ENDCHAR
STARTCHAR U+00A3
ENCODING 163
SWIDTH 500 0
DWIDTH 12 0
BBX 19 24 -3 -2
BITMAP 
000000
000000
000000
000000
000000
001E00
007E00
00E600
00C000
018000
01C000
03FC00
07F800
018000
018000
07E000
0FF000
0E3800
183000
000000
000000
000000
000000
000000
ENDCHAR
STARTCHAR U+00A4
ENCODING 164
SWIDTH 500 0
DWIDTH 12 0
BBX 19 24 -3 -2
BITMAP 
000000
000000
000000
000000
000000
000000
000000
030300
03B700
03FC00
019800
030C00
061800
033000
07F800
1DB800
181800
000000
000000
000000
000000
000000
000000
000000
ENDCHAR
STARTCHAR U+00A5
ENCODING 165
SWIDTH 500 0
DWIDTH 12 0
BBX 19 24 -3 -2
BITMAP 
000000
000000
000000
000000
000000
00C300
01CE00
00CC00
00FC00
00F000
03FC00
03FC00
00C000
07F800
07F800
018000
018000
018000
030000
000000
000000
000000
000000
000000
ENDCHAR
STARTCHAR U+00A6
ENCODING 166
SWIDTH 500 0
DWIDTH 12 0
BBX 19 24 -3 -2
BITMAP 
000000
000C00
000C00
001800
001800
001800
003000
003000
003000
006000
006000
000000
000000
00C000
00C000
018000
018000
018000
030000
030000
030000
060000
060000
000000
ENDCHAR
STARTCHAR U+00A7
ENCODING 167
SWIDTH 500 0
DWIDTH 12 0
BBX 19 24 -3 -2
BITMAP 
000000
000000
000000
003E00
007F00
00E380
018300
01C000
00FC00
01FC00
030600
030600
03F800
01F800
001C00
0C1800
0E3800
07F000
07C000
000000
000000
000000
000000
000000
ENDCHAR
STARTCHAR U+00A8
ENCODING 168
SWIDTH 500 0
DWIDTH 12 0
BBX 19 24 -3 -2
BITMAP 
000000
003180
003180
000000
000000
000000
000000
000000
000000
000000
000000
000000
000000
000000
000000
000000
000000
000000
000000
000000
000000
000000
000000
000000
ENDCHAR
STARTCHAR U+00A9
ENCODING 169
SWIDTH 500 0
DWIDTH 12 0
BBX 19 24 -3 -2
BITMAP 
000000
000000
001F00
007F00
00E380
00C180
01BB00
01FF00
01E700
038600
038600
038600
079C00
07FC00
06EC00
0C1800
0E3800
07F000
07C000
000000
000000
000000
000000
000000
ENDCHAR
STARTCHAR U+00AA
ENCODING 170
SWIDTH 500 0
DWIDTH 12 0
BBX 19 24 -3 -2
BITMAP 
001F00
003F80
003180
001F00
003F00
006300
00FE00
007E00
000000
01FC00
01FC00
000000
000000
000000
000000
000000
000000
000000
000000
000000
000000
000000
000000
000000
ENDCHAR
STARTCHAR U+00AB
ENCODING 171
SWIDTH 500 0
DWIDTH 12 0
BBX 19 24 -3 -2
BITMAP 
000000
000000
000000
000000
000000
000000
003600
006C00
006C00
01B000
01B000
03E000
06C000
036000
03E000
036000
036000
01B000
000000
000000
000000
000000
000000
000000
ENDCHAR
STARTCHAR U+00AC
ENCODING 172
SWIDTH 500 0
DWIDTH 12 0
BBX 19 24 -3 -2
BITMAP 
000000
000000
000000
000000
000000
000000
000000
000000
000000
000000
000000
07FE00
0FFC00
000C00
000C00
001800
000000
000000
000000
000000
000000
000000
000000
000000
ENDCHAR
STARTCHAR U+00AD
ENCODING 173
SWIDTH 500 0
DWIDTH 12 0
BBX 19 24 -3 -2
BITMAP 
000000
000000
000000
000000
000000
000000
000000
000000
000000
000000
000000
000000
0FFC00
0FFC00
000000
000000
000000
000000
000000
000000
000000
000000
000000
000000
ENDCHAR
STARTCHAR U+00AE
ENCODING 174
SWIDTH 500 0
DWIDTH 12 0
BBX 19 24 -3 -2
BITMAP 
000000
000000
001F00
007F00
00E380
00C180
01FB00
01FF00
01CB00
038E00
03FE00
03F600
076C00
073C00
073C00
0C1800
0E3800
07F000
07C000
000000
000000
000000
000000
000000
ENDCHAR
STARTCHAR U+00AF
ENCODING 175
SWIDTH 500 0
DWIDTH 12 0
BBX 19 24 -3 -2
BITMAP 
00FFC0
00FFC0
000000
000000
000000
000000
000000
000000
000000
000000
000000
000000
000000
000000
000000
000000
000000
000000
000000
000000
000000
000000
000000
000000
ENDCHAR
STARTCHAR U+00B0
ENCODING 176
SWIDTH 500 0
DWIDTH 12 0
BBX 19 24 -3 -2
BITMAP 
000E00
001B00
001B00
001C00
000000
000000
000000
000000
000000
000000
000000
000000
000000
000000
000000
000000
000000
000000
000000
000000
000000
000000
000000
000000
ENDCHAR
STARTCHAR U+00B1
ENCODING 177
SWIDTH 500 0
DWIDTH 12 0
BBX 19 24 -3 -2
BITMAP 
000000
000000
000000
000000
000000
000000
003000
003000
003000
03FC00
03FC00
006000
00C000
00C000
000000
000000
0FF000
0FF000
000000
000000
000000
000000
000000
000000
ENDCHAR
STARTCHAR U+00B2
ENCODING 178
SWIDTH 500 0
DWIDTH 12 0
BBX 19 24 -3 -2
BITMAP 
001F00
003F80
003180
000700
000E00
001C00
007000
00E000
00FE00
01FC00
000000
000000
000000
000000
000000
000000
000000
000000
000000
000000
000000
000000
000000
000000
ENDCHAR
STARTCHAR U+00B3
ENCODING 179
SWIDTH 500 0
DWIDTH 12 0
BBX 19 24 -3 -2
BITMAP 
001F00
003F80
003180
000300
001F00
001F00
000600
00C600
00FE00
00F800
000000
000000
000000
000000
000000
000000
000000
000000
000000
000000
000000
000000
000000
000000
ENDCHAR
STARTCHAR U+00B4
ENCODING 180
SWIDTH 500 0
DWIDTH 12 0
BBX 19 24 -3 -2
BITMAP 
000600
000E00
001800
000000
000000
000000
000000
000000
000000
000000
000000
000000
000000
000000
000000
000000
000000
000000
000000
000000
000000
000000
000000
000000
ENDCHAR
STARTCHAR U+00B5
ENCODING 181
SWIDTH 500 0
DWIDTH 12 0
BBX 19 24 -3 -2
BITMAP 
000000
000000
000000
000000
000000
000000
000000
000000
000000
006600
006600
006600
00CC00
01D800
019800
033000
03F800
07F800
0C3000
0C0000
1C0000
300000
300000
300000
ENDCHAR
STARTCHAR U+00B6
ENCODING 182
SWIDTH 500 0
DWIDTH 12 0
BBX 19 24 -3 -2
BITMAP 
000000
000000
000000
000000
000000
003F80
00FD00
01FD00
01FD00
03FA00
03FA00
01FA00
01F400
001400
001400
002800
002800
002800
007000
000000
000000
000000
000000
000000
ENDCHAR
STARTCHAR U+00B7
ENCODING 183
SWIDTH 500 0
DWIDTH 12 0
BBX 19 24 -3 -2
BITMAP 
000000
000000
000000
000000
000000
000000
000000
000000
000000
000000
006000
00F000
01E000
00C000
000000
000000
000000
000000
000000
000000
000000
000000
000000
000000
ENDCHAR
STARTCHAR U+00B8
ENCODING 184
SWIDTH 500 0
DWIDTH 12 0
BBX 19 24 -3 -2
BITMAP 
000000
000000
000000
000000
000000
000000
000000
000000
000000
000000
000000
000000
000000
000000
000000
000000
000000
000000
030000
030000
030000
018000
0F8000
0F0000
ENDCHAR
STARTCHAR U+00B9
ENCODING 185
SWIDTH 500 0
DWIDTH 12 0
BBX 19 24 -3 -2
BITMAP 
000C00
001C00
003C00
001800
001800
001800
003000
003000
00FC00
01F800
000000
000000
000000
000000
000000
000000
000000
000000
000000
000000
000000
000000
000000
000000
ENDCHAR
STARTCHAR U+00BA
ENCODING 186
SWIDTH 500 0
DWIDTH 12 0
BBX 19 24 -3 -2
BITMAP 
001F00
003F80
003180
006300
006300
006300
00FE00
007C00
000000
01FC00
01FC00
000000
000000
000000
000000
000000
000000
000000
000000
000000
000000
000000
000000
000000
ENDCHAR
STARTCHAR U+00BB
ENCODING 187
SWIDTH 500 0
DWIDTH 12 0
BBX 19 24 -3 -2
BITMAP 
000000
000000
000000
000000
000000
000000
00D800
006C00
007C00
006C00
006C00
003600
005C00
00D800
00D800
036000
036000
06C000
000000
000000
000000
000000
000000
000000
ENDCHAR
STARTCHAR U+00BC
ENCODING 188
SWIDTH 500 0
DWIDTH 12 0
BBX 19 24 -3 -2
BITMAP 
000000
000000
003000
00E000
006000
006000
00C000
00C300
01E700
03BC00
003800
007000
01C000
039800
073800
1CF000
19B000
01F800
03F000
006000
006000
000000
000000
000000
ENDCHAR
STARTCHAR U+00BD
ENCODING 189
SWIDTH 500 0
DWIDTH 12 0
BBX 19 24 -3 -2
BITMAP 
000000
000000
003000
00E000
006000
006000
00C000
00C300
01E700
03BC00
003800
007000
01C000
03B800
07FC00
1CD800
181800
003000
00C000
01F000
01F000
000000
000000
000000
ENDCHAR
STARTCHAR U+00BE
ENCODING 190
SWIDTH 500 0
DWIDTH 12 0
BBX 19 24 -3 -2
BITMAP 
000000
000000
007800
00F800
001800
007000
00E000
003300
01F700
03DC00
003800
007000
01C000
039800
073800
1CF000
19B000
01F800
03F000
006000
006000
000000
000000
000000
ENDCHAR
STARTCHAR U+00BF
ENCODING 191
SWIDTH 500 0
DWIDTH 12 0
BBX 19 24 -3 -2
BITMAP 
000000
000000
000000
000000
001800
003C00
003000
000000
000000
006000
006000
006000
018000
030000
060000
0C1000
0E7000
07E000
078000
000000
000000
000000
000000
000000
ENDCHAR
STARTCHAR U+00C0
ENCODING 192
SWIDTH 500 0
DWIDTH 12 0
BBX 19 24 -3 -2
BITMAP 
000C00
000E00
000300
000000
000000
003E00
00FE00
01C700
018300
030600
030600
03FE00
07FC00
060C00
060C00
0C1800
0C1800
0C1800
183000
000000
000000
000000
000000
000000
ENDCHAR
STARTCHAR U+00C1
ENCODING 193
SWIDTH 500 0
DWIDTH 12 0
BBX 19 24 -3 -2
BITMAP 
000600
000E00
001800
000000
000000
003E00
00FE00
01C700
018300
030600
030600
03FE00
07FC00
060C00
060C00
0C1800
0C1800
0C1800
183000
000000
000000
000000
000000
000000
ENDCHAR
STARTCHAR U+00C2
ENCODING 194
SWIDTH 500 0
DWIDTH 12 0
BBX 19 24 -3 -2
BITMAP 
000E00
001F00
003180
000000
000000
003E00
00FE00
01C700
018300
030600
030600
03FE00
07FC00
060C00
060C00
0C1800
0C1800
0C1800
183000
000000
000000
000000
000000
000000
ENDCHAR
STARTCHAR U+00C3
ENCODING 195
SWIDTH 500 0
DWIDTH 12 0
BBX 19 24 -3 -2
BITMAP 
003840
006CC0
004780
000000
000000
003E00
00FE00
01C700
018300
030600
030600
03FE00
07FC00
060C00
060C00
0C1800
0C1800
0C1800
183000
000000
000000
000000
000000
000000
ENDCHAR
STARTCHAR U+00C4
ENCODING 196
SWIDTH 500 0
DWIDTH 12 0
BBX 19 24 -3 -2
BITMAP 
000000
003180
003180
000000
000000
003E00
00FE00
01C700
018300
030600
030600
03FE00
07FC00
060C00
060C00
0C1800
0C1800
0C1800
183000
000000
000000
000000
000000
000000
ENDCHAR
STARTCHAR U+00C5
ENCODING 197
SWIDTH 500 0
DWIDTH 12 0
BBX 19 24 -3 -2
BITMAP 
000E00
001B00
001B00
001C00
000000
003E00
00FE00
01C700
018300
030600
030600
03FE00
07FC00
060C00
060C00
0C1800
0C1800
0C1800
183000
000000
000000
000000
000000
000000
ENDCHAR
STARTCHAR U+00C6
ENCODING 198
SWIDTH 500 0
DWIDTH 12 0
BBX 19 24 -3 -2
BITMAP 
000000
000000
000000
000000
000000
007F80
00FF00
019800
019800
063000
063E00
07FE00
0FE000
0C6000
0C6000
18C000
18C000
18F800
31F000
000000
000000
000000
000000
000000
ENDCHAR
STARTCHAR U+00C7
ENCODING 199
SWIDTH 500 0
DWIDTH 12 0
BBX 19 24 -3 -2
BITMAP 
000000
000000
000000
000000
000000
003E00
00FE00
01C700
018300
030000
030000
030000
060000
060000
060000
0C1800
0E3800
07F000
07C000
030000
030000
018000
0F8000
0F0000
ENDCHAR
STARTCHAR U+00C8
ENCODING 200
SWIDTH 500 0
DWIDTH 12 0
BBX 19 24 -3 -2
BITMAP 
000C00
000E00
000300
000000
000000
00FF80
01FF00
018000
018000
030000
030000
03F800
07F000
060000
060000
0C0000
0C0000
0FF800
1FF000
000000
000000
000000
000000
000000
ENDCHAR
STARTCHAR U+00C9
ENCODING 201
SWIDTH 500 0
DWIDTH 12 0
BBX 19 24 -3 -2
BITMAP 
000600
000E00
001800
000000
000000
00FF80
01FF00
018000
018000
030000
030000
03F800
07F000
060000
060000
0C0000
0C0000
0FF800
1FF000
000000
000000
000000
000000
000000
ENDCHAR
STARTCHAR U+00CA
ENCODING 202
SWIDTH 500 0
DWIDTH 12 0
BBX 19 24 -3 -2
BITMAP 
000E00
001F00
003180
000000
000000
00FF80
01FF00
018000
018000
030000
030000
03F800
07F000
060000
060000
0C0000
0C0000
0FF800
1FF000
000000
000000
000000
000000
000000
ENDCHAR
STARTCHAR U+00CB
ENCODING 203
SWIDTH 500 0
DWIDTH 12 0
BBX 19 24 -3 -2
BITMAP 
000000
003180
003180
000000
000000
00FF80
01FF00
018000
018000
030000
030000
03F800
07F000
060000
060000
0C0000
0C0000
0FF800
1FF000
000000
000000
000000
000000
000000
ENDCHAR
STARTCHAR U+00CC
ENCODING 204
SWIDTH 500 0
DWIDTH 12 0
BBX 19 24 -3 -2
BITMAP 
001800
001C00
000600
000000
000000
007E00
00FC00
003000
003000
006000
006000
006000
00C000
00C000
00C000
018000
018000
07E000
0FC000
000000
000000
000000
000000
000000
ENDCHAR
STARTCHAR U+00CD
ENCODING 205
SWIDTH 500 0
DWIDTH 12 0
BBX 19 24 -3 -2
BITMAP 
000600
000E00
001800
000000
000000
007E00
00FC00
003000
003000
006000
006000
006000
00C000
00C000
00C000
018000
018000
07E000
0FC000
000000
000000
000000
000000
000000
ENDCHAR
STARTCHAR U+00CE
ENCODING 206
SWIDTH 500 0
DWIDTH 12 0
BBX 19 24 -3 -2
BITMAP 
000C00
001E00
003300
000000
000000
007E00
00FC00
003000
003000
006000
006000
006000
00C000
00C000
00C000
018000
018000
07E000
0FC000
000000
000000
000000
000000
000000
ENDCHAR
STARTCHAR U+00CF
ENCODING 207
SWIDTH 500 0
DWIDTH 12 0
BBX 19 24 -3 -2
BITMAP 
000000
003300
003300
000000
000000
007E00
00FC00
003000
003000
006000
006000
006000
00C000
00C000
00C000
018000
018000
07E000
0FC000
000000
000000
000000
000000
000000
ENDCHAR
STARTCHAR U+00D0
ENCODING 208
SWIDTH 500 0
DWIDTH 12 0
BBX 19 24 -3 -2
BITMAP 
000000
000000
000000
000000
000000
00FE00
01FE00
018700
018300
030600
030600
07E600
0FCC00
060C00
060C00
0C1800
0C3800
0FF000
1FC000
000000
000000
000000
000000
000000
ENDCHAR
STARTCHAR U+00D1
ENCODING 209
SWIDTH 500 0
DWIDTH 12 0
BBX 19 24 -3 -2
BITMAP 
003840
006CC0
004780
000000
000000
00C180
01C300
01C300
01E300
03C600
036600
036600
066C00
066C00
063C00
0C7800
0C3800
0C3800
183000
000000
000000
000000
000000
000000
ENDCHAR
STARTCHAR U+00D2
ENCODING 210
SWIDTH 500 0
DWIDTH 12 0
BBX 19 24 -3 -2
BITMAP 
000C00
000E00
000300
000000
000000
003E00
00FE00
01C700
018300
030600
030600
030600
060C00
060C00
060C00
0C1800
0E3800
07F000
07C000
000000
000000
000000
000000
000000
ENDCHAR
STARTCHAR U+00D3
ENCODING 211
SWIDTH 500 0
DWIDTH 12 0
BBX 19 24 -3 -2
BITMAP 
000600
000E00
001800
000000
000000
003E00
00FE00
01C700
018300
030600
030600
030600
060C00
060C00
060C00
0C1800
0E3800
07F000
07C000
000000
000000
000000
000000
000000
ENDCHAR
STARTCHAR U+00D4
ENCODING 212
SWIDTH 500 0
DWIDTH 12 0
BBX 19 24 -3 -2
BITMAP 
000E00
001F00
003180
000000
000000
003E00
00FE00
01C700
018300
030600
030600
030600
060C00
060C00
060C00
0C1800
0E3800
07F000
07C000
000000
000000
000000
000000
000000
ENDCHAR
STARTCHAR U+00D5
ENCODING 213
SWIDTH 500 0
DWIDTH 12 0
BBX 19 24 -3 -2
BITMAP 
003840
006CC0
004780
000000
000000
003E00
00FE00
01C700
018300
030600
030600
030600
060C00
060C00
060C00
0C1800
0E3800
07F000
07C000
000000
000000
000000
000000
000000
ENDCHAR
STARTCHAR U+00D6
ENCODING 214
SWIDTH 500 0
DWIDTH 12 0
BBX 19 24 -3 -2
BITMAP 
000000
003180
003180
000000
000000
003E00
00FE00
01C700
018300
030600
030600
030600
060C00
060C00
060C00
0C1800
0E3800
07F000
07C000
000000
000000
000000
000000
000000
ENDCHAR
STARTCHAR U+00D7
ENCODING 215
SWIDTH 500 0
DWIDTH 12 0
BBX 19 24 -3 -2
BITMAP 
000000
000000
000000
000000
000000
000000
000000
000000
018300
038E00
01DC00
00F800
00E000
01F000
03B800
0E3800
0C1800
000000
000000
000000
000000
000000
000000
000000
ENDCHAR
STARTCHAR U+00D8
ENCODING 216
SWIDTH 500 0
DWIDTH 12 0
BBX 19 24 -3 -2
BITMAP 
000000
000000
000000
000000
000000
003E80
00FF00
01C700
018700
030E00
031600
033600
064C00
068C00
078C00
0E1800
0E3800
0FF000
17C000
000000
000000
000000
000000
000000
ENDCHAR
STARTCHAR U+00D9
ENCODING 217
SWIDTH 500 0
DWIDTH 12 0
BBX 19 24 -3 -2
BITMAP 
000C00
000E00
000300
000000
000000
00C180
018300
018300
018300
030600
030600
030600
060C00
060C00
060C00
0C1800
0E3800
07F000
07C000
000000
000000
000000
000000
000000
ENDCHAR
STARTCHAR U+00DA
ENCODING 218
SWIDTH 500 0
DWIDTH 12 0
BBX 19 24 -3 -2
BITMAP 
000600
000E00
001800
000000
000000
00C180
018300
018300
018300
030600
030600
030600
060C00
060C00
060C00
0C1800
0E3800
07F000
07C000
000000
000000
000000
000000
000000
ENDCHAR
STARTCHAR U+00DB
ENCODING 219
SWIDTH 500 0
DWIDTH 12 0
BBX 19 24 -3 -2
BITMAP 
000E00
001F00
003180
000000
000000
00C180
018300
018300
018300
030600
030600
030600
060C00
060C00
060C00
0C1800
0E3800
07F000
07C000
000000
000000
000000
000000
000000
ENDCHAR
STARTCHAR U+00DC
ENCODING 220
SWIDTH 500 0
DWIDTH 12 0
BBX 19 24 -3 -2
BITMAP 
000000
003180
003180
000000
000000
00C180
018300
018300
018300
030600
030600
030600
060C00
060C00
060C00
0C1800
0E3800
07F000
07C000
000000
000000
000000
000000
000000
ENDCHAR
STARTCHAR U+00DD
ENCODING 221
SWIDTH 500 0
DWIDTH 12 0
BBX 19 24 -3 -2
BITMAP 
000600
000E00
001800
000000
000000
018180
030300
018600
018600
019800
01F800
00F000
00C000
00C000
00C000
018000
018000
018000
030000
000000
000000
000000
000000
000000
ENDCHAR
STARTCHAR U+00DE
ENCODING 222
SWIDTH 500 0
DWIDTH 12 0
BBX 19 24 -3 -2
BITMAP 
000000
000000
000000
000000
000000
00C600
019E00
01B300
01E300
038600
030600
030600
070C00
078C00
068C00
0CF000
0C6000
0C0000
180000
300000
200000
000000
000000
000000
ENDCHAR
STARTCHAR U+00DF
ENCODING 223
SWIDTH 500 0
DWIDTH 12 0
BBX 19 24 -3 -2
BITMAP 
000000
000000
000000
000000
000000
003E00
00FE00
01C700
018300
030600
030E00
033C00
067C00
061C00
060C00
0C1800
0C3800
0CF000
19C000
000000
000000
000000
000000
000000
ENDCHAR
STARTCHAR U+00E0
ENCODING 224
SWIDTH 500 0
DWIDTH 12 0
BBX 19 24 -3 -2
BITMAP 
000000
000000
000000
001800
001C00
000600
000000
000000
003C00
00FC00
018600
000600
00FC00
03FC00
060C00
0C3800
0C7800
0FD800
0F3000
000000
000000
000000
000000
000000
ENDCHAR
STARTCHAR U+00E1
ENCODING 225
SWIDTH 500 0
DWIDTH 12 0
BBX 19 24 -3 -2
BITMAP 
000000
000000
000000
000600
000E00
001800
000000
000000
003C00
00FC00
018600
000600
00FC00
03FC00
060C00
0C3800
0C7800
0FD800
0F3000
000000
000000
000000
000000
000000
ENDCHAR
STARTCHAR U+00E2
ENCODING 226
SWIDTH 500 0
DWIDTH 12 0
BBX 19 24 -3 -2
BITMAP 
000000
000000
000000
001C00
003E00
006300
000000
000000
003C00
00FC00
018600
000600
00FC00
03FC00
060C00
0C3800
0C7800
0FD800
0F3000
000000
000000
000000
000000
000000
ENDCHAR
STARTCHAR U+00E3
ENCODING 227
SWIDTH 500 0
DWIDTH 12 0
BBX 19 24 -3 -2
BITMAP 
000000
000000
000000
007080
00D980
008F00
000000
000000
003C00
00FC00
018600
000600
00FC00
03FC00
060C00
0C3800
0C7800
0FD800
0F3000
000000
000000
000000
000000
000000
ENDCHAR
STARTCHAR U+00E4
ENCODING 228
SWIDTH 500 0
DWIDTH 12 0
BBX 19 24 -3 -2
BITMAP 
000000
000000
000000
000000
003300
003300
000000
000000
003C00
00FC00
018600
000600
00FC00
03FC00
060C00
0C3800
0C7800
0FD800
0F3000
000000
000000
000000
000000
000000
ENDCHAR
STARTCHAR U+00E5
ENCODING 229
SWIDTH 500 0
DWIDTH 12 0
BBX 19 24 -3 -2
BITMAP 
000000
000000
000000
001C00
003600
003600
003800
000000
003C00
00FC00
018600
000600
00FC00
03FC00
060C00
0C3800
0C7800
0FD800
0F3000
000000
000000
000000
000000
000000
ENDCHAR
STARTCHAR U+00E6
ENCODING 230
SWIDTH 500 0
DWIDTH 12 0
BBX 19 24 -3 -2
BITMAP 
000000
000000
000000
000000
000000
000000
000000
000000
01CE00
03FE00
046600
006600
03FC00
07F800
0CC000
198000
199800
1FF800
1FE000
000000
000000
000000
000000
000000
ENDCHAR
STARTCHAR U+00E7
ENCODING 231
SWIDTH 500 0
DWIDTH 12 0
BBX 19 24 -3 -2
BITMAP 
000000
000000
000000
000000
000000
000000
000000
000000
000000
007C00
01FC00
038600
060C00
060000
060000
0C0000
0E1800
07F800
07E000
030000
030000
018000
0F8000
0F0000
ENDCHAR
STARTCHAR U+00E8
ENCODING 232
SWIDTH 500 0
DWIDTH 12 0
BBX 19 24 -3 -2
BITMAP 
000000
000000
000000
000000
001800
001800
000C00
000000
000000
00F800
01FC00
038600
060C00
07FC00
07FC00
0C0000
0C1800
07F800
07E000
000000
000000
000000
000000
000000
ENDCHAR
STARTCHAR U+00E9
ENCODING 233
SWIDTH 500 0
DWIDTH 12 0
BBX 19 24 -3 -2
BITMAP 
000000
000000
000000
000000
000C00
001C00
006000
000000
000000
00F800
01FC00
038600
060C00
07FC00
07FC00
0C0000
0C1800
07F800
07E000
000000
000000
000000
000000
000000
ENDCHAR
STARTCHAR U+00EA
ENCODING 234
SWIDTH 500 0
DWIDTH 12 0
BBX 19 24 -3 -2
BITMAP 
000000
000000
000000
000000
001C00
003C00
00C600
000000
000000
00F800
01FC00
038600
060C00
07FC00
07FC00
0C0000
0C1800
07F800
07E000
000000
000000
000000
000000
000000
ENDCHAR
STARTCHAR U+00EB
ENCODING 235
SWIDTH 500 0
DWIDTH 12 0
BBX 19 24 -3 -2
BITMAP 
000000
000000
000000
000000
000000
006300
00C600
000000
000000
00F800
01FC00
038600
060C00
07FC00
07FC00
0C0000
0C1800
07F800
07E000
000000
000000
000000
000000
000000
ENDCHAR
STARTCHAR U+00EC
ENCODING 236
SWIDTH 500 0
DWIDTH 12 0
BBX 19 24 -3 -2
BITMAP 
000000
000000
000000
000000
003000
003000
001800
000000
000000
006000
006000
006000
00C000
00C000
00C000
018000
018000
018000
030000
000000
000000
000000
000000
000000
ENDCHAR
STARTCHAR U+00ED
ENCODING 237
SWIDTH 500 0
DWIDTH 12 0
BBX 19 24 -3 -2
BITMAP 
000000
000000
000000
000000
000C00
001C00
006000
000000
000000
006000
006000
006000
00C000
00C000
00C000
018000
018000
018000
030000
000000
000000
000000
000000
000000
ENDCHAR
STARTCHAR U+00EE
ENCODING 238
SWIDTH 500 0
DWIDTH 12 0
BBX 19 24 -3 -2
BITMAP 
000000
000000
000000
000000
001800
003800
00CC00
000000
000000
006000
006000
006000
00C000
00C000
00C000
018000
018000
018000
030000
000000
000000
000000
000000
000000
ENDCHAR
STARTCHAR U+00EF
ENCODING 239
SWIDTH 500 0
DWIDTH 12 0
BBX 19 24 -3 -2
BITMAP 
000000
000000
000000
000000
000000
006600
00CC00
000000
000000
006000
006000
006000
00C000
00C000
00C000
018000
018000
018000
030000
000000
000000
000000
000000
000000
ENDCHAR
STARTCHAR U+00F0
ENCODING 240
SWIDTH 500 0
DWIDTH 12 0
BBX 19 24 -3 -2
BITMAP 
000000
000000
000000
000000
000000
007380
00FF00
001C00
007E00
03CE00
030600
00FE00
03FC00
070C00
060C00
0C1800
0E3800
07F000
07C000
000000
000000
000000
000000
000000
ENDCHAR
STARTCHAR U+00F1
ENCODING 241
SWIDTH 500 0
DWIDTH 12 0
BBX 19 24 -3 -2
BITMAP 
000000
000000
000000
000000
007080
00D180
011E00
000000
000000
033800
037C00
03C600
070C00
060C00
060C00
0C1800
0C1800
0C1800
183000
000000
000000
000000
000000
000000
ENDCHAR
STARTCHAR U+00F2
ENCODING 242
SWIDTH 500 0
DWIDTH 12 0
BBX 19 24 -3 -2
BITMAP 
000000
000000
000000
000000
001800
001800
000C00
000000
000000
00F800
01FC00
038E00
060C00
060C00
060C00
0C1800
0E3800
07F000
07C000
000000
000000
000000
000000
000000
ENDCHAR
STARTCHAR U+00F3
ENCODING 243
SWIDTH 500 0
DWIDTH 12 0
BBX 19 24 -3 -2
BITMAP 
000000
000000
000000
000000
000C00
001C00
006000
000000
000000
00F800
01FC00
038E00
060C00
060C00
060C00
0C1800
0E3800
07F000
07C000
000000
000000
000000
000000
000000
ENDCHAR
STARTCHAR U+00F4
ENCODING 244
SWIDTH 500 0
DWIDTH 12 0
BBX 19 24 -3 -2
BITMAP 
000000
000000
000000
000000
001C00
003C00
00C600
000000
000000
00F800
01FC00
038E00
060C00
060C00
060C00
0C1800
0E3800
07F000
07C000
000000
000000
000000
000000
000000
ENDCHAR
STARTCHAR U+00F5
ENCODING 245
SWIDTH 500 0
DWIDTH 12 0
BBX 19 24 -3 -2
BITMAP 
000000
000000
000000
000000
007080
00D180
011E00
000000
000000
00F800
01FC00
038E00
060C00
060C00
060C00
0C1800
0E3800
07F000
07C000
000000
000000
000000
000000
000000
ENDCHAR
STARTCHAR U+00F6
ENCODING 246
SWIDTH 500 0
DWIDTH 12 0
BBX 19 24 -3 -2
BITMAP 
000000
000000
000000
000000
000000
006300
00C600
000000
000000
00F800
01FC00
038E00
060C00
060C00
060C00
0C1800
0E3800
07F000
07C000
000000
000000
000000
000000
000000
ENDCHAR
STARTCHAR U+00F7
ENCODING 247
SWIDTH 500 0
DWIDTH 12 0
BBX 19 24 -3 -2
BITMAP 
000000
000000
000000
000000
000000
000000
000000
000000
003000
00F000
006000
000000
0FFC00
0FFC00
000000
018000
03C000
018000
000000
000000
000000
000000
000000
000000
ENDCHAR
STARTCHAR U+00F8
ENCODING 248
SWIDTH 500 0
DWIDTH 12 0
BBX 19 24 -3 -2
BITMAP 
000000
000000
000000
000000
000000
000000
000000
000000
000000
00F600
01FE00
039C00
067C00
066C00
06EC00
0F9800
073800
0FF000
1BC000
000000
000000
000000
000000
000000
ENDCHAR
STARTCHAR U+00F9
ENCODING 249
SWIDTH 500 0
DWIDTH 12 0
BBX 19 24 -3 -2
BITMAP 
000000
000000
000000
000000
001800
001800
000C00
000000
000000
030600
030600
030600
060C00
060C00
060C00
0C3800
0E7800
07D800
073000
000000
000000
000000
000000
000000
ENDCHAR
STARTCHAR U+00FA
ENCODING 250
SWIDTH 500 0
DWIDTH 12 0
BBX 19 24 -3 -2
BITMAP 
000000
000000
000000
000000
000C00
001C00
006000
000000
000000
030600
030600
030600
060C00
060C00
060C00
0C3800
0E7800
07D800
073000
000000
000000
000000
000000
000000
ENDCHAR
STARTCHAR U+00FB
ENCODING 251
SWIDTH 500 0
DWIDTH 12 0
BBX 19 24 -3 -2
BITMAP 
000000
000000
000000
000000
001C00
003C00
00C600
000000
000000
030600
030600
030600
060C00
060C00
060C00
0C3800
0E7800
07D800
073000
000000
000000
000000
000000
000000
ENDCHAR
STARTCHAR U+00FC
ENCODING 252
SWIDTH 500 0
DWIDTH 12 0
BBX 19 24 -3 -2
BITMAP 
000000
000000
000000
000000
000000
006300
00C600
000000
000000
030600
030600
030600
060C00
060C00
060C00
0C3800
0E7800
07D800
073000
000000
000000
000000
000000
000000
ENDCHAR
STARTCHAR U+00FD
ENCODING 253
SWIDTH 500 0
DWIDTH 12 0
BBX 19 24 -3 -2
BITMAP 
000000
000000
000000
000000
000600
000E00
003000
000000
000000
030600
030600
030600
060C00
060C00
060C00
0C1800
0E3800
07F800
07B000
003000
003000
00E000
1FC000
0F8000
ENDCHAR
STARTCHAR U+00FE
ENCODING 254
SWIDTH 500 0
DWIDTH 12 0
BBX 19 24 -3 -2
BITMAP 
000000
000000
000000
000000
000000
00C000
018000
018000
018000
033800
037C00
03CE00
070C00
060C00
060C00
0C3800
0C7000
0FE000
1F8000
180000
180000
300000
300000
300000
ENDCHAR
STARTCHAR U+00FF
ENCODING 255
SWIDTH 500 0
DWIDTH 12 0
BBX 19 24 -3 -2
BITMAP 
000000
000000
000000
000000
000000
006300
00C600
000000
000000
030600
030600
030600
060C00
060C00
060C00
0C1800
0E3800
07F800
07B000
003000
003000
00E000
1FC000
0F8000
ENDCHAR
STARTCHAR U+0100
ENCODING 256
SWIDTH 500 0
DWIDTH 12 0
BBX 19 24 -3 -2
BITMAP 
000000
003F80
003F80
000000
000000
003E00
00FE00
01C700
018300
030600
030600
03FE00
07FC00
060C00
060C00
0C1800
0C1800
0C1800
183000
000000
000000
000000
000000
000000
ENDCHAR
STARTCHAR U+0101
ENCODING 257
SWIDTH 500 0
DWIDTH 12 0
BBX 19 24 -3 -2
BITMAP 
000000
000000
000000
000000
007F00
007F00
000000
000000
003C00
00FC00
018600
000600
00FC00
03FC00
060C00
0C3800
0C7800
0FD800
0F3000
000000
000000
000000
000000
000000
ENDCHAR
STARTCHAR U+0102
ENCODING 258
SWIDTH 500 0
DWIDTH 12 0
BBX 19 24 -3 -2
BITMAP 
003180
003180
001F00
000000
000000
003E00
00FE00
01C700
018300
030600
030600
03FE00
07FC00
060C00
060C00
0C1800
0C1800
0C1800
183000
000000
000000
000000
000000
000000
ENDCHAR
STARTCHAR U+0103
ENCODING 259
SWIDTH 500 0
DWIDTH 12 0
BBX 19 24 -3 -2
BITMAP 
000000
000000
000000
003300
003300
001E00
000000
000000
003C00
00FC00
018600
000600
00FC00
03FC00
060C00
0C3800
0C7800
0FD800
0F3000
000000
000000
000000
000000
000000
ENDCHAR
STARTCHAR U+0104
ENCODING 260
SWIDTH 500 0
DWIDTH 12 0
BBX 19 24 -3 -2
BITMAP 
000000
000000
000000
000000
000000
003E00
00FE00
01C700
018300
030600
030600
03FE00
07FC00
060C00
060C00
0C1800
0C1800
0C1800
183000
00F000
01C000
060000
07C000
03C000
ENDCHAR
STARTCHAR U+0105
ENCODING 261
SWIDTH 500 0
DWIDTH 12 0
BBX 19 24 -3 -2
BITMAP 
000000
000000
000000
000000
000000
000000
000000
000000
003C00
00FC00
018600
000600
00FC00
03FC00
060C00
0C3800
0C7800
0FD800
0F3000
00F000
01C000
060000
07C000
03C000
ENDCHAR
STARTCHAR U+0106
ENCODING 262
SWIDTH 500 0
DWIDTH 12 0
BBX 19 24 -3 -2
BITMAP 
000600
000E00
001800
000000
000000
003E00
00FE00
01C700
018300
030000
030000
030000
060000
060000
060000
0C0000
0C1800
043800
07E000
03C000
000000
000000
000000
000000
ENDCHAR
STARTCHAR U+0107
ENCODING 263
SWIDTH 500 0
DWIDTH 12 0
BBX 19 24 -3 -2
BITMAP 
000000
000000
000000
000000
000C00
001C00
006000
000000
000000
007C00
01FC00
038600
060C00
060000
060000
0C0000
0E1800
07F800
07E000
000000
000000
000000
000000
000000
ENDCHAR
STARTCHAR U+0108
ENCODING 264
SWIDTH 500 0
DWIDTH 12 0
BBX 19 24 -3 -2
BITMAP 
000E00
001F00
003180
000000
000000
003E00
00FE00
01C700
018300
030000
030000
030000
060000
060000
060000
0C1800
0E3800
07F000
07C000
000000
000000
000000
000000
000000
ENDCHAR
STARTCHAR U+0109
ENCODING 265
SWIDTH 500 0
DWIDTH 12 0
BBX 19 24 -3 -2
BITMAP 
000000
000000
000000
000000
001C00
003C00
00C600
000000
000000
007C00
01FC00
038600
060C00
060000
060000
0C0000
0E1800
07F800
07E000
000000
000000
000000
000000
000000
ENDCHAR
STARTCHAR U+010A
ENCODING 266
SWIDTH 500 0
DWIDTH 12 0
BBX 19 24 -3 -2
BITMAP 
000000
000C00
000C00
000000
000000
003E00
00FE00
01C700
018300
030000
030000
030000
060000
060000
060000
0C1800
0E3800
07F000
07C000
000000
000000
000000
000000
000000
ENDCHAR
STARTCHAR U+010B
ENCODING 267
SWIDTH 500 0
DWIDTH 12 0
BBX 19 24 -3 -2
BITMAP 
000000
000000
000000
000000
000000
000C00
001800
000000
000000
007C00
01FC00
038600
060C00
060000
060000
0C0000
0E1800
07F800
07E000
000000
000000
000000
000000
000000
ENDCHAR
STARTCHAR U+010C
ENCODING 268
SWIDTH 500 0
DWIDTH 12 0
BBX 19 24 -3 -2
BITMAP 
003300
001E00
000C00
000000
000000
003E00
00FE00
01C700
018300
030000
030000
030000
060000
060000
060000
0C0000
0C1800
0E3800
0FE000
07C000
000000
000000
000000
000000
ENDCHAR
STARTCHAR U+010D
ENCODING 269
SWIDTH 500 0
DWIDTH 12 0
BBX 19 24 -3 -2
BITMAP 
000000
000000
000000
000000
003300
001E00
001800
000000
000000
007C00
01FC00
038600
060C00
060000
060000
0C0000
0E1800
07F800
07E000
000000
000000
000000
000000
000000
ENDCHAR
STARTCHAR U+010E
ENCODING 270
SWIDTH 500 0
DWIDTH 12 0
BBX 19 24 -3 -2
BITMAP 
003300
001E00
000C00
000000
000000
00FE00
01FE00
018600
018300
030600
030600
030600
060C00
060C00
060C00
0C1800
0C3800
0FF000
1FC000
000000
000000
000000
000000
000000
ENDCHAR
STARTCHAR U+010F
ENCODING 271
SWIDTH 500 0
DWIDTH 12 0
BBX 19 24 -3 -2
BITMAP 
000000
000000
0001C0
000380
000080
000D80
001E00
001800
001800
01B000
03F000
077000
0C6000
0C6000
0C6000
18C000
1DC000
0FC000
0D8000
000000
000000
000000
000000
000000
ENDCHAR
STARTCHAR U+0110
ENCODING 272
SWIDTH 500 0
DWIDTH 12 0
BBX 19 24 -3 -2
BITMAP 
000000
000000
000000
000000
000000
00FE00
01FE00
018700
018300
030600
030600
07E600
0FCC00
060C00
060C00
0C1800
0C3800
0FF000
1FC000
000000
000000
000000
000000
000000
ENDCHAR
STARTCHAR U+0111
ENCODING 273
SWIDTH 500 0
DWIDTH 12 0
BBX 19 24 -3 -2
BITMAP 
000000
000000
000000
000300
000300
001F80
003F00
000600
000600
01EC00
03FC00
071C00
0C1800
0C1800
0C1800
187000
18F000
0FB000
0E6000
000000
000000
000000
000000
000000
ENDCHAR
STARTCHAR U+0112
ENCODING 274
SWIDTH 500 0
DWIDTH 12 0
BBX 19 24 -3 -2
BITMAP 
000000
003F80
003F80
000000
000000
00FF80
01FF00
018000
018000
030000
030000
03F800
07F000
060000
060000
0C0000
0C0000
0FF800
1FF000
000000
000000
000000
000000
000000
ENDCHAR
STARTCHAR U+0113
ENCODING 275
SWIDTH 500 0
DWIDTH 12 0
BBX 19 24 -3 -2
BITMAP 
000000
000000
000000
000000
000000
007F00
00FE00
000000
000000
00F800
01FC00
038600
060C00
07FC00
07FC00
0C0000
0C1800
07F800
07E000
000000
000000
000000
000000
000000
ENDCHAR
STARTCHAR U+0114
ENCODING 276
SWIDTH 500 0
DWIDTH 12 0
BBX 19 24 -3 -2
BITMAP 
003180
003180
001F00
000000
000000
00FF80
01FF00
018000
018000
030000
030000
03F800
07F000
060000
060000
0C0000
0C0000
0FF800
1FF000
000000
000000
000000
000000
000000
ENDCHAR
STARTCHAR U+0115
ENCODING 277
SWIDTH 500 0
DWIDTH 12 0
BBX 19 24 -3 -2
BITMAP 
000000
000000
000000
003300
003300
001E00
000000
000000
000000
00F800
01FC00
038600
060C00
07FC00
07FC00
0C0000
0C1800
07F800
07E000
000000
000000
000000
000000
000000
ENDCHAR
STARTCHAR U+0116
ENCODING 278
SWIDTH 500 0
DWIDTH 12 0
BBX 19 24 -3 -2
BITMAP 
000000
000C00
000C00
000000
000000
00FF80
01FF00
018000
018000
030000
030000
03F800
07F000
060000
060000
0C0000
0C0000
0FF800
1FF000
000000
000000
000000
000000
000000
ENDCHAR
STARTCHAR U+0117
ENCODING 279
SWIDTH 500 0
DWIDTH 12 0
BBX 19 24 -3 -2
BITMAP 
000000
000000
000000
000000
000000
001800
003000
000000
000000
00F800
01FC00
038600
060C00
07FC00
07FC00
0C0000
0C1800
07F800
07E000
000000
000000
000000
000000
000000
ENDCHAR
STARTCHAR U+0118
ENCODING 280
SWIDTH 500 0
DWIDTH 12 0
BBX 19 24 -3 -2
BITMAP 
000000
000000
000000
000000
000000
00FF80
01FF00
018000
018000
030000
030000
03F800
07F000
060000
060000
0C0000
0C0000
0FF800
1FF000
006000
00E000
030000
03C000
01E000
ENDCHAR
STARTCHAR U+0119
ENCODING 281
SWIDTH 500 0
DWIDTH 12 0
BBX 19 24 -3 -2
BITMAP 
000000
000000
000000
000000
000000
000000
000000
000000
000000
00F800
01FC00
038600
060C00
07FC00
07FC00
0C0000
0C1800
07F800
07E000
018000
038000
0C0000
0F0000
078000
ENDCHAR
STARTCHAR U+011A
ENCODING 282
SWIDTH 500 0
DWIDTH 12 0
BBX 19 24 -3 -2
BITMAP 
003300
001E00
000C00
000000
000000
00FF80
01FF00
018000
018000
030000
030000
03F800
07F000
060000
060000
0C0000
0C0000
0FF800
1FF000
000000
000000
000000
000000
000000
ENDCHAR
STARTCHAR U+011B
ENCODING 283
SWIDTH 500 0
DWIDTH 12 0
BBX 19 24 -3 -2
BITMAP 
000000
000000
000000
000000
003300
001E00
001800
000000
000000
00F800
01FC00
038600
060C00
07FC00
07FC00
0C0000
0C1800
07F800
07E000
000000
000000
000000
000000
000000
ENDCHAR
STARTCHAR U+011C
ENCODING 284
SWIDTH 500 0
DWIDTH 12 0
BBX 19 24 -3 -2
BITMAP 
000E00
001F00
003180
000000
000000
003E00
00FE00
01C700
018300
030000
030000
030000
067C00
067C00
060C00
0C1800
0E3800
07F000
07C000
000000
000000
000000
000000
000000
ENDCHAR
STARTCHAR U+011D
ENCODING 285
SWIDTH 500 0
DWIDTH 12 0
BBX 19 24 -3 -2
BITMAP 
000000
000000
000000
000000
001C00
003C00
00C600
000000
000000
00E600
01F600
039E00
061C00
060C00
060C00
0C1800
0E3800
07F800
07B000
003000
003000
006000
0FC000
078000
ENDCHAR
STARTCHAR U+011E
ENCODING 286
SWIDTH 500 0
DWIDTH 12 0
BBX 19 24 -3 -2
BITMAP 
003180
003180
001F00
000000
000000
003E00
00FE00
01C700
018300
030000
030000
030000
063C00
063C00
060C00
0C1800
0E3800
07F000
07C000
000000
000000
000000
000000
000000
ENDCHAR
STARTCHAR U+011F
ENCODING 287
SWIDTH 500 0
DWIDTH 12 0
BBX 19 24 -3 -2
BITMAP 
000000
000000
000000
000000
006600
006600
007800
000000
000000
00E600
01F600
039E00
061C00
060C00
060C00
0C1800
0E3800
07F800
07B000
003000
003000
006000
0FC000
078000
ENDCHAR
STARTCHAR U+0120
ENCODING 288
SWIDTH 500 0
DWIDTH 12 0
BBX 19 24 -3 -2
BITMAP 
000000
000C00
000C00
000000
000000
003E00
00FE00
01C700
018300
030000
030000
030000
063C00
063C00
060C00
0C1800
0E3800
07F000
07C000
000000
000000
000000
000000
000000
ENDCHAR
STARTCHAR U+0121
ENCODING 289
SWIDTH 500 0
DWIDTH 12 0
BBX 19 24 -3 -2
BITMAP 
000000
000000
000000
000000
000000
001800
003000
000000
000000
00E600
01F600
039E00
061C00
060C00
060C00
0C1800
0E3800
07F800
07B000
003000
003000
006000
0FC000
078000
ENDCHAR
STARTCHAR U+0122
ENCODING 290
SWIDTH 500 0
DWIDTH 12 0
BBX 19 24 -3 -2
BITMAP 
000000
000000
000000
000000
000000
003E00
00FE00
01C700
018300
030000
030000
030000
063C00
063C00
060C00
0C1800
0E3800
07F000
07C000
030000
030000
018000
0F8000
0F0000
ENDCHAR
STARTCHAR U+0123
ENCODING 291
SWIDTH 500 0
DWIDTH 12 0
BBX 19 24 -3 -2
BITMAP 
000000
000000
000F00
003E00
003000
001C00
001800
000000
000000
00E600
01F600
039E00
061C00
060C00
060C00
0C1800
0E3800
07F800
07B000
003000
003000
006000
0FC000
078000
ENDCHAR
STARTCHAR U+0124
ENCODING 292
SWIDTH 500 0
DWIDTH 12 0
BBX 19 24 -3 -2
BITMAP 
000E00
001F00
003180
000000
000000
00C180
018300
018300
018300
030600
030600
03FE00
07FC00
060C00
060C00
0C1800
0C1800
0C1800
183000
000000
000000
000000
000000
000000
ENDCHAR
STARTCHAR U+0125
ENCODING 293
SWIDTH 500 0
DWIDTH 12 0
BBX 19 24 -3 -2
BITMAP 
001C00
003E00
006300
000000
000000
00C000
018000
018000
018000
033800
037C00
03CE00
070C00
060C00
060C00
0C1800
0C1800
0C1800
183000
000000
000000
000000
000000
000000
ENDCHAR
STARTCHAR U+0126
ENCODING 294
SWIDTH 500 0
DWIDTH 12 0
BBX 19 24 -3 -2
BITMAP 
000000
000000
000000
000000
000000
00C300
018600
03FF00
03FF00
030C00
030C00
03FC00
07F800
061800
061800
0C3000
0C3000
0C3000
186000
000000
000000
000000
000000
000000
ENDCHAR
STARTCHAR U+0127
ENCODING 295
SWIDTH 500 0
DWIDTH 12 0
BBX 19 24 -3 -2
BITMAP 
000000
000000
000000
000000
00C000
00C000
03F800
03F800
018000
033800
037C00
03CE00
070C00
060C00
060C00
0C1800
0C1800
0C1800
183000
000000
000000
000000
000000
000000
ENDCHAR
STARTCHAR U+0128
ENCODING 296
SWIDTH 500 0
DWIDTH 12 0
BBX 19 24 -3 -2
BITMAP 
003880
006D80
004700
000000
000000
007E00
00FC00
003000
003000
006000
006000
006000
00C000
00C000
00C000
018000
018000
07E000
0FC000
000000
000000
000000
000000
000000
ENDCHAR
STARTCHAR U+0129
ENCODING 297
SWIDTH 500 0
DWIDTH 12 0
BBX 19 24 -3 -2
BITMAP 
000000
000000
000000
000000
007100
00D300
011C00
000000
000000
006000
006000
006000
00C000
00C000
00C000
018000
018000
018000
030000
000000
000000
000000
000000
000000
ENDCHAR
STARTCHAR U+012A
ENCODING 298
SWIDTH 500 0
DWIDTH 12 0
BBX 19 24 -3 -2
BITMAP 
000000
007F80
007F80
000000
000000
007E00
00FC00
003000
003000
006000
006000
006000
00C000
00C000
00C000
018000
018000
07E000
0FC000
000000
000000
000000
000000
000000
ENDCHAR
STARTCHAR U+012B
ENCODING 299
SWIDTH 500 0
DWIDTH 12 0
BBX 19 24 -3 -2
BITMAP 
000000
000000
000000
000000
000000
007E00
00FC00
000000
000000
006000
006000
006000
00C000
00C000
00C000
018000
018000
018000
030000
000000
000000
000000
000000
000000
ENDCHAR
STARTCHAR U+012C
ENCODING 300
SWIDTH 500 0
DWIDTH 12 0
BBX 19 24 -3 -2
BITMAP 
003180
003180
001F00
000000
000000
007E00
00FC00
003000
003000
006000
006000
006000
00C000
00C000
00C000
018000
018000
07E000
0FC000
000000
000000
000000
000000
000000
ENDCHAR
STARTCHAR U+012D
ENCODING 301
SWIDTH 500 0
DWIDTH 12 0
BBX 19 24 -3 -2
BITMAP 
000000
000000
000000
000000
006600
006600
007800
000000
000000
006000
006000
006000
00C000
00C000
00C000
018000
018000
018000
030000
000000
000000
000000
000000
000000
ENDCHAR
STARTCHAR U+012E
ENCODING 302
SWIDTH 500 0
DWIDTH 12 0
BBX 19 24 -3 -2
BITMAP 
000000
000000
000000
000000
000000
007E00
00FC00
003000
003000
006000
006000
006000
00C000
00C000
00C000
018000
018000
07E000
0FC000
030000
070000
180000
1E0000
0F0000
ENDCHAR
STARTCHAR U+012F
ENCODING 303
SWIDTH 500 0
DWIDTH 12 0
BBX 19 24 -3 -2
BITMAP 
000000
000000
000000
000000
000000
001800
003000
000000
000000
006000
006000
006000
00C000
00C000
00C000
018000
018000
018000
030000
030000
070000
180000
1E0000
0F0000
ENDCHAR
STARTCHAR U+0130
ENCODING 304
SWIDTH 500 0
DWIDTH 12 0
BBX 19 24 -3 -2
BITMAP 
000000
000C00
000C00
000000
000000
007E00
00FC00
003000
003000
006000
006000
006000
00C000
00C000
00C000
018000
018000
07E000
0FC000
000000
000000
000000
000000
000000
ENDCHAR
STARTCHAR U+0131
ENCODING 305
SWIDTH 500 0
DWIDTH 12 0
BBX 19 24 -3 -2
BITMAP 
000000
000000
000000
000000
000000
000000
000000
000000
000000
006000
006000
006000
00C000
00C000
00C000
018000
018000
018000
030000
000000
000000
000000
000000
000000
ENDCHAR
STARTCHAR U+0132
ENCODING 306
SWIDTH 500 0
DWIDTH 12 0
BBX 19 24 -3 -2
BITMAP 
000000
000000
000000
000000
000000
01E180
03C300
018300
018300
030600
030600
030600
060C00
060C00
060C00
0D9800
0D9800
1EF000
3DE000
000000
000000
000000
000000
000000
ENDCHAR
STARTCHAR U+0133
ENCODING 307
SWIDTH 500 0
DWIDTH 12 0
BBX 19 24 -3 -2
BITMAP 
000000
000000
000000
000000
000000
00C600
018C00
000000
000000
031800
031800
031800
063000
063000
063000
0C6000
0C6000
0C6000
18C000
00C000
00C000
0F8000
0E0000
000000
ENDCHAR
STARTCHAR U+0134
ENCODING 308
SWIDTH 500 0
DWIDTH 12 0
BBX 19 24 -3 -2
BITMAP 
000700
000F80
0018C0
000000
000000
000180
000300
000300
000300
000600
000600
000600
000C00
000C00
000C00
0C1800
0C3800
07F000
07C000
000000
000000
000000
000000
000000
ENDCHAR
STARTCHAR U+0135
ENCODING 309
SWIDTH 500 0
DWIDTH 12 0
BBX 19 24 -3 -2
BITMAP 
000000
000000
000000
000000
003800
007800
018C00
000000
000000
006000
006000
006000
00C000
00C000
00C000
018000
018000
018000
030000
030000
030000
3E0000
380000
000000
ENDCHAR
STARTCHAR U+0136
ENCODING 310
SWIDTH 500 0
DWIDTH 12 0
BBX 19 24 -3 -2
BITMAP 
000000
000000
000000
000000
000000
00C180
018600
018C00
019800
036000
03C000
038000
078000
06C000
064000
0C6000
0C3000
0C1000
181000
0C0000
0C0000
060000
3E0000
3C0000
ENDCHAR
STARTCHAR U+0137
ENCODING 311
SWIDTH 500 0
DWIDTH 12 0
BBX 19 24 -3 -2
BITMAP 
000000
000000
000000
000000
000000
00C000
018000
018000
018600
031C00
033800
037000
07C000
078000
07C000
0DC000
0CE000
0C7000
186000
0C0000
0C0000
060000
3E0000
3C0000
ENDCHAR
STARTCHAR U+0138
ENCODING 312
SWIDTH 500 0
DWIDTH 12 0
BBX 19 24 -3 -2
BITMAP 
000000
000000
000000
000000
000000
000000
000000
000000
018300
030C00
031800
033000
07C000
078000
078000
0CC000
0C6000
0C2000
183000
000000
000000
000000
000000
000000
ENDCHAR
STARTCHAR U+0139
ENCODING 313
SWIDTH 500 0
DWIDTH 12 0
BBX 19 24 -3 -2
BITMAP 
001800
003800
006000
000000
000000
00C000
018000
018000
018000
030000
030000
030000
060000
060000
060000
0C0000
0C0000
0FF800
1FF000
000000
000000
000000
000000
000000
ENDCHAR
STARTCHAR U+013A
ENCODING 314
SWIDTH 500 0
DWIDTH 12 0
BBX 19 24 -3 -2
BITMAP 
000600
000E00
001800
000000
000000
001800
003000
003000
003000
006000
006000
006000
00C000
00C000
00C000
018000
018000
01E000
01C000
000000
000000
000000
000000
000000
ENDCHAR
STARTCHAR U+013B
ENCODING 315
SWIDTH 500 0
DWIDTH 12 0
BBX 19 24 -3 -2
BITMAP 
000000
000000
000000
000000
000000
00C000
018000
018000
018000
030000
030000
030000
060000
060000
060000
0C0000
0C0000
0FF800
1FF000
030000
030000
018000
0F8000
0F0000
ENDCHAR
STARTCHAR U+013C
ENCODING 316
SWIDTH 500 0
DWIDTH 12 0
BBX 19 24 -3 -2
BITMAP 
000000
000000
000000
000000
000000
001800
003000
003000
003000
006000
006000
006000
00C000
00C000
00C000
018000
018000
01E000
01C000
030000
030000
018000
0F8000
0F0000
ENDCHAR
STARTCHAR U+013D
ENCODING 317
SWIDTH 500 0
DWIDTH 12 0
BBX 19 24 -3 -2
BITMAP 
000000
000000
000000
000000
000E00
00CE00
018400
018C00
019800
030000
030000
030000
060000
060000
060000
0C0000
0C0000
0FF800
1FF000
000000
000000
000000
000000
000000
ENDCHAR
STARTCHAR U+013E
ENCODING 318
SWIDTH 500 0
DWIDTH 12 0
BBX 19 24 -3 -2
BITMAP 
000000
000000
000000
000000
000700
006700
00C200
00C600
00CC00
018000
018000
018000
030000
030000
030000
060000
060000
078000
070000
000000
000000
000000
000000
000000
ENDCHAR
STARTCHAR U+013F
ENCODING 319
SWIDTH 500 0
DWIDTH 12 0
BBX 19 24 -3 -2
BITMAP 
000000
000000
000000
000000
000000
00C000
018000
018000
018000
030000
030800
031C00
061000
060000
060000
0C0000
0C0000
0FF800
1FF000
000000
000000
000000
000000
000000
ENDCHAR
STARTCHAR U+0140
ENCODING 320
SWIDTH 500 0
DWIDTH 12 0
BBX 19 24 -3 -2
BITMAP 
000000
000000
000000
000000
000000
00C000
018000
018000
018000
030000
030800
031C00
061000
060000
060000
0C0000
0C0000
0F0000
0E0000
000000
000000
000000
000000
000000
ENDCHAR
STARTCHAR U+0141
ENCODING 321
SWIDTH 500 0
DWIDTH 12 0
BBX 19 24 -3 -2
BITMAP 
000000
000000
000000
000000
000000
00C000
018000
018C00
019800
036000
03C000
038000
0E0000
0E0000
060000
0C0000
0C0000
0FF800
1FF000
000000
000000
000000
000000
000000
ENDCHAR
STARTCHAR U+0142
ENCODING 322
SWIDTH 500 0
DWIDTH 12 0
BBX 19 24 -3 -2
BITMAP 
000000
000000
000000
000000
000000
001800
003000
003000
003000
006C00
007800
007000
01C000
03C000
06C000
018000
018000
01E000
01C000
000000
000000
000000
000000
000000
ENDCHAR
STARTCHAR U+0143
ENCODING 323
SWIDTH 500 0
DWIDTH 12 0
BBX 19 24 -3 -2
BITMAP 
000600
000E00
001800
000000
000000
00C180
01C300
01C300
01E300
03C600
036600
036600
066C00
066C00
063C00
0C7800
0C3800
0C3800
183000
000000
000000
000000
000000
000000
ENDCHAR
STARTCHAR U+0144
ENCODING 324
SWIDTH 500 0
DWIDTH 12 0
BBX 19 24 -3 -2
BITMAP 
000000
000000
000000
000000
000C00
001C00
006000
000000
000000
033800
037C00
03C600
070C00
060C00
060C00
0C1800
0C1800
0C1800
183000
000000
000000
000000
000000
000000
ENDCHAR
STARTCHAR U+0145
ENCODING 325
SWIDTH 500 0
DWIDTH 12 0
BBX 19 24 -3 -2
BITMAP 
000000
000000
000000
000000
000000
00C180
01C300
01C300
01E300
03C600
036600
036600
066C00
066C00
063C00
0C7800
0C3800
0C3800
183000
0C0000
0C0000
060000
3E0000
3C0000
ENDCHAR
STARTCHAR U+0146
ENCODING 326
SWIDTH 500 0
DWIDTH 12 0
BBX 19 24 -3 -2
BITMAP 
000000
000000
000000
000000
000000
000000
000000
000000
000000
033800
037C00
03C600
070C00
060C00
060C00
0C1800
0C1800
0C1800
183000
0C0000
0C0000
060000
3E0000
3C0000
ENDCHAR
STARTCHAR U+0147
ENCODING 327
SWIDTH 500 0
DWIDTH 12 0
BBX 19 24 -3 -2
BITMAP 
003300
001E00
000C00
000000
000000
00C180
01C300
01C300
01E300
03C600
036600
036600
066C00
066C00
063C00
0C7800
0C3800
0C3800
183000
000000
000000
000000
000000
000000
ENDCHAR
STARTCHAR U+0148
ENCODING 328
SWIDTH 500 0
DWIDTH 12 0
BBX 19 24 -3 -2
BITMAP 
000000
000000
000000
000000
006600
003C00
003000
000000
000000
033800
037C00
03C600
070C00
060C00
060C00
0C1800
0C1800
0C1800
183000
000000
000000
000000
000000
000000
ENDCHAR
STARTCHAR U+0149
ENCODING 329
SWIDTH 500 0
DWIDTH 12 0
BBX 19 24 -3 -2
BITMAP 
000000
000000
000000
01C000
01C000
004000
018000
030000
000000
033800
037C00
03C600
070C00
060C00
060C00
0C1800
0C1800
0C1800
183000
000000
000000
000000
000000
000000
ENDCHAR
STARTCHAR U+014A
ENCODING 330
SWIDTH 500 0
DWIDTH 12 0
BBX 19 24 -3 -2
BITMAP 
000000
000000
000000
000000
000000
00CE00
01BE00
01E700
01C300
030600
030600
030600
060C00
060C00
060C00
0C1800
0C3800
0DF000
19C000
000000
000000
000000
000000
000000
ENDCHAR
STARTCHAR U+014B
ENCODING 331
SWIDTH 500 0
DWIDTH 12 0
BBX 19 24 -3 -2
BITMAP 
000000
000000
000000
000000
000000
000000
000000
000000
000000
033800
037C00
03C600
070C00
060C00
060C00
0C1800
0C1800
0C1800
183000
003000
003000
006000
0FC000
078000
ENDCHAR
STARTCHAR U+014C
ENCODING 332
SWIDTH 500 0
DWIDTH 12 0
BBX 19 24 -3 -2
BITMAP 
000000
003F80
003F80
000000
000000
003E00
00FE00
01C700
018300
030600
030600
030600
060C00
060C00
060C00
0C1800
0E3800
07F000
07C000
000000
000000
000000
000000
000000
ENDCHAR
STARTCHAR U+014D
ENCODING 333
SWIDTH 500 0
DWIDTH 12 0
BBX 19 24 -3 -2
BITMAP 
000000
000000
000000
000000
000000
007F00
00FE00
000000
000000
00F800
01FC00
038E00
060C00
060C00
060C00
0C1800
0E3800
07F000
07C000
000000
000000
000000
000000
000000
ENDCHAR
STARTCHAR U+014E
ENCODING 334
SWIDTH 500 0
DWIDTH 12 0
BBX 19 24 -3 -2
BITMAP 
003180
003180
001F00
000000
000000
003E00
00FE00
01C700
018300
030600
030600
030600
060C00
060C00
060C00
0C1800
0E3800
07F000
07C000
000000
000000
000000
000000
000000
ENDCHAR
STARTCHAR U+014F
ENCODING 335
SWIDTH 500 0
DWIDTH 12 0
BBX 19 24 -3 -2
BITMAP 
000000
000000
000000
000000
006300
006300
007C00
000000
000000
00F800
01FC00
038E00
060C00
060C00
060C00
0C1800
0E3800
07F000
07C000
000000
000000
000000
000000
000000
ENDCHAR
STARTCHAR U+0150
ENCODING 336
SWIDTH 500 0
DWIDTH 12 0
BBX 19 24 -3 -2
BITMAP 
0018C0
0039C0
006300
000000
000000
003E00
00FE00
01C700
018300
030600
030600
030600
060C00
060C00
060C00
0C1800
0E3800
07F000
07C000
000000
000000
000000
000000
000000
ENDCHAR
STARTCHAR U+0151
ENCODING 337
SWIDTH 500 0
DWIDTH 12 0
BBX 19 24 -3 -2
BITMAP 
000000
000000
000000
000000
003180
007380
018C00
000000
000000
00F800
01FC00
038E00
060C00
060C00
060C00
0C1800
0E3800
07F000
07C000
000000
000000
000000
000000
000000
ENDCHAR
STARTCHAR U+0152
ENCODING 338
SWIDTH 500 0
DWIDTH 12 0
BBX 19 24 -3 -2
BITMAP 
000000
000000
000000
000000
000000
007780
01FF00
03B800
031800
063000
063000
063C00
0C7800
0C6000
0C6000
18C000
1DC000
0FF800
0EF000
000000
000000
000000
000000
000000
ENDCHAR
STARTCHAR U+0153
ENCODING 339
SWIDTH 500 0
DWIDTH 12 0
BBX 19 24 -3 -2
BITMAP 
000000
000000
000000
000000
000000
000000
000000
000000
000000
01DC00
03FE00
076600
0CCC00
0CFC00
0CFC00
198000
1D9800
0FF800
0EE000
000000
000000
000000
000000
000000
ENDCHAR
STARTCHAR U+0154
ENCODING 340
SWIDTH 500 0
DWIDTH 12 0
BBX 19 24 -3 -2
BITMAP 
000600
000E00
001800
000000
000000
00FE00
01FE00
018700
018300
030600
030E00
03FC00
07F000
063000
063000
0C3000
0C3000
0C1800
183000
000000
000000
000000
000000
000000
ENDCHAR
STARTCHAR U+0155
ENCODING 341
SWIDTH 500 0
DWIDTH 12 0
BBX 19 24 -3 -2
BITMAP 
000000
000000
000000
000000
000C00
001C00
006000
000000
000000
033800
037C00
03C600
070C00
060000
060000
0C0000
0C0000
0C0000
180000
000000
000000
000000
000000
000000
ENDCHAR
STARTCHAR U+0156
ENCODING 342
SWIDTH 500 0
DWIDTH 12 0
BBX 19 24 -3 -2
BITMAP 
000000
000000
000000
000000
000000
00FE00
01FE00
018700
018300
030600
030E00
03FC00
07F000
063000
063000
0C3000
0C3000
0C1800
183000
0C0000
0C0000
060000
3E0000
3C0000
ENDCHAR
STARTCHAR U+0157
ENCODING 343
SWIDTH 500 0
DWIDTH 12 0
BBX 19 24 -3 -2
BITMAP 
000000
000000
000000
000000
000000
000000
000000
000000
000000
033800
037C00
03C600
070C00
060000
060000
0C0000
0C0000
0C0000
180000
0C0000
0C0000
060000
3E0000
3C0000
ENDCHAR
STARTCHAR U+0158
ENCODING 344
SWIDTH 500 0
DWIDTH 12 0
BBX 19 24 -3 -2
BITMAP 
003300
001E00
000C00
000000
000000
00FE00
01FE00
018700
018300
030600
030E00
03FC00
07F000
063000
063000
0C3000
0C3000
0C1800
183000
000000
000000
000000
000000
000000
ENDCHAR
STARTCHAR U+0159
ENCODING 345
SWIDTH 500 0
DWIDTH 12 0
BBX 19 24 -3 -2
BITMAP 
000000
000000
000000
000000
006600
003C00
003000
000000
000000
033800
037C00
03C600
070C00
060000
060000
0C0000
0C0000
0C0000
180000
000000
000000
000000
000000
000000
ENDCHAR
STARTCHAR U+015A
ENCODING 346
SWIDTH 500 0
DWIDTH 12 0
BBX 19 24 -3 -2
BITMAP 
000600
000E00
001800
000000
000000
003E00
00FE00
018700
018300
030000
038000
01F800
01F800
001C00
000C00
0C1800
0C3800
0FF000
0FC000
000000
000000
000000
000000
000000
ENDCHAR
STARTCHAR U+015B
ENCODING 347
SWIDTH 500 0
DWIDTH 12 0
BBX 19 24 -3 -2
BITMAP 
000000
000000
000000
000000
000C00
001C00
006000
000000
000000
01FC00
03FE00
030200
060000
03F000
01F000
001800
0C1800
0FF800
0FE000
000000
000000
000000
000000
000000
ENDCHAR
STARTCHAR U+015C
ENCODING 348
SWIDTH 500 0
DWIDTH 12 0
BBX 19 24 -3 -2
BITMAP 
000E00
001F00
003180
000000
000000
003E00
00FE00
018700
018300
030000
038000
01F800
01F800
001C00
000C00
0C1800
0C3800
0FF000
0FC000
000000
000000
000000
000000
000000
ENDCHAR
STARTCHAR U+015D
ENCODING 349
SWIDTH 500 0
DWIDTH 12 0
BBX 19 24 -3 -2
BITMAP 
000000
000000
000000
000000
001C00
003C00
00C600
000000
000000
01FC00
03FE00
030200
060000
03F000
01F000
001800
0C1800
0FF800
0FE000
000000
000000
000000
000000
000000
ENDCHAR
STARTCHAR U+015E
ENCODING 350
SWIDTH 500 0
DWIDTH 12 0
BBX 19 24 -3 -2
BITMAP 
000000
000000
000000
000000
000000
003E00
00FE00
018700
018300
030000
038000
01F800
01F800
001C00
000C00
0C1800
0C3800
0FF000
0FC000
030000
030000
018000
0F8000
0F0000
ENDCHAR
STARTCHAR U+015F
ENCODING 351
SWIDTH 500 0
DWIDTH 12 0
BBX 19 24 -3 -2
BITMAP 
000000
000000
000000
000000
000000
000000
000000
000000
000000
01FC00
03FE00
030200
060000
03F000
01F000
001800
0C1800
0FF800
0FE000
030000
030000
018000
0F8000
0F0000
ENDCHAR
STARTCHAR U+0160
ENCODING 352
SWIDTH 500 0
DWIDTH 12 0
BBX 19 24 -3 -2
BITMAP 
003300
001E00
000C00
000000
000000
003E00
00FE00
018700
018300
030000
038000
01F800
01F800
001C00
000C00
0C1800
0C3800
0FF000
0FC000
000000
000000
000000
000000
000000
ENDCHAR
STARTCHAR U+0161
ENCODING 353
SWIDTH 500 0
DWIDTH 12 0
BBX 19 24 -3 -2
BITMAP 
000000
000000
000000
000000
006600
003C00
003000
000000
000000
01FC00
03FE00
030200
060000
03F000
01F000
001800
0C1800
0FF800
0FE000
000000
000000
000000
000000
000000
ENDCHAR
STARTCHAR U+0162
ENCODING 354
SWIDTH 500 0
DWIDTH 12 0
BBX 19 24 -3 -2
BITMAP 
000000
000000
000000
000000
000000
01FF80
03FF00
003000
003000
006000
006000
006000
00C000
00C000
00C000
018000
018000
018000
030000
030000
030000
018000
0F8000
0F0000
ENDCHAR
STARTCHAR U+0163
ENCODING 355
SWIDTH 500 0
DWIDTH 12 0
BBX 19 24 -3 -2
BITMAP 
000000
000000
000000
000000
000000
000000
003000
003000
003000
01F800
01F800
006000
00C000
00C000
00C000
018000
018000
01E000
03C000
030000
030000
018000
0F8000
0F0000
ENDCHAR
STARTCHAR U+0164
ENCODING 356
SWIDTH 500 0
DWIDTH 12 0
BBX 19 24 -3 -2
BITMAP 
003300
001E00
000C00
000000
000000
01FF80
03FF00
003000
003000
006000
006000
006000
00C000
00C000
00C000
018000
018000
018000
030000
000000
000000
000000
000000
000000
ENDCHAR
STARTCHAR U+0165
ENCODING 357
SWIDTH 500 0
DWIDTH 12 0
BBX 19 24 -3 -2
BITMAP 
000000
000000
000000
000000
000380
000380
00C100
00C300
00C600
07E000
07E000
018000
030000
030000
030000
060000
060000
078000
070000
000000
000000
000000
000000
000000
ENDCHAR
STARTCHAR U+0166
ENCODING 358
SWIDTH 500 0
DWIDTH 12 0
BBX 19 24 -3 -2
BITMAP 
000000
000000
000000
000000
000000
01FF80
03FF00
003000
003000
006000
006C00
007800
00E000
01C000
03C000
0D8000
018000
018000
030000
000000
000000
000000
000000
000000
ENDCHAR
STARTCHAR U+0167
ENCODING 359
SWIDTH 500 0
DWIDTH 12 0
BBX 19 24 -3 -2
BITMAP 
000000
000000
000000
000000
000000
000000
003000
003000
003000
01F800
01F800
006000
00D800
00F000
01E000
078000
0D8000
01E000
01C000
000000
000000
000000
000000
000000
ENDCHAR
STARTCHAR U+0168
ENCODING 360
SWIDTH 500 0
DWIDTH 12 0
BBX 19 24 -3 -2
BITMAP 
003840
006CC0
004780
000000
000000
00C180
018300
018300
018300
030600
030600
030600
060C00
060C00
060C00
0C1800
0E3800
07F000
07C000
000000
000000
000000
000000
000000
ENDCHAR
STARTCHAR U+0169
ENCODING 361
SWIDTH 500 0
DWIDTH 12 0
BBX 19 24 -3 -2
BITMAP 
000000
000000
000000
000000
003880
006980
008E00
000000
000000
030600
030600
030600
060C00
060C00
060C00
0C3800
0E7800
07D800
073000
000000
000000
000000
000000
000000
ENDCHAR
STARTCHAR U+016A
ENCODING 362
SWIDTH 500 0
DWIDTH 12 0
BBX 19 24 -3 -2
BITMAP 
000000
003F80
003F80
000000
000000
00C180
018300
018300
018300
030600
030600
030600
060C00
060C00
060C00
0C1800
0E3800
07F000
07C000
000000
000000
000000
000000
000000
ENDCHAR
STARTCHAR U+016B
ENCODING 363
SWIDTH 500 0
DWIDTH 12 0
BBX 19 24 -3 -2
BITMAP 
000000
000000
000000
000000
000000
007F00
00FE00
000000
000000
030600
030600
030600
060C00
060C00
060C00
0C3800
0E7800
07D800
073000
000000
000000
000000
000000
000000
ENDCHAR
STARTCHAR U+016C
ENCODING 364
SWIDTH 500 0
DWIDTH 12 0
BBX 19 24 -3 -2
BITMAP 
003180
003180
001F00
000000
000000
00C180
018300
018300
018300
030600
030600
030600
060C00
060C00
060C00
0C1800
0E3800
07F000
07C000
000000
000000
000000
000000
000000
ENDCHAR
STARTCHAR U+016D
ENCODING 365
SWIDTH 500 0
DWIDTH 12 0
BBX 19 24 -3 -2
BITMAP 
000000
000000
000000
000000
006300
006300
007C00
000000
000000
030600
030600
030600
060C00
060C00
060C00
0C3800
0E7800
07D800
073000
000000
000000
000000
000000
000000
ENDCHAR
STARTCHAR U+016E
ENCODING 366
SWIDTH 500 0
DWIDTH 12 0
BBX 19 24 -3 -2
BITMAP 
000E00
001B00
001B00
001C00
000000
00C180
018300
018300
018300
030600
030600
030600
060C00
060C00
060C00
0C1800
0E3800
07F000
07C000
000000
000000
000000
000000
000000
ENDCHAR
STARTCHAR U+016F
ENCODING 367
SWIDTH 500 0
DWIDTH 12 0
BBX 19 24 -3 -2
BITMAP 
000000
000000
000000
001C00
003600
003600
003800
000000
000000
030600
030600
030600
060C00
060C00
060C00
0C3800
0E7800
07D800
073000
000000
000000
000000
000000
000000
ENDCHAR
STARTCHAR U+0170
ENCODING 368
SWIDTH 500 0
DWIDTH 12 0
BBX 19 24 -3 -2
BITMAP 
0018C0
0039C0
006300
000000
000000
00C180
018300
018300
018300
030600
030600
030600
060C00
060C00
060C00
0C1800
0E3800
07F000
07C000
000000
000000
000000
000000
000000
ENDCHAR
STARTCHAR U+0171
ENCODING 369
SWIDTH 500 0
DWIDTH 12 0
BBX 19 24 -3 -2
BITMAP 
000000
000000
000000
000000
003180
007380
018C00
000000
000000
030600
030600
030600
060C00
060C00
060C00
0C3800
0E7800
07D800
073000
000000
000000
000000
000000
000000
ENDCHAR
STARTCHAR U+0172
ENCODING 370
SWIDTH 500 0
DWIDTH 12 0
BBX 19 24 -3 -2
BITMAP 
000000
000000
000000
000000
000000
00C180
018300
018300
018300
030600
030600
030600
060C00
060C00
060C00
0C1800
0E3800
07F000
07C000
030000
070000
180000
1F0000
0F0000
ENDCHAR
STARTCHAR U+0173
ENCODING 371
SWIDTH 500 0
DWIDTH 12 0
BBX 19 24 -3 -2
BITMAP 
000000
000000
000000
000000
000000
000000
000000
000000
000000
030600
030600
030600
060C00
060C00
060C00
0C3800
0E7800
07D800
073000
006000
00E000
030000
03E000
01E000
ENDCHAR
STARTCHAR U+0174
ENCODING 372
SWIDTH 500 0
DWIDTH 12 0
BBX 19 24 -3 -2
BITMAP 
000E00
001F00
003180
000000
000000
00C180
018300
018300
018300
030600
030600
032600
06EC00
06EC00
07BC00
0F7800
0E3800
0E3800
183000
000000
000000
000000
000000
000000
ENDCHAR
STARTCHAR U+0175
ENCODING 373
SWIDTH 500 0
DWIDTH 12 0
BBX 19 24 -3 -2
BITMAP 
000000
000000
000000
000000
001C00
003C00
00C600
000000
000000
030600
030600
030600
060C00
064C00
06EC00
0DD800
0F7800
0E3800
183000
000000
000000
000000
000000
000000
ENDCHAR
STARTCHAR U+0176
ENCODING 374
SWIDTH 500 0
DWIDTH 12 0
BBX 19 24 -3 -2
BITMAP 
000E00
001F00
003180
000000
000000
018180
030300
018600
018600
019800
01F800
00F000
00C000
00C000
00C000
018000
018000
018000
030000
000000
000000
000000
000000
000000
ENDCHAR
STARTCHAR U+0177
ENCODING 375
SWIDTH 500 0
DWIDTH 12 0
BBX 19 24 -3 -2
BITMAP 
000000
000000
000000
000000
001C00
003C00
00C600
000000
000000
030600
030600
030600
060C00
060C00
060C00
0C1800
0C3800
07F800
07B000
003000
003000
006000
1FC000
0F8000
ENDCHAR
STARTCHAR U+0178
ENCODING 376
SWIDTH 500 0
DWIDTH 12 0
BBX 19 24 -3 -2
BITMAP 
000000
003180
003180
000000
000000
018180
030300
018600
018600
019800
01F800
00F000
00C000
00C000
00C000
018000
018000
018000
030000
000000
000000
000000
000000
000000
ENDCHAR
STARTCHAR U+0179
ENCODING 377
SWIDTH 500 0
DWIDTH 12 0
BBX 19 24 -3 -2
BITMAP 
000600
000E00
001800
000000
000000
01FF80
03FF00
000300
000700
001C00
003800
007000
01C000
038000
070000
1C0000
180000
1FF800
3FF000
000000
000000
000000
000000
000000
ENDCHAR
STARTCHAR U+017A
ENCODING 378
SWIDTH 500 0
DWIDTH 12 0
BBX 19 24 -3 -2
BITMAP 
000000
000000
000000
000000
000C00
001C00
006000
000000
000000
03FE00
03FE00
000C00
003000
006000
00C000
030000
060000
0FF800
1FF000
000000
000000
000000
000000
000000
ENDCHAR
STARTCHAR U+017B
ENCODING 379
SWIDTH 500 0
DWIDTH 12 0
BBX 19 24 -3 -2
BITMAP 
000000
000C00
000C00
000000
000000
01FF80
03FF00
000300
000700
001C00
003800
007000
01C000
038000
070000
1C0000
180000
1FF800
3FF000
000000
000000
000000
000000
000000
ENDCHAR
STARTCHAR U+017C
ENCODING 380
SWIDTH 500 0
DWIDTH 12 0
BBX 19 24 -3 -2
BITMAP 
000000
000000
000000
000000
000000
001800
003000
000000
000000
03FE00
03FE00
000C00
003000
006000
00C000
030000
060000
0FF800
1FF000
000000
000000
000000
000000
000000
ENDCHAR
STARTCHAR U+017D
ENCODING 381
SWIDTH 500 0
DWIDTH 12 0
BBX 19 24 -3 -2
BITMAP 
003300
001E00
000C00
000000
000000
01FF80
03FF00
000300
000700
001C00
003800
007000
01C000
038000
070000
1C0000
180000
1FF800
3FF000
000000
000000
000000
000000
000000
ENDCHAR
STARTCHAR U+017E
ENCODING 382
SWIDTH 500 0
DWIDTH 12 0
BBX 19 24 -3 -2
BITMAP 
000000
000000
000000
000000
006600
003C00
003000
000000
000000
03FE00
03FE00
000C00
003000
006000
00C000
030000
060000
0FF800
1FF000
000000
000000
000000
000000
000000
ENDCHAR
STARTCHAR U+017F
ENCODING 383
SWIDTH 500 0
DWIDTH 12 0
BBX 19 24 -3 -2
BITMAP 
000000
000000
000000
000000
000000
000E00
003C00
003000
003000
006000
00E000
00E000
00C000
00C000
00C000
018000
018000
018000
030000
000000
000000
000000
000000
000000
ENDCHAR
STARTCHAR U+0180
ENCODING 384
SWIDTH 500 0
DWIDTH 12 0
BBX 19 24 -3 -2
BITMAP 
000000
000000
000000
000000
00C000
00C000
03F000
03F000
018000
033800
037C00
03CE00
070C00
060C00
060C00
0E1800
0F3800
0DF000
19C000
000000
000000
000000
000000
000000
ENDCHAR
STARTCHAR U+0181
ENCODING 385
SWIDTH 500 0
DWIDTH 12 0
BBX 19 24 -3 -2
BITMAP 
000000
000000
000000
000000
000000
00FC00
03FC00
036E00
036600
06CC00
00D800
00F800
01F800
019800
018C00
031800
033800
03F000
07C000
000000
000000
000000
000000
000000
ENDCHAR
STARTCHAR U+0182
ENCODING 386
SWIDTH 500 0
DWIDTH 12 0
BBX 19 24 -3 -2
BITMAP 
000000
000000
000000
000000
000000
00FE00
01FC00
018000
018000
030000
030000
03F800
07F800
061800
060C00
0C1800
0C3800
0FF000
1FC000
000000
000000
000000
000000
000000
ENDCHAR
STARTCHAR U+0183
ENCODING 387
SWIDTH 500 0
DWIDTH 12 0
BBX 19 24 -3 -2
BITMAP 
000000
000000
000000
000000
000000
00FF00
01FE00
018000
018000
033800
037C00
03CE00
070C00
060C00
060C00
0E1800
0F3800
0DF000
19C000
000000
000000
000000
000000
000000
ENDCHAR
STARTCHAR U+0184
ENCODING 388
SWIDTH 500 0
DWIDTH 12 0
BBX 19 24 -3 -2
BITMAP 
000000
000000
000000
000000
000000
01C000
038000
018000
018000
030000
030000
03F800
07F800
061800
060C00
0C1800
0C3800
0FF000
1FC000
000000
000000
000000
000000
000000
ENDCHAR
STARTCHAR U+0185
ENCODING 389
SWIDTH 500 0
DWIDTH 12 0
BBX 19 24 -3 -2
BITMAP 
000000
000000
000000
000000
000000
01E000
03C000
00C000
00C000
019800
01BC00
01EE00
038C00
030C00
030C00
071800
07B800
06F000
0CC000
000000
000000
000000
000000
000000
ENDCHAR
STARTCHAR U+0186
ENCODING 390
SWIDTH 500 0
DWIDTH 12 0
BBX 19 24 -3 -2
BITMAP 
000000
000000
000000
000000
000000
003E00
00FE00
01C700
018300
000600
000600
000600
000C00
000C00
000C00
0C1800
0E3800
07F000
07C000
000000
000000
000000
000000
000000
ENDCHAR
STARTCHAR U+0187
ENCODING 391
SWIDTH 500 0
DWIDTH 12 0
BBX 19 24 -3 -2
BITMAP 
000000
000000
000000
000180
000380
007E00
01F800
039C00
030C00
060000
060000
060000
0C0000
0C0000
0C0000
186000
1CE000
0FC000
0F0000
000000
000000
000000
000000
000000
ENDCHAR
STARTCHAR U+0188
ENCODING 392
SWIDTH 500 0
DWIDTH 12 0
BBX 19 24 -3 -2
BITMAP 
000000
000000
000000
000000
000000
000000
000000
000300
000700
01F800
03F000
071800
0C3000
0C0000
0C0000
180000
1C6000
0FE000
0F8000
000000
000000
000000
000000
000000
ENDCHAR
STARTCHAR U+0189
ENCODING 393
SWIDTH 500 0
DWIDTH 12 0
BBX 19 24 -3 -2
BITMAP 
000000
000000
000000
000000
000000
00FE00
01FE00
018700
018300
030600
030600
07E600
0FCC00
060C00
060C00
0C1800
0C3800
0FF000
1FC000
000000
000000
000000
000000
000000
ENDCHAR
STARTCHAR U+018A
ENCODING 394
SWIDTH 500 0
DWIDTH 12 0
BBX 19 24 -3 -2
BITMAP 
000000
000000
000000
000000
000000
00FE00
03FE00
036600
036300
06C600
00C600
00C600
018C00
018C00
018C00
031800
033800
03F000
07C000
000000
000000
000000
000000
000000
ENDCHAR
STARTCHAR U+018B
ENCODING 395
SWIDTH 500 0
DWIDTH 12 0
BBX 19 24 -3 -2
BITMAP 
000000
000000
000000
000000
000000
003F80
007F00
000300
000300
000600
000600
00FE00
03FC00
030C00
060C00
0C1800
0E1800
07F800
07F000
000000
000000
000000
000000
000000
ENDCHAR
STARTCHAR U+018C
ENCODING 396
SWIDTH 500 0
DWIDTH 12 0
BBX 19 24 -3 -2
BITMAP 
000000
000000
000000
000000
000000
003F80
007F00
000300
000300
00F600
01FE00
038E00
060C00
060C00
060C00
0C3800
0C7800
07D800
073000
000000
000000
000000
000000
000000
ENDCHAR
STARTCHAR U+018D
ENCODING 397
SWIDTH 500 0
DWIDTH 12 0
BBX 19 24 -3 -2
BITMAP 
000000
000000
000000
000000
000000
000000
007C00
00FE00
01C700
030600
030600
030600
071C00
03F800
01F000
006000
003000
03F000
07C000
000000
000000
000000
000000
000000
ENDCHAR
STARTCHAR U+018E
ENCODING 398
SWIDTH 500 0
DWIDTH 12 0
BBX 19 24 -3 -2
BITMAP 
000000
000000
000000
000000
000000
00FF80
01FF00
000300
000300
000600
000600
00FE00
01FC00
000C00
000C00
001800
001800
0FF800
1FF000
000000
000000
000000
000000
000000
ENDCHAR
STARTCHAR U+018F
ENCODING 399
SWIDTH 500 0
DWIDTH 12 0
BBX 19 24 -3 -2
BITMAP 
000000
000000
000000
000000
000000
007E00
01FE00
038700
030300
000600
000600
000600
0FFC00
0FFC00
0C0C00
181800
1C3800
0FF000
0FC000
000000
000000
000000
000000
000000
ENDCHAR
STARTCHAR U+0190
ENCODING 400
SWIDTH 500 0
DWIDTH 12 0
BBX 19 24 -3 -2
BITMAP 
000000
000000
000000
000000
000000
003E00
00FE00
018300
018300
030000
030000
01F000
03E000
060000
060000
0C1800
0C1800
07F000
07C000
000000
000000
000000
000000
000000
ENDCHAR
STARTCHAR U+0191
ENCODING 401
SWIDTH 500 0
DWIDTH 12 0
BBX 19 24 -3 -2
BITMAP 
000000
000000
000000
000000
000000
007F80
00FF00
00C000
00C000
018000
018000
01F800
03F000
030000
030000
060000
060000
060000
0C0000
0C0000
0C0000
780000
700000
000000
ENDCHAR
STARTCHAR U+0192
ENCODING 402
SWIDTH 500 0
DWIDTH 12 0
BBX 19 24 -3 -2
BITMAP 
000000
000000
000000
000000
000000
000E00
003C00
003000
003000
006000
01F800
01F800
00C000
00C000
00C000
018000
018000
018000
030000
030000
030000
1E0000
1C0000
000000
ENDCHAR
STARTCHAR U+0193
ENCODING 403
SWIDTH 500 0
DWIDTH 12 0
BBX 19 24 -3 -2
BITMAP 
000000
000000
000000
000180
000380
007E00
01F800
039C00
030C00
060000
060000
060000
0CF000
0CF000
0C3000
186000
1CE000
0FC000
0F0000
000000
000000
000000
000000
000000
ENDCHAR
STARTCHAR U+0194
ENCODING 404
SWIDTH 500 0
DWIDTH 12 0
BBX 19 24 -3 -2
BITMAP 
000000
000000
000000
000000
000000
00C180
018300
01C700
00C600
00D800
00D800
007000
00E000
01F000
031800
063000
063000
063000
07C000
038000
000000
000000
000000
000000
ENDCHAR
STARTCHAR U+0195
ENCODING 405
SWIDTH 500 0
DWIDTH 12 0
BBX 19 24 -3 -2
BITMAP 
000000
000000
000000
000000
018000
018000
030000
030000
030000
06C600
07E600
076600
0CCC00
0CCC00
0CCC00
199800
199800
18F000
30C000
000000
000000
000000
000000
000000
ENDCHAR
STARTCHAR U+0196
ENCODING 406
SWIDTH 500 0
DWIDTH 12 0
BBX 19 24 -3 -2
BITMAP 
000000
000000
000000
000000
000000
007800
00F000
003000
003000
006000
006000
006000
00C000
00C000
00C000
018000
018000
01E000
01C000
000000
000000
000000
000000
000000
ENDCHAR
STARTCHAR U+0197
ENCODING 407
SWIDTH 500 0
DWIDTH 12 0
BBX 19 24 -3 -2
BITMAP 
000000
000000
000000
000000
000000
007E00
00FC00
003000
003000
006000
006000
01F800
03F000
00C000
00C000
018000
018000
07E000
0FC000
000000
000000
000000
000000
000000
ENDCHAR
STARTCHAR U+0198
ENCODING 408
SWIDTH 500 0
DWIDTH 12 0
BBX 19 24 -3 -2
BITMAP 
000000
000000
000000
000000
000000
00C300
018F00
019900
01B000
034000
03C000
038000
078000
06C000
064000
0C6000
0C3000
0C1000
181000
000000
000000
000000
000000
000000
ENDCHAR
STARTCHAR U+0199
ENCODING 409
SWIDTH 500 0
DWIDTH 12 0
BBX 19 24 -3 -2
BITMAP 
000000
000000
000000
000000
007000
00F000
018000
018000
018600
031C00
033800
037000
07C000
078000
07C000
0DC000
0CE000
0C7000
186000
000000
000000
000000
000000
000000
ENDCHAR
STARTCHAR U+019A
ENCODING 410
SWIDTH 500 0
DWIDTH 12 0
BBX 19 24 -3 -2
BITMAP 
000000
000000
000000
000000
000000
001800
003000
003000
003000
006000
006000
01F800
03F000
00C000
00C000
018000
018000
01E000
01C000
000000
000000
000000
000000
000000
ENDCHAR
STARTCHAR U+019B
ENCODING 411
SWIDTH 500 0
DWIDTH 12 0
BBX 19 24 -3 -2
BITMAP 
000000
000000
000000
000000
000100
007300
00EC00
003800
007000
01B000
033000
027800
00F000
01B000
019800
063000
063000
0C1800
183000
000000
000000
000000
000000
000000
ENDCHAR
STARTCHAR U+019C
ENCODING 412
SWIDTH 500 0
DWIDTH 12 0
BBX 19 24 -3 -2
BITMAP 
000000
000000
000000
000000
000000
019980
033300
033300
033300
066600
066600
066600
0CCC00
0CCC00
0CCC00
199800
199800
1FF800
1DB000
000000
000000
000000
000000
000000
ENDCHAR
STARTCHAR U+019D
ENCODING 413
SWIDTH 500 0
DWIDTH 12 0
BBX 19 24 -3 -2
BITMAP 
000000
000000
000000
000000
000000
006180
00C300
00E300
00E300
01E600
01A600
01A600
032C00
033C00
032C00
063800
061800
061800
0C3000
0C0000
3C0000
700000
000000
000000
ENDCHAR
STARTCHAR U+019E
ENCODING 414
SWIDTH 500 0
DWIDTH 12 0
BBX 19 24 -3 -2
BITMAP 
000000
000000
000000
000000
000000
000000
000000
000000
000000
033800
037C00
03C600
070C00
060C00
060C00
0C1800
0C1800
0C1800
183000
003000
003000
006000
000000
000000
ENDCHAR
STARTCHAR U+019F
ENCODING 415
SWIDTH 500 0
DWIDTH 12 0
BBX 19 24 -3 -2
BITMAP 
000000
000000
000000
000000
000000
003E00
00FE00
01C700
018300
030600
036E00
03FE00
076C00
060C00
060C00
0C1800
0E3800
07F000
07C000
000000
000000
000000
000000
000000
ENDCHAR
STARTCHAR U+01A0
ENCODING 416
SWIDTH 500 0
DWIDTH 12 0
BBX 19 24 -3 -2
BITMAP 
000000
000000
0000C0
000180
000380
007F00
01FC00
038E00
030600
060C00
060C00
060C00
0C1800
0C1800
0C1800
183000
1C7000
0FE000
0F8000
000000
000000
000000
000000
000000
ENDCHAR
STARTCHAR U+01A1
ENCODING 417
SWIDTH 500 0
DWIDTH 12 0
BBX 19 24 -3 -2
BITMAP 
000000
000000
000000
000000
000000
000000
000300
000300
000700
01FC00
03F800
071C00
0C1800
0C1800
0C1800
183000
1C7000
0FE000
0F8000
000000
000000
000000
000000
000000
ENDCHAR
STARTCHAR U+01A2
ENCODING 418
SWIDTH 500 0
DWIDTH 12 0
BBX 19 24 -3 -2
BITMAP 
000000
000000
000000
000000
000000
007300
01FF00
03BB00
031B00
063600
063600
063600
0C6C00
0C6C00
0C6C00
18D800
1DD800
0F9800
0E3000
003000
003000
006000
000000
000000
ENDCHAR
STARTCHAR U+01A3
ENCODING 419
SWIDTH 500 0
DWIDTH 12 0
BBX 19 24 -3 -2
BITMAP 
000000
000000
000000
000000
000000
000000
000000
000000
000000
01DC00
03FE00
077600
0C6C00
0C6C00
0C6C00
18D800
1DD800
0F9800
0E3000
003000
003000
006000
000000
000000
ENDCHAR
STARTCHAR U+01A4
ENCODING 420
SWIDTH 500 0
DWIDTH 12 0
BBX 19 24 -3 -2
BITMAP 
000000
000000
000000
000000
000000
00FE00
03FE00
036700
036300
06C600
00CE00
00FC00
01F000
018000
018000
030000
030000
030000
060000
000000
000000
000000
000000
000000
ENDCHAR
STARTCHAR U+01A5
ENCODING 421
SWIDTH 500 0
DWIDTH 12 0
BBX 19 24 -3 -2
BITMAP 
000000
000000
000000
000000
000000
000000
000000
000000
000300
066E00
06F800
07B800
0E3000
0C3000
0C3000
1C6000
1EE000
1BC000
330000
300000
300000
600000
600000
000000
ENDCHAR
STARTCHAR U+01A6
ENCODING 422
SWIDTH 500 0
DWIDTH 12 0
BBX 19 24 -3 -2
BITMAP 
000000
000000
000000
000000
01F800
01F800
00C000
00C000
00FC00
01FC00
018C00
018C00
03F000
03E000
03E000
06E000
067000
063800
0C3000
000000
000000
000000
000000
000000
ENDCHAR
STARTCHAR U+01A7
ENCODING 423
SWIDTH 500 0
DWIDTH 12 0
BBX 19 24 -3 -2
BITMAP 
000000
000000
000000
000000
000000
003E00
00FE00
01C300
018300
000600
000E00
00FC00
03F000
070000
060000
0C1800
0E1800
07F800
07E000
000000
000000
000000
000000
000000
ENDCHAR
STARTCHAR U+01A8
ENCODING 424
SWIDTH 500 0
DWIDTH 12 0
BBX 19 24 -3 -2
BITMAP 
000000
000000
000000
000000
000000
000000
000000
000000
000000
01FC00
03FE00
020600
000C00
01F800
03F000
0C0000
0C1800
0FF800
0FE000
000000
000000
000000
000000
000000
ENDCHAR
STARTCHAR U+01A9
ENCODING 425
SWIDTH 500 0
DWIDTH 12 0
BBX 19 24 -3 -2
BITMAP 
000000
000000
000000
000000
000000
00FF80
01FF00
01C000
00E000
00E000
007000
003800
007000
00E000
01C000
070000
0E0000
0FF800
1FF000
000000
000000
000000
000000
000000
ENDCHAR
STARTCHAR U+01AA
ENCODING 426
SWIDTH 500 0
DWIDTH 12 0
BBX 19 24 -3 -2
BITMAP 
000000
000000
000000
000000
000000
00F000
03F000
033000
033000
07E000
03E000
006000
00C000
00C000
00C000
018000
018000
018000
030000
030000
038000
03C000
01C000
000000
ENDCHAR
STARTCHAR U+01AB
ENCODING 427
SWIDTH 500 0
DWIDTH 12 0
BBX 19 24 -3 -2
BITMAP 
000000
000000
000000
000000
000000
000000
003000
003000
003000
01F800
01F800
006000
00C000
00C000
00C000
018000
018000
01E000
01C000
00C000
00C000
078000
070000
000000
ENDCHAR
STARTCHAR U+01AC
ENCODING 428
SWIDTH 500 0
DWIDTH 12 0
BBX 19 24 -3 -2
BITMAP 
000000
000000
000000
000000
000000
00FF80
03FF00
033000
033000
006000
006000
006000
00C000
00C000
00C000
018000
018000
018000
030000
000000
000000
000000
000000
000000
ENDCHAR
STARTCHAR U+01AD
ENCODING 429
SWIDTH 500 0
DWIDTH 12 0
BBX 19 24 -3 -2
BITMAP 
000000
000000
000000
000000
000000
000E00
003C00
003000
003000
01F800
01F800
006000
00C000
00C000
00C000
018000
018000
01E000
01C000
000000
000000
000000
000000
000000
ENDCHAR
STARTCHAR U+01AE
ENCODING 430
SWIDTH 500 0
DWIDTH 12 0
BBX 19 24 -3 -2
BITMAP 
000000
000000
000000
000000
000000
01FF80
03FF00
003000
003000
006000
006000
006000
00C000
00C000
00C000
018000
018000
018000
030000
03C000
01C000
000000
000000
000000
ENDCHAR
STARTCHAR U+01AF
ENCODING 431
SWIDTH 500 0
DWIDTH 12 0
BBX 19 24 -3 -2
BITMAP 
000000
000000
000000
000180
000180
018F80
031E00
031800
031800
063000
063000
063000
0C6000
0C6000
0C6000
18C000
18C000
0F8000
0E0000
000000
000000
000000
000000
000000
ENDCHAR
STARTCHAR U+01B0
ENCODING 432
SWIDTH 500 0
DWIDTH 12 0
BBX 19 24 -3 -2
BITMAP 
000000
000000
000000
000000
000000
000000
000000
000300
000300
063E00
063C00
063000
0C6000
0C6000
0C6000
18C000
19C000
0FC000
0D8000
000000
000000
000000
000000
000000
ENDCHAR
STARTCHAR U+01B1
ENCODING 433
SWIDTH 500 0
DWIDTH 12 0
BBX 19 24 -3 -2
BITMAP 
000000
000000
000000
000000
000000
00F780
01EF00
006C00
006C00
018C00
030600
030600
060C00
060C00
060C00
0C1800
0E3800
07F000
07C000
000000
000000
000000
000000
000000
ENDCHAR
STARTCHAR U+01B2
ENCODING 434
SWIDTH 500 0
DWIDTH 12 0
BBX 19 24 -3 -2
BITMAP 
000000
000000
000000
000000
000000
00CE00
019E00
018600
018600
030C00
030C00
030C00
063800
063000
067000
0DC000
0F8000
0F0000
1C0000
000000
000000
000000
000000
000000
ENDCHAR
STARTCHAR U+01B3
ENCODING 435
SWIDTH 500 0
DWIDTH 12 0
BBX 19 24 -3 -2
BITMAP 
000000
000000
000000
000000
000000
00C080
03C300
00C300
006600
00CC00
007800
007800
006000
006000
006000
00C000
00C000
00C000
018000
000000
000000
000000
000000
000000
ENDCHAR
STARTCHAR U+01B4
ENCODING 436
SWIDTH 500 0
DWIDTH 12 0
BBX 19 24 -3 -2
BITMAP 
000000
000000
000000
000000
000000
000000
000000
000300
000700
063800
063000
063000
0C6000
0C6000
0C6000
18C000
19C000
0FC000
0D8000
018000
018000
030000
7E0000
3C0000
ENDCHAR
STARTCHAR U+01B5
ENCODING 437
SWIDTH 500 0
DWIDTH 12 0
BBX 19 24 -3 -2
BITMAP 
000000
000000
000000
000000
000000
01FF80
03FF00
000300
000700
001C00
003800
03FC00
07F800
038000
070000
1C0000
180000
1FF800
3FF000
000000
000000
000000
000000
000000
ENDCHAR
STARTCHAR U+01B6
ENCODING 438
SWIDTH 500 0
DWIDTH 12 0
BBX 19 24 -3 -2
BITMAP 
000000
000000
000000
000000
000000
000000
000000
000000
000000
03FE00
03FE00
000C00
003000
03F800
03F800
030000
060000
0FF800
1FF000
000000
000000
000000
000000
000000
ENDCHAR
STARTCHAR U+01B7
ENCODING 439
SWIDTH 500 0
DWIDTH 12 0
BBX 19 24 -3 -2
BITMAP 
000000
000000
000000
000000
000000
00FF00
01FE00
000C00
001800
006000
00F800
00FC00
001C00
000C00
000C00
001800
0C3800
0FF000
0FC000
000000
000000
000000
000000
000000
ENDCHAR
STARTCHAR U+01B8
ENCODING 440
SWIDTH 500 0
DWIDTH 12 0
BBX 19 24 -3 -2
BITMAP 
000000
000000
000000
000000
000000
007F80
00FF00
006000
002000
003000
00F800
01F800
070000
060000
060000
0C0000
0E1800
07F800
07E000
000000
000000
000000
000000
000000
ENDCHAR
STARTCHAR U+01B9
ENCODING 441
SWIDTH 500 0
DWIDTH 12 0
BBX 19 24 -3 -2
BITMAP 
000000
000000
000000
000000
000000
000000
000000
000000
000000
01F800
01F800
018000
018000
00C000
01E000
07C000
0E0000
0C0000
180000
180000
1C6000
1FC000
0F8000
000000
ENDCHAR
STARTCHAR U+01BA
ENCODING 442
SWIDTH 500 0
DWIDTH 12 0
BBX 19 24 -3 -2
BITMAP 
000000
000000
000000
000000
000000
000000
000000
000000
000000
01F800
01F800
001800
006000
00C000
01E000
03E000
007000
003000
0FE000
1FC000
380000
706000
3FE000
1FC000
ENDCHAR
STARTCHAR U+01BB
ENCODING 443
SWIDTH 500 0
DWIDTH 12 0
BBX 19 24 -3 -2
BITMAP 
000000
000000
000000
000000
000000
003E00
00FE00
018700
018300
000600
000C00
01FC00
03F800
00C000
018000
060000
0C0000
0FF800
1FF000
000000
000000
000000
000000
000000
ENDCHAR
STARTCHAR U+01BC
ENCODING 444
SWIDTH 500 0
DWIDTH 12 0
BBX 19 24 -3 -2
BITMAP 
000000
000000
000000
000000
000000
00FF00
01FE00
006000
006000
00C000
00F800
00FC00
001C00
000C00
000C00
0C1800
0C3800
07F000
07C000
000000
000000
000000
000000
000000
ENDCHAR
STARTCHAR U+01BD
ENCODING 445
SWIDTH 500 0
DWIDTH 12 0
BBX 19 24 -3 -2
BITMAP 
000000
000000
000000
000000
000000
000000
000000
000000
000000
03FC00
03FC00
00C000
01F000
01F800
001C00
0C1800
0C3800
07F000
07C000
000000
000000
000000
000000
000000
ENDCHAR
STARTCHAR U+01BE
ENCODING 446
SWIDTH 500 0
DWIDTH 12 0
BBX 19 24 -3 -2
BITMAP 
000000
000000
000000
000000
000000
001800
003000
01FE00
01FE00
006000
007000
003800
003000
003000
003000
006000
066000
07C000
070000
000000
000000
000000
000000
000000
ENDCHAR
STARTCHAR U+01BF
ENCODING 447
SWIDTH 500 0
DWIDTH 12 0
BBX 19 24 -3 -2
BITMAP 
000000
000000
000000
000000
000000
000000
000000
000000
000000
033800
037C00
03CE00
070C00
060C00
061C00
0C7000
0CE000
0DC000
1F0000
1E0000
180000
300000
300000
000000
ENDCHAR
STARTCHAR U+01C0
ENCODING 448
SWIDTH 500 0
DWIDTH 12 0
BBX 19 24 -3 -2
BITMAP 
000000
000000
000000
000000
000000
001800
003000
003000
003000
006000
006000
006000
00C000
00C000
00C000
018000
018000
018000
030000
000000
000000
000000
000000
000000
ENDCHAR
STARTCHAR U+01C1
ENCODING 449
SWIDTH 500 0
DWIDTH 12 0
BBX 19 24 -3 -2
BITMAP 
000000
000000
000000
000000
000000
006600
00CC00
00CC00
00CC00
019800
019800
019800
033000
033000
033000
066000
066000
066000
0CC000
000000
000000
000000
000000
000000
ENDCHAR
STARTCHAR U+01C2
ENCODING 450
SWIDTH 500 0
DWIDTH 12 0
BBX 19 24 -3 -2
BITMAP 
000000
000000
000000
000000
000000
001800
003000
003000
003000
03FC00
03FC00
006000
00C000
07F800
07F800
018000
018000
018000
030000
000000
000000
000000
000000
000000
ENDCHAR
STARTCHAR U+01C3
ENCODING 451
SWIDTH 500 0
DWIDTH 12 0
BBX 19 24 -3 -2
BITMAP 
000000
000000
000000
000000
000000
001800
003000
003000
003000
006000
006000
006000
00C000
00C000
00C000
000000
000000
018000
030000
000000
000000
000000
000000
000000
ENDCHAR
STARTCHAR U+01C4
ENCODING 452
SWIDTH 500 0
DWIDTH 12 0
BBX 19 24 -3 -2
BITMAP 
000CC0
000780
000300
000000
000000
01D780
03DF00
03E300
036300
06CE00
06CC00
06CC00
0D9800
0DB800
0DB000
1B6000
1F6000
1FF800
39F000
000000
000000
000000
000000
000000
ENDCHAR
STARTCHAR U+01C5
ENCODING 453
SWIDTH 500 0
DWIDTH 12 0
BBX 19 24 -3 -2
BITMAP 
000000
000000
000000
000000
000CC0
01C780
03C600
03E000
036000
06DE00
06DE00
06C600
0D8C00
0D9800
0D9800
1B6000
1F6000
1E7800
38F000
000000
000000
000000
000000
000000
ENDCHAR
STARTCHAR U+01C6
ENCODING 454
SWIDTH 500 0
DWIDTH 12 0
BBX 19 24 -3 -2
BITMAP 
000000
000000
000000
000000
000CC0
003780
006600
006000
006000
03DE00
07DE00
06C600
0D8C00
0D9800
0D9800
1B6000
1B6000
1F7800
1AF000
000000
000000
000000
000000
000000
ENDCHAR
STARTCHAR U+01C7
ENCODING 455
SWIDTH 500 0
DWIDTH 12 0
BBX 19 24 -3 -2
BITMAP 
000000
000000
000000
000000
000000
018180
030300
030300
030300
060600
060600
060600
0C0C00
0C0C00
0C0C00
199800
199800
1EF800
3DE000
000000
000000
000000
000000
000000
ENDCHAR
STARTCHAR U+01C8
ENCODING 456
SWIDTH 500 0
DWIDTH 12 0
BBX 19 24 -3 -2
BITMAP 
000000
000000
000000
000000
000000
018180
030300
030000
030000
060600
060600
060600
0C0C00
0C0C00
0C0C00
181800
181800
1F9800
3F3000
003000
003000
03E000
038000
000000
ENDCHAR
STARTCHAR U+01C9
ENCODING 457
SWIDTH 500 0
DWIDTH 12 0
BBX 19 24 -3 -2
BITMAP 
000000
000000
000000
000000
000000
00C300
018600
018000
018000
030C00
030C00
030C00
061800
061800
061800
0C3000
0C3000
0F3000
0E6000
006000
006000
07C000
070000
000000
ENDCHAR
STARTCHAR U+01CA
ENCODING 458
SWIDTH 500 0
DWIDTH 12 0
BBX 19 24 -3 -2
BITMAP 
000000
000000
000000
000000
000000
019980
033300
033300
03B300
076600
076600
07E600
0FCC00
0DCC00
0DCC00
1B9800
19D800
19F800
32E000
000000
000000
000000
000000
000000
ENDCHAR
STARTCHAR U+01CB
ENCODING 459
SWIDTH 500 0
DWIDTH 12 0
BBX 19 24 -3 -2
BITMAP 
000000
000000
000000
000000
000000
019980
033300
033000
03B000
076600
076600
07E600
0FCC00
0DCC00
0DCC00
1B9800
199800
199800
333000
003000
003000
03E000
038000
000000
ENDCHAR
STARTCHAR U+01CC
ENCODING 460
SWIDTH 500 0
DWIDTH 12 0
BBX 19 24 -3 -2
BITMAP 
000000
000000
000000
000000
000000
000180
000300
000000
000000
066600
06F600
07B600
0E6C00
0C6C00
0C6C00
18D800
18D800
18D800
31B000
003000
003000
03E000
038000
000000
ENDCHAR
STARTCHAR U+01CD
ENCODING 461
SWIDTH 500 0
DWIDTH 12 0
BBX 19 24 -3 -2
BITMAP 
001980
000F00
000600
000000
000000
003E00
00FE00
01C700
018300
030600
030600
03FE00
07FC00
060C00
060C00
0C1800
0C1800
0C1800
183000
000000
000000
000000
000000
000000
ENDCHAR
STARTCHAR U+01CE
ENCODING 462
SWIDTH 500 0
DWIDTH 12 0
BBX 19 24 -3 -2
BITMAP 
000000
000000
000000
003300
001E00
000C00
000000
000000
003C00
00FC00
018600
000600
00FC00
03FC00
060C00
0C3800
0C7800
0FD800
0F3000
000000
000000
000000
000000
000000
ENDCHAR
STARTCHAR U+01CF
ENCODING 463
SWIDTH 500 0
DWIDTH 12 0
BBX 19 24 -3 -2
BITMAP 
003300
001E00
000C00
000000
000000
007E00
00FC00
003000
003000
006000
006000
006000
00C000
00C000
00C000
018000
018000
07E000
0FC000
000000
000000
000000
000000
000000
ENDCHAR
STARTCHAR U+01D0
ENCODING 464
SWIDTH 500 0
DWIDTH 12 0
BBX 19 24 -3 -2
BITMAP 
000000
000000
000000
000000
006600
003C00
003000
000000
000000
006000
006000
006000
00C000
00C000
00C000
018000
018000
018000
030000
000000
000000
000000
000000
000000
ENDCHAR
STARTCHAR U+01D1
ENCODING 465
SWIDTH 500 0
DWIDTH 12 0
BBX 19 24 -3 -2
BITMAP 
003300
001E00
000C00
000000
000000
003E00
00FE00
01C700
018300
030600
030600
030600
060C00
060C00
060C00
0C1800
0E3800
07F000
07C000
000000
000000
000000
000000
000000
ENDCHAR
STARTCHAR U+01D2
ENCODING 466
SWIDTH 500 0
DWIDTH 12 0
BBX 19 24 -3 -2
BITMAP 
000000
000000
000000
000000
006600
003C00
003000
000000
000000
00F800
01FC00
038E00
060C00
060C00
060C00
0C1800
0E3800
07F000
07C000
000000
000000
000000
000000
000000
ENDCHAR
STARTCHAR U+01D3
ENCODING 467
SWIDTH 500 0
DWIDTH 12 0
BBX 19 24 -3 -2
BITMAP 
003300
001E00
000C00
000000
000000
00C180
018300
018300
018300
030600
030600
030600
060C00
060C00
060C00
0C1800
0E3800
07F000
07C000
000000
000000
000000
000000
000000
ENDCHAR
STARTCHAR U+01D4
ENCODING 468
SWIDTH 500 0
DWIDTH 12 0
BBX 19 24 -3 -2
BITMAP 
000000
000000
000000
000000
003300
001E00
001800
000000
000000
030600
030600
030600
060C00
060C00
060C00
0C3800
0E7800
07D800
073000
000000
000000
000000
000000
000000
ENDCHAR
STARTCHAR U+01D5
ENCODING 469
SWIDTH 500 0
DWIDTH 12 0
BBX 19 24 -3 -2
BITMAP 
003F80
003F80
000000
006300
006300
000000
018300
018300
018300
030600
030600
030600
060C00
060C00
060C00
0C1800
0E3800
07F000
07C000
000000
000000
000000
000000
000000
ENDCHAR
STARTCHAR U+01D6
ENCODING 470
SWIDTH 500 0
DWIDTH 12 0
BBX 19 24 -3 -2
BITMAP 
000000
000000
000000
007F00
007F00
000000
00C600
00C600
000000
030600
030600
030600
060C00
060C00
060C00
0C3800
0E7800
07D800
073000
000000
000000
000000
000000
000000
ENDCHAR
STARTCHAR U+01D7
ENCODING 471
SWIDTH 500 0
DWIDTH 12 0
BBX 19 24 -3 -2
BITMAP 
000300
000700
000C00
000000
006300
006300
000000
018300
018300
030600
030600
030600
060C00
060C00
060C00
0C1800
0E3800
07F000
07C000
000000
000000
000000
000000
000000
ENDCHAR
STARTCHAR U+01D8
ENCODING 472
SWIDTH 500 0
DWIDTH 12 0
BBX 19 24 -3 -2
BITMAP 
000000
000000
000300
000E00
001800
000000
00C600
00C600
000000
030600
030600
030600
060C00
060C00
060C00
0C3800
0E7800
07D800
073000
000000
000000
000000
000000
000000
ENDCHAR
STARTCHAR U+01D9
ENCODING 473
SWIDTH 500 0
DWIDTH 12 0
BBX 19 24 -3 -2
BITMAP 
003300
001E00
000C00
000000
006300
006300
000000
018300
018300
030600
030600
030600
060C00
060C00
060C00
0C1800
0E3800
07F000
07C000
000000
000000
000000
000000
000000
ENDCHAR
STARTCHAR U+01DA
ENCODING 474
SWIDTH 500 0
DWIDTH 12 0
BBX 19 24 -3 -2
BITMAP 
000000
000000
003300
003C00
001800
000000
00C600
00C600
000000
030600
030600
030600
060C00
060C00
060C00
0C3800
0E7800
07D800
073000
000000
000000
000000
000000
000000
ENDCHAR
STARTCHAR U+01DB
ENCODING 475
SWIDTH 500 0
DWIDTH 12 0
BBX 19 24 -3 -2
BITMAP 
001800
001C00
000600
000000
006300
006300
000000
018300
018300
030600
030600
030600
060C00
060C00
060C00
0C1800
0E3800
07F000
07C000
000000
000000
000000
000000
000000
ENDCHAR
STARTCHAR U+01DC
ENCODING 476
SWIDTH 500 0
DWIDTH 12 0
BBX 19 24 -3 -2
BITMAP 
000000
000000
001800
003800
000C00
000000
00C600
00C600
000000
030600
030600
030600
060C00
060C00
060C00
0C3800
0E7800
07D800
073000
000000
000000
000000
000000
000000
ENDCHAR
STARTCHAR U+01DD
ENCODING 477
SWIDTH 500 0
DWIDTH 12 0
BBX 19 24 -3 -2
BITMAP 
000000
000000
000000
000000
000000
000000
000000
000000
000000
01F800
03FC00
030600
000C00
07FC00
07FC00
0C1800
0C3800
07F000
07C000
000000
000000
000000
000000
000000
ENDCHAR
STARTCHAR U+01DE
ENCODING 478
SWIDTH 500 0
DWIDTH 12 0
BBX 19 24 -3 -2
BITMAP 
003F80
003F80
000000
006300
006300
000000
007C00
00FE00
01C700
030600
030600
030600
07FC00
07FC00
060C00
0C1800
0C1800
0C1800
183000
000000
000000
000000
000000
000000
ENDCHAR
STARTCHAR U+01DF
ENCODING 479
SWIDTH 500 0
DWIDTH 12 0
BBX 19 24 -3 -2
BITMAP 
000000
000000
003F80
007F00
000000
006300
00C600
000000
003C00
00FC00
018600
000600
00FC00
03FC00
060C00
0C3800
0C7800
0FD800
0F3000
000000
000000
000000
000000
000000
ENDCHAR
STARTCHAR U+01E0
ENCODING 480
SWIDTH 500 0
DWIDTH 12 0
BBX 19 24 -3 -2
BITMAP 
003F00
003F00
000000
001800
001800
000000
007C00
00FE00
01C700
030600
030600
030600
07FC00
07FC00
060C00
0C1800
0C1800
0C1800
183000
000000
000000
000000
000000
000000
ENDCHAR
STARTCHAR U+01E1
ENCODING 481
SWIDTH 500 0
DWIDTH 12 0
BBX 19 24 -3 -2
BITMAP 
000000
000000
001F80
003F00
000000
000C00
001800
000000
003C00
00FC00
018600
000600
00FC00
03FC00
060C00
0C3800
0C7800
0FD800
0F3000
000000
000000
000000
000000
000000
ENDCHAR
STARTCHAR U+01E2
ENCODING 482
SWIDTH 500 0
DWIDTH 12 0
BBX 19 24 -3 -2
BITMAP 
000000
003F80
003F80
000000
000000
007F80
00FF00
019800
019800
063000
063E00
07FE00
0FE000
0C6000
0C6000
18C000
18C000
18F800
31F000
000000
000000
000000
000000
000000
ENDCHAR
STARTCHAR U+01E3
ENCODING 483
SWIDTH 500 0
DWIDTH 12 0
BBX 19 24 -3 -2
BITMAP 
000000
000000
000000
000000
007F00
007F00
000000
000000
01CE00
03FE00
046600
006600
03FC00
07F800
0CC000
198000
199800
1FF800
1FE000
000000
000000
000000
000000
000000
ENDCHAR
STARTCHAR U+01E4
ENCODING 484
SWIDTH 500 0
DWIDTH 12 0
BBX 19 24 -3 -2
BITMAP 
000000
000000
000000
000000
000000
007C00
01FC00
038E00
030600
060000
060000
063C00
0C7800
0C1800
0CFC00
19F800
1C7000
0FE000
0F8000
000000
000000
000000
000000
000000
ENDCHAR
STARTCHAR U+01E5
ENCODING 485
SWIDTH 500 0
DWIDTH 12 0
BBX 19 24 -3 -2
BITMAP 
000000
000000
000000
000000
000000
000000
000000
000000
000000
01CC00
03EC00
073C00
0C3800
0C1800
0C1800
1C7000
0FF000
07B000
006000
03F000
03F000
00C000
1F8000
0F0000
ENDCHAR
STARTCHAR U+01E6
ENCODING 486
SWIDTH 500 0
DWIDTH 12 0
BBX 19 24 -3 -2
BITMAP 
003300
001E00
000C00
000000
000000
003E00
00FE00
01C700
018300
030000
030000
030000
063C00
063C00
060C00
0C1800
0E3800
07F000
07C000
000000
000000
000000
000000
000000
ENDCHAR
STARTCHAR U+01E7
ENCODING 487
SWIDTH 500 0
DWIDTH 12 0
BBX 19 24 -3 -2
BITMAP 
000000
000000
000000
000000
006600
003C00
003000
000000
000000
00E600
01F600
039E00
061C00
060C00
060C00
0C1800
0E3800
07F800
07B000
003000
003000
006000
0FC000
078000
ENDCHAR
STARTCHAR U+01E8
ENCODING 488
SWIDTH 500 0
DWIDTH 12 0
BBX 19 24 -3 -2
BITMAP 
003300
001E00
000C00
000000
000000
00C180
018600
018C00
019800
036000
03C000
038000
078000
06C000
064000
0C6000
0C3000
0C1000
181000
000000
000000
000000
000000
000000
ENDCHAR
STARTCHAR U+01E9
ENCODING 489
SWIDTH 500 0
DWIDTH 12 0
BBX 19 24 -3 -2
BITMAP 
000000
006600
003C00
003000
000000
000000
018000
018000
018600
031C00
033800
037000
07C000
078000
07C000
0DC000
0CE000
0C7000
186000
000000
000000
000000
000000
000000
ENDCHAR
STARTCHAR U+01EA
ENCODING 490
SWIDTH 500 0
DWIDTH 12 0
BBX 19 24 -3 -2
BITMAP 
000000
000000
000000
000000
000000
003E00
00FE00
01C700
018300
030600
030600
030600
060C00
060C00
060C00
0C1800
0E3800
07F000
07C000
018000
038000
0C0000
0F8000
070000
ENDCHAR
STARTCHAR U+01EB
ENCODING 491
SWIDTH 500 0
DWIDTH 12 0
BBX 19 24 -3 -2
BITMAP 
000000
000000
000000
000000
000000
000000
000000
000000
000000
00F800
01FC00
038E00
060C00
060C00
060C00
0C1800
0E3800
07F000
07C000
018000
038000
0C0000
0F8000
070000
ENDCHAR
STARTCHAR U+01EC
ENCODING 492
SWIDTH 500 0
DWIDTH 12 0
BBX 19 24 -3 -2
BITMAP 
000000
003F80
003F80
000000
000000
003E00
00FE00
01C700
018300
030600
030600
030600
060C00
060C00
060C00
0C1800
0E3800
07F000
07C000
018000
038000
0C0000
0F8000
070000
ENDCHAR
STARTCHAR U+01ED
ENCODING 493
SWIDTH 500 0
DWIDTH 12 0
BBX 19 24 -3 -2
BITMAP 
000000
000000
000000
000000
000000
007F00
00FE00
000000
000000
00F800
01FC00
038E00
060C00
060C00
060C00
0C1800
0E3800
07F000
07C000
018000
038000
0C0000
0F8000
070000
ENDCHAR
STARTCHAR U+01EE
ENCODING 494
SWIDTH 500 0
DWIDTH 12 0
BBX 19 24 -3 -2
BITMAP 
003300
001E00
000C00
000000
000000
00FF00
01FE00
000C00
001800
006000
00F800
00FC00
001C00
000C00
000C00
001800
0C3800
0FF000
0FC000
000000
000000
000000
000000
000000
ENDCHAR
STARTCHAR U+01EF
ENCODING 495
SWIDTH 500 0
DWIDTH 12 0
BBX 19 24 -3 -2
BITMAP 
000000
000000
000000
000000
006600
003C00
003000
000000
000000
01F800
01F800
001800
006000
00C000
01E000
03E000
007000
003000
006000
006000
18E000
3F8000
1F0000
000000
ENDCHAR
STARTCHAR U+01F0
ENCODING 496
SWIDTH 500 0
DWIDTH 12 0
BBX 19 24 -3 -2
BITMAP 
000000
000000
000000
000000
006600
003C00
003000
000000
000000
006000
006000
006000
00C000
00C000
00C000
018000
018000
018000
030000
030000
030000
3E0000
380000
000000
ENDCHAR
STARTCHAR U+01F1
ENCODING 497
SWIDTH 500 0
DWIDTH 12 0
BBX 19 24 -3 -2
BITMAP 
000000
000000
000000
000000
000000
01D780
03DF00
036300
036300
06CE00
06CC00
06CC00
0D9800
0DB800
0DB000
1B6000
1B6000
1FF800
39F000
000000
000000
000000
000000
000000
ENDCHAR
STARTCHAR U+01F2
ENCODING 498
SWIDTH 500 0
DWIDTH 12 0
BBX 19 24 -3 -2
BITMAP 
000000
000000
000000
000000
000000
01C000
03C000
03E000
036000
06DE00
06DE00
06C600
0D8C00
0D9800
0D9800
1B6000
1F6000
1E7800
38F000
000000
000000
000000
000000
000000
ENDCHAR
STARTCHAR U+01F3
ENCODING 499
SWIDTH 500 0
DWIDTH 12 0
BBX 19 24 -3 -2
BITMAP 
000000
000000
000000
000000
000000
003000
006000
006000
006000
03DE00
07DE00
06C600
0D8C00
0D9800
0D9800
1B6000
1B6000
1F7800
1AF000
000000
000000
000000
000000
000000
ENDCHAR
STARTCHAR U+01F4
ENCODING 500
SWIDTH 500 0
DWIDTH 12 0
BBX 19 24 -3 -2
BITMAP 
000300
000700
000C00
000000
000000
003E00
00FE00
01C700
018300
030000
030000
030000
063C00
063C00
060C00
0C1800
0E3800
07F000
07C000
000000
000000
000000
000000
000000
ENDCHAR
STARTCHAR U+01F5
ENCODING 501
SWIDTH 500 0
DWIDTH 12 0
BBX 19 24 -3 -2
BITMAP 
000000
000000
000000
000000
000600
000E00
003000
000000
000000
00E600
01F600
039E00
061C00
060C00
060C00
0C1800
0E3800
07F800
07B000
003000
003000
006000
0FC000
078000
ENDCHAR
STARTCHAR U+01FA
ENCODING 506
SWIDTH 500 0
DWIDTH 12 0
BBX 19 24 -3 -2
BITMAP 
000700
000C00
000000
001C00
003600
001C00
000000
007C00
00FE00
038E00
030600
030600
07FC00
07FC00
060C00
0C1800
0C1800
0C1800
183000
000000
000000
000000
000000
000000
ENDCHAR
STARTCHAR U+01FB
ENCODING 507
SWIDTH 500 0
DWIDTH 12 0
BBX 19 24 -3 -2
BITMAP 
000300
000700
000C00
000000
001C00
003600
003800
000000
003C00
00FC00
018600
000600
00FC00
03FC00
060C00
0C3800
0C7800
0FD800
0F3000
000000
000000
000000
000000
000000
ENDCHAR
STARTCHAR U+01FC
ENCODING 508
SWIDTH 500 0
DWIDTH 12 0
BBX 19 24 -3 -2
BITMAP 
000600
000E00
001800
000000
000000
007F80
00FF00
019800
019800
063000
063E00
07FE00
0FE000
0C6000
0C6000
18C000
18C000
18F800
31F000
000000
000000
000000
000000
000000
ENDCHAR
STARTCHAR U+01FD
ENCODING 509
SWIDTH 500 0
DWIDTH 12 0
BBX 19 24 -3 -2
BITMAP 
000000
000000
000000
000C00
001C00
003000
000000
000000
01CE00
03FE00
046600
006600
03FC00
07F800
0CC000
198000
199800
1FF800
1FE000
000000
000000
000000
000000
000000
ENDCHAR
STARTCHAR U+01FE
ENCODING 510
SWIDTH 500 0
DWIDTH 12 0
BBX 19 24 -3 -2
BITMAP 
000300
000700
000C00
000000
000000
003E80
00FF00
01C700
018700
030E00
031600
033600
064C00
068C00
078C00
0E1800
0E3800
0FF000
17C000
000000
000000
000000
000000
000000
ENDCHAR
STARTCHAR U+01FF
ENCODING 511
SWIDTH 500 0
DWIDTH 12 0
BBX 19 24 -3 -2
BITMAP 
000000
000000
000000
000000
000600
000E00
003000
000000
000000
00F600
01FE00
039C00
067C00
066C00
06EC00
0F9800
073800
0FF000
1BC000
000000
000000
000000
000000
000000
ENDCHAR
STARTCHAR U+0200
ENCODING 512
SWIDTH 500 0
DWIDTH 12 0
BBX 19 24 -3 -2
BITMAP 
006300
007380
0018C0
000000
000000
003E00
00FE00
01C700
018300
030600
030600
03FE00
07FC00
060C00
060C00
0C1800
0C1800
0C1800
183000
000000
000000
000000
000000
000000
ENDCHAR
STARTCHAR U+0201
ENCODING 513
SWIDTH 500 0
DWIDTH 12 0
BBX 19 24 -3 -2
BITMAP 
000000
000000
000000
00C600
00E700
003180
000000
000000
003C00
00FC00
018600
000600
00FC00
03FC00
060C00
0C3800
0C7800
0FD800
0F3000
000000
000000
000000
000000
000000
ENDCHAR
STARTCHAR U+0202
ENCODING 514
SWIDTH 500 0
DWIDTH 12 0
BBX 19 24 -3 -2
BITMAP 
001F00
003180
003180
000000
000000
003E00
00FE00
01C700
018300
030600
030600
03FE00
07FC00
060C00
060C00
0C1800
0C1800
0C1800
183000
000000
000000
000000
000000
000000
ENDCHAR
STARTCHAR U+0203
ENCODING 515
SWIDTH 500 0
DWIDTH 12 0
BBX 19 24 -3 -2
BITMAP 
000000
000000
000000
003E00
006300
006300
000000
000000
003C00
00FC00
018600
000600
00FC00
03FC00
060C00
0C3800
0C7800
0FD800
0F3000
000000
000000
000000
000000
000000
ENDCHAR
STARTCHAR U+0204
ENCODING 516
SWIDTH 500 0
DWIDTH 12 0
BBX 19 24 -3 -2
BITMAP 
006300
007380
0018C0
000000
000000
00FF80
01FF00
018000
018000
030000
030000
03F800
07F000
060000
060000
0C0000
0C0000
0FF800
1FF000
000000
000000
000000
000000
000000
ENDCHAR
STARTCHAR U+0205
ENCODING 517
SWIDTH 500 0
DWIDTH 12 0
BBX 19 24 -3 -2
BITMAP 
000000
000000
000000
000000
00C600
00C700
006300
000000
000000
00F800
01FC00
038600
060C00
07FC00
07FC00
0C0000
0C1800
07F800
07E000
000000
000000
000000
000000
000000
ENDCHAR
STARTCHAR U+0206
ENCODING 518
SWIDTH 500 0
DWIDTH 12 0
BBX 19 24 -3 -2
BITMAP 
001F00
003180
003180
000000
000000
00FF80
01FF00
018000
018000
030000
030000
03F800
07F000
060000
060000
0C0000
0C0000
0FF800
1FF000
000000
000000
000000
000000
000000
ENDCHAR
STARTCHAR U+0207
ENCODING 519
SWIDTH 500 0
DWIDTH 12 0
BBX 19 24 -3 -2
BITMAP 
000000
000000
000000
000000
003E00
006300
00C600
000000
000000
00F800
01FC00
038600
060C00
07FC00
07FC00
0C0000
0C1800
07F800
07E000
000000
000000
000000
000000
000000
ENDCHAR
STARTCHAR U+0208
ENCODING 520
SWIDTH 500 0
DWIDTH 12 0
BBX 19 24 -3 -2
BITMAP 
00C600
00E700
003180
000000
000000
007E00
00FC00
003000
003000
006000
006000
006000
00C000
00C000
00C000
018000
018000
07E000
0FC000
000000
000000
000000
000000
000000
ENDCHAR
STARTCHAR U+0209
ENCODING 521
SWIDTH 500 0
DWIDTH 12 0
BBX 19 24 -3 -2
BITMAP 
000000
000000
000000
000000
018C00
018E00
00C600
000000
000000
006000
006000
006000
00C000
00C000
00C000
018000
018000
018000
030000
000000
000000
000000
000000
000000
ENDCHAR
STARTCHAR U+020A
ENCODING 522
SWIDTH 500 0
DWIDTH 12 0
BBX 19 24 -3 -2
BITMAP 
001E00
003300
003300
000000
000000
007E00
00FC00
003000
003000
006000
006000
006000
00C000
00C000
00C000
018000
018000
07E000
0FC000
000000
000000
000000
000000
000000
ENDCHAR
STARTCHAR U+020B
ENCODING 523
SWIDTH 500 0
DWIDTH 12 0
BBX 19 24 -3 -2
BITMAP 
000000
000000
000000
000000
003C00
006600
00CC00
000000
000000
006000
006000
006000
00C000
00C000
00C000
018000
018000
018000
030000
000000
000000
000000
000000
000000
ENDCHAR
STARTCHAR U+020C
ENCODING 524
SWIDTH 500 0
DWIDTH 12 0
BBX 19 24 -3 -2
BITMAP 
006300
007380
0018C0
000000
000000
003E00
00FE00
01C700
018300
030600
030600
030600
060C00
060C00
060C00
0C1800
0E3800
07F000
07C000
000000
000000
000000
000000
000000
ENDCHAR
STARTCHAR U+020D
ENCODING 525
SWIDTH 500 0
DWIDTH 12 0
BBX 19 24 -3 -2
BITMAP 
000000
000000
000000
000000
00C600
00C700
006300
000000
000000
00F800
01FC00
038E00
060C00
060C00
060C00
0C1800
0E3800
07F000
07C000
000000
000000
000000
000000
000000
ENDCHAR
STARTCHAR U+020E
ENCODING 526
SWIDTH 500 0
DWIDTH 12 0
BBX 19 24 -3 -2
BITMAP 
001F00
003180
003180
000000
000000
003E00
00FE00
01C700
018300
030600
030600
030600
060C00
060C00
060C00
0C1800
0E3800
07F000
07C000
000000
000000
000000
000000
000000
ENDCHAR
STARTCHAR U+020F
ENCODING 527
SWIDTH 500 0
DWIDTH 12 0
BBX 19 24 -3 -2
BITMAP 
000000
000000
000000
000000
003E00
006300
00C600
000000
000000
00F800
01FC00
038E00
060C00
060C00
060C00
0C1800
0E3800
07F000
07C000
000000
000000
000000
000000
000000
ENDCHAR
STARTCHAR U+0210
ENCODING 528
SWIDTH 500 0
DWIDTH 12 0
BBX 19 24 -3 -2
BITMAP 
006300
007380
0018C0
000000
000000
00FE00
01FE00
018700
018300
030600
030E00
03FC00
07F000
063000
063000
0C3000
0C3000
0C1800
183000
000000
000000
000000
000000
000000
ENDCHAR
STARTCHAR U+0211
ENCODING 529
SWIDTH 500 0
DWIDTH 12 0
BBX 19 24 -3 -2
BITMAP 
000000
000000
000000
000000
00C600
00C700
006300
000000
000000
033800
037C00
03C600
070C00
060000
060000
0C0000
0C0000
0C0000
180000
000000
000000
000000
000000
000000
ENDCHAR
STARTCHAR U+0212
ENCODING 530
SWIDTH 500 0
DWIDTH 12 0
BBX 19 24 -3 -2
BITMAP 
001F00
003180
003180
000000
000000
00FE00
01FE00
018700
018300
030600
030E00
03FC00
07F000
063000
063000
0C3000
0C3000
0C1800
183000
000000
000000
000000
000000
000000
ENDCHAR
STARTCHAR U+0213
ENCODING 531
SWIDTH 500 0
DWIDTH 12 0
BBX 19 24 -3 -2
BITMAP 
000000
000000
000000
000000
003E00
006300
00C600
000000
000000
033800
037C00
03C600
070C00
060000
060000
0C0000
0C0000
0C0000
180000
000000
000000
000000
000000
000000
ENDCHAR
STARTCHAR U+0214
ENCODING 532
SWIDTH 500 0
DWIDTH 12 0
BBX 19 24 -3 -2
BITMAP 
006300
007380
0018C0
000000
000000
00C180
018300
018300
018300
030600
030600
030600
060C00
060C00
060C00
0C1800
0E3800
07F000
07C000
000000
000000
000000
000000
000000
ENDCHAR
STARTCHAR U+0215
ENCODING 533
SWIDTH 500 0
DWIDTH 12 0
BBX 19 24 -3 -2
BITMAP 
000000
000000
000000
000000
00C600
00C700
006300
000000
000000
030600
030600
030600
060C00
060C00
060C00
0C3800
0E7800
07D800
073000
000000
000000
000000
000000
000000
ENDCHAR
STARTCHAR U+0216
ENCODING 534
SWIDTH 500 0
DWIDTH 12 0
BBX 19 24 -3 -2
BITMAP 
001F00
003180
003180
000000
000000
00C180
018300
018300
018300
030600
030600
030600
060C00
060C00
060C00
0C1800
0E3800
07F000
07C000
000000
000000
000000
000000
000000
ENDCHAR
STARTCHAR U+0217
ENCODING 535
SWIDTH 500 0
DWIDTH 12 0
BBX 19 24 -3 -2
BITMAP 
000000
000000
000000
000000
003E00
006300
00C600
000000
000000
030600
030600
030600
060C00
060C00
060C00
0C3800
0E7800
07D800
073000
000000
000000
000000
000000
000000
ENDCHAR
STARTCHAR U+0250
ENCODING 592
SWIDTH 500 0
DWIDTH 12 0
BBX 19 24 -3 -2
BITMAP 
000000
000000
000000
000000
000000
000000
000000
000000
000000
037C00
03FE00
038600
060C00
07F800
07F000
0C0000
0C1800
07F000
07C000
000000
000000
000000
000000
000000
ENDCHAR
STARTCHAR U+0251
ENCODING 593
SWIDTH 500 0
DWIDTH 12 0
BBX 19 24 -3 -2
BITMAP 
000000
000000
000000
000000
000000
000000
000000
000000
000000
00F600
01FE00
030E00
060C00
060C00
060C00
0C3800
0C7800
07D800
073000
000000
000000
000000
000000
000000
ENDCHAR
STARTCHAR U+0252
ENCODING 594
SWIDTH 500 0
DWIDTH 12 0
BBX 19 24 -3 -2
BITMAP 
000000
000000
000000
000000
000000
000000
000000
000000
000000
033800
037C00
03C600
070C00
060C00
060C00
0C1800
0E1800
0FF000
1BC000
000000
000000
000000
000000
000000
ENDCHAR
STARTCHAR U+0253
ENCODING 595
SWIDTH 500 0
DWIDTH 12 0
BBX 19 24 -3 -2
BITMAP 
000000
000000
000000
000000
007000
00F000
018000
018000
018000
033800
037C00
03CE00
070C00
060C00
060C00
0E1800
0F3800
0DF000
19C000
000000
000000
000000
000000
000000
ENDCHAR
STARTCHAR U+0254
ENCODING 596
SWIDTH 500 0
DWIDTH 12 0
BBX 19 24 -3 -2
BITMAP 
000000
000000
000000
000000
000000
000000
000000
000000
000000
01F800
03FC00
030E00
000C00
000C00
000C00
0C1800
0C3800
07F000
0FC000
000000
000000
000000
000000
000000
ENDCHAR
STARTCHAR U+0255
ENCODING 597
SWIDTH 500 0
DWIDTH 12 0
BBX 19 24 -3 -2
BITMAP 
000000
000000
000000
000000
000000
000000
000000
000000
000000
00FC00
01FC00
038600
060C00
060000
063800
0CF800
0F9800
07F800
07E000
0C0000
000000
000000
000000
000000
ENDCHAR
STARTCHAR U+0256
ENCODING 598
SWIDTH 500 0
DWIDTH 12 0
BBX 19 24 -3 -2
BITMAP 
000000
000000
000000
000000
000000
000600
000C00
000C00
000C00
01D800
03F800
073800
0C3000
0C3000
0C3000
18E000
19E000
0F6000
0CF000
007000
000000
000000
000000
000000
ENDCHAR
STARTCHAR U+0257
ENCODING 599
SWIDTH 500 0
DWIDTH 12 0
BBX 19 24 -3 -2
BITMAP 
000000
000000
000000
000000
000380
000780
000C00
000C00
000C00
01D800
03F800
073800
0C3000
0C3000
0C3000
18E000
19E000
0F6000
0CC000
000000
000000
000000
000000
000000
ENDCHAR
STARTCHAR U+0258
ENCODING 600
SWIDTH 500 0
DWIDTH 12 0
BBX 19 24 -3 -2
BITMAP 
000000
000000
000000
000000
000000
000000
000000
000000
000000
00F800
01FC00
030E00
060C00
07FC00
07FC00
001800
0C1800
0FF000
0FC000
000000
000000
000000
000000
000000
ENDCHAR
STARTCHAR U+0259
ENCODING 601
SWIDTH 500 0
DWIDTH 12 0
BBX 19 24 -3 -2
BITMAP 
000000
000000
000000
000000
000000
000000
000000
000000
000000
01F800
03FC00
030600
000C00
07FC00
07FC00
0C1800
0C3800
07F000
07C000
000000
000000
000000
000000
000000
ENDCHAR
STARTCHAR U+025A
ENCODING 602
SWIDTH 500 0
DWIDTH 12 0
BBX 19 24 -3 -2
BITMAP 
000000
000000
000000
000000
000000
000000
000000
000000
000300
03EE00
07F800
062800
003000
0FF000
0FF000
186000
18E000
0FC000
0F0000
000000
000000
000000
000000
000000
ENDCHAR
STARTCHAR U+025B
ENCODING 603
SWIDTH 500 0
DWIDTH 12 0
BBX 19 24 -3 -2
BITMAP 
000000
000000
000000
000000
000000
000000
000000
000000
000000
00F800
01FC00
030600
060000
03E000
03E000
0C0000
0C1800
07F000
07C000
000000
000000
000000
000000
000000
ENDCHAR
STARTCHAR U+025C
ENCODING 604
SWIDTH 500 0
DWIDTH 12 0
BBX 19 24 -3 -2
BITMAP 
000000
000000
000000
000000
000000
000000
000000
000000
000000
00F800
01FC00
030600
000C00
00F800
00F800
001800
0C1800
07F000
07C000
000000
000000
000000
000000
000000
ENDCHAR
STARTCHAR U+025D
ENCODING 605
SWIDTH 500 0
DWIDTH 12 0
BBX 19 24 -3 -2
BITMAP 
000000
000000
000000
000000
000000
000000
000000
000000
000300
01EE00
03F800
062800
003000
01E000
01E000
006000
186000
0FC000
0F0000
000000
000000
000000
000000
000000
ENDCHAR
STARTCHAR U+025E
ENCODING 606
SWIDTH 500 0
DWIDTH 12 0
BBX 19 24 -3 -2
BITMAP 
000000
000000
000000
000000
000000
000000
000000
000000
000000
00F800
01FC00
030600
060C00
06F800
06F800
0C1800
0C1800
07F000
07C000
000000
000000
000000
000000
000000
ENDCHAR
STARTCHAR U+025F
ENCODING 607
SWIDTH 500 0
DWIDTH 12 0
BBX 19 24 -3 -2
BITMAP 
000000
000000
000000
000000
000000
000000
000000
000000
000000
006000
006000
006000
00C000
00C000
00C000
018000
0FF000
0FF000
030000
030000
030000
3E0000
380000
000000
ENDCHAR
STARTCHAR U+0260
ENCODING 608
SWIDTH 500 0
DWIDTH 12 0
BBX 19 24 -3 -2
BITMAP 
000000
000000
000000
000000
000000
000000
000000
000300
000700
019800
03D800
077800
0C7000
0C3000
0C3000
186000
1CE000
0FE000
0EC000
00C000
00C000
018000
7F0000
3E0000
ENDCHAR
STARTCHAR U+0261
ENCODING 609
SWIDTH 500 0
DWIDTH 12 0
BBX 19 24 -3 -2
BITMAP 
000000
000000
000000
000000
000000
000000
000000
000000
000000
00E600
01F600
039E00
061C00
060C00
060C00
0C1800
0E3800
07F800
07B000
003000
003000
006000
1FC000
0F8000
ENDCHAR
STARTCHAR U+0262
ENCODING 610
SWIDTH 500 0
DWIDTH 12 0
BBX 19 24 -3 -2
BITMAP 
000000
000000
000000
000000
000000
000000
000000
000000
000000
00F800
01FC00
038E00
060000
060000
063C00
0C7800
0E1800
07F800
07E000
000000
000000
000000
000000
000000
ENDCHAR
STARTCHAR U+0263
ENCODING 611
SWIDTH 500 0
DWIDTH 12 0
BBX 19 24 -3 -2
BITMAP 
000000
000000
000000
000000
000000
000000
000000
000000
000000
030600
038E00
009800
00E000
01F000
031800
063000
063000
063000
07C000
038000
000000
000000
000000
000000
ENDCHAR
STARTCHAR U+0264
ENCODING 612
SWIDTH 500 0
DWIDTH 12 0
BBX 19 24 -3 -2
BITMAP 
000000
000000
000000
000000
000000
000000
000000
000000
000000
030600
038E00
018C00
01B000
01B000
00E000
03E000
036000
03E000
038000
000000
000000
000000
000000
000000
ENDCHAR
STARTCHAR U+0265
ENCODING 613
SWIDTH 500 0
DWIDTH 12 0
BBX 19 24 -3 -2
BITMAP 
000000
000000
000000
000000
000000
000000
000000
000000
000000
030600
030600
030600
060C00
060C00
060C00
0C3800
0E7800
07D800
073000
003000
003000
006000
006000
006000
ENDCHAR
STARTCHAR U+0266
ENCODING 614
SWIDTH 500 0
DWIDTH 12 0
BBX 19 24 -3 -2
BITMAP 
000000
000000
000000
000000
003800
007800
018000
018000
018000
033800
037C00
03CE00
070C00
060C00
060C00
0C1800
0C1800
0C1800
183000
000000
000000
000000
000000
000000
ENDCHAR
STARTCHAR U+0267
ENCODING 615
SWIDTH 500 0
DWIDTH 12 0
BBX 19 24 -3 -2
BITMAP 
000000
000000
000000
000000
003800
007800
018000
018000
018000
033800
037C00
03CE00
070C00
060C00
060C00
0C1800
0C1800
0C1800
183000
003000
003000
006000
07C000
038000
ENDCHAR
STARTCHAR U+0268
ENCODING 616
SWIDTH 500 0
DWIDTH 12 0
BBX 19 24 -3 -2
BITMAP 
000000
000000
000000
000000
000000
001800
003000
000000
000000
006000
006000
006000
00C000
03F000
03F000
018000
018000
018000
030000
000000
000000
000000
000000
000000
ENDCHAR
STARTCHAR U+0269
ENCODING 617
SWIDTH 500 0
DWIDTH 12 0
BBX 19 24 -3 -2
BITMAP 
000000
000000
000000
000000
000000
000000
000000
000000
000000
006000
006000
006000
00C000
00C000
00C000
018000
018000
01E000
01C000
000000
000000
000000
000000
000000
ENDCHAR
STARTCHAR U+026A
ENCODING 618
SWIDTH 500 0
DWIDTH 12 0
BBX 19 24 -3 -2
BITMAP 
000000
000000
000000
000000
000000
000000
000000
000000
000000
01F800
01F800
006000
00C000
00C000
00C000
018000
018000
07E000
0FC000
000000
000000
000000
000000
000000
ENDCHAR
STARTCHAR U+026B
ENCODING 619
SWIDTH 500 0
DWIDTH 12 0
BBX 19 24 -3 -2
BITMAP 
000000
000000
000000
000000
000000
001800
003000
003000
003000
006000
01E400
036C00
04F000
00C000
00C000
018000
018000
01E000
01C000
000000
000000
000000
000000
000000
ENDCHAR
STARTCHAR U+026C
ENCODING 620
SWIDTH 500 0
DWIDTH 12 0
BBX 19 24 -3 -2
BITMAP 
000000
000000
000000
000000
000000
001800
003000
003000
003000
036000
07E000
066000
0FF800
07F800
00C000
018000
018000
01E000
01C000
000000
000000
000000
000000
000000
ENDCHAR
STARTCHAR U+026D
ENCODING 621
SWIDTH 500 0
DWIDTH 12 0
BBX 19 24 -3 -2
BITMAP 
000000
000000
000000
000000
000000
001800
003000
003000
003000
006000
006000
006000
00C000
00C000
00C000
018000
018000
018000
030000
030000
01E000
01C000
000000
000000
ENDCHAR
STARTCHAR U+026E
ENCODING 622
SWIDTH 500 0
DWIDTH 12 0
BBX 19 24 -3 -2
BITMAP 
000000
000000
000000
000000
000000
00C000
018000
018000
018000
03FC00
03FC00
030C00
063000
066000
06F000
0DF000
0C3800
0F1800
0E3000
003000
007000
0FC000
078000
000000
ENDCHAR
STARTCHAR U+026F
ENCODING 623
SWIDTH 500 0
DWIDTH 12 0
BBX 19 24 -3 -2
BITMAP 
000000
000000
000000
000000
000000
000000
000000
000000
000000
066600
066600
066600
0CCC00
0CCC00
0CCC00
199800
199800
1FF800
1DB000
000000
000000
000000
000000
000000
ENDCHAR
STARTCHAR U+0270
ENCODING 624
SWIDTH 500 0
DWIDTH 12 0
BBX 19 24 -3 -2
BITMAP 
000000
000000
000000
000000
000000
000000
000000
000000
000000
066600
066600
066600
0CCC00
0CCC00
0CCC00
199800
199800
1FF800
1DB000
003000
003000
006000
006000
000000
ENDCHAR
STARTCHAR U+0271
ENCODING 625
SWIDTH 500 0
DWIDTH 12 0
BBX 19 24 -3 -2
BITMAP 
000000
000000
000000
000000
000000
000000
000000
000000
000000
06DC00
07FE00
066600
0CCC00
0CCC00
0CCC00
199800
199800
199800
333000
003000
00F000
01C000
000000
000000
ENDCHAR
STARTCHAR U+0272
ENCODING 626
SWIDTH 500 0
DWIDTH 12 0
BBX 19 24 -3 -2
BITMAP 
000000
000000
000000
000000
000000
000000
000000
000000
000000
019800
01BC00
01EE00
038C00
030C00
030C00
061800
061800
061800
0C3000
0C0000
0C0000
780000
700000
000000
ENDCHAR
STARTCHAR U+0273
ENCODING 627
SWIDTH 500 0
DWIDTH 12 0
BBX 19 24 -3 -2
BITMAP 
000000
000000
000000
000000
000000
000000
000000
000000
000000
066000
06F000
07B800
0E3000
0C3000
0C3000
186000
186000
186000
30C000
00C000
00C000
01E000
00E000
000000
ENDCHAR
STARTCHAR U+0274
ENCODING 628
SWIDTH 500 0
DWIDTH 12 0
BBX 19 24 -3 -2
BITMAP 
000000
000000
000000
000000
000000
000000
000000
000000
000000
030600
030600
038600
078C00
06CC00
064C00
0C7800
0C3800
0C1800
183000
000000
000000
000000
000000
000000
ENDCHAR
STARTCHAR U+0275
ENCODING 629
SWIDTH 500 0
DWIDTH 12 0
BBX 19 24 -3 -2
BITMAP 
000000
000000
000000
000000
000000
000000
000000
000000
000000
00F800
01FC00
038E00
060C00
07FC00
07FC00
0C1800
0E3800
07F000
07C000
000000
000000
000000
000000
000000
ENDCHAR
STARTCHAR U+0276
ENCODING 630
SWIDTH 500 0
DWIDTH 12 0
BBX 19 24 -3 -2
BITMAP 
000000
000000
000000
000000
000000
000000
000000
000000
000000
03FE00
07FE00
066000
0CC000
0CF800
0CF800
198000
198000
1FF800
1FF000
000000
000000
000000
000000
000000
ENDCHAR
STARTCHAR U+0277
ENCODING 631
SWIDTH 500 0
DWIDTH 12 0
BBX 19 24 -3 -2
BITMAP 
000000
000000
000000
000000
000000
000000
000000
000000
000000
01F800
03FC00
060600
0C0C00
0CCC00
0CCC00
199800
199800
0FF000
0CC000
000000
000000
000000
000000
000000
ENDCHAR
STARTCHAR U+0278
ENCODING 632
SWIDTH 500 0
DWIDTH 12 0
BBX 19 24 -3 -2
BITMAP 
000000
000000
000000
000000
000000
001800
003000
003000
003000
01F800
03FC00
076E00
0CCC00
0CCC00
0CCC00
199800
1DB800
0FF000
0FC000
030000
030000
060000
060000
000000
ENDCHAR
STARTCHAR U+0279
ENCODING 633
SWIDTH 500 0
DWIDTH 12 0
BBX 19 24 -3 -2
BITMAP 
000000
000000
000000
000000
000000
000000
000000
000000
000000
000600
000600
000600
000C00
000C00
000C00
0C3800
0C7800
07D800
073000
000000
000000
000000
000000
000000
ENDCHAR
STARTCHAR U+027A
ENCODING 634
SWIDTH 500 0
DWIDTH 12 0
BBX 19 24 -3 -2
BITMAP 
000000
000000
000000
000000
000000
000180
000300
000300
000300
000600
000600
000600
000C00
000C00
000C00
0C3800
0C7800
07D800
073000
000000
000000
000000
000000
000000
ENDCHAR
STARTCHAR U+027B
ENCODING 635
SWIDTH 500 0
DWIDTH 12 0
BBX 19 24 -3 -2
BITMAP 
000000
000000
000000
000000
000000
000000
000000
000000
000000
001800
001800
001800
003000
003000
003000
18E000
19E000
0F6000
0C7000
003000
000000
000000
000000
000000
ENDCHAR
STARTCHAR U+027C
ENCODING 636
SWIDTH 500 0
DWIDTH 12 0
BBX 19 24 -3 -2
BITMAP 
000000
000000
000000
000000
000000
00CE00
01BE00
01E300
01C300
030000
030000
030000
060000
060000
060000
0C0000
0C0000
0C0000
180000
000000
000000
000000
000000
000000
ENDCHAR
STARTCHAR U+027D
ENCODING 637
SWIDTH 500 0
DWIDTH 12 0
BBX 19 24 -3 -2
BITMAP 
000000
000000
000000
000000
000000
000000
000000
000000
000000
033800
037C00
03C600
070C00
060000
060000
0C0000
0C0000
0C0000
180000
180000
0F0000
0E0000
000000
000000
ENDCHAR
STARTCHAR U+027E
ENCODING 638
SWIDTH 500 0
DWIDTH 12 0
BBX 19 24 -3 -2
BITMAP 
000000
000000
000000
000000
000000
000000
000000
000000
000000
00F000
01F800
030C00
061800
060000
060000
0C0000
0C0000
0C0000
180000
000000
000000
000000
000000
000000
ENDCHAR
STARTCHAR U+027F
ENCODING 639
SWIDTH 500 0
DWIDTH 12 0
BBX 19 24 -3 -2
BITMAP 
000000
000000
000000
000000
000000
000000
000000
000000
000000
00F000
01F800
030C00
061800
001800
001800
003000
003000
003000
006000
000000
000000
000000
000000
000000
ENDCHAR
STARTCHAR U+0280
ENCODING 640
SWIDTH 500 0
DWIDTH 12 0
BBX 19 24 -3 -2
BITMAP 
000000
000000
000000
000000
000000
000000
000000
000000
000000
03FC00
03FE00
030600
060C00
07FC00
07F800
0C6000
0C7000
0C3800
183000
000000
000000
000000
000000
000000
ENDCHAR
STARTCHAR U+0281
ENCODING 641
SWIDTH 500 0
DWIDTH 12 0
BBX 19 24 -3 -2
BITMAP 
000000
000000
000000
000000
000000
000000
000000
000000
000000
030600
030E00
031C00
063000
07F800
07FC00
0C1800
0C1800
0FF800
1FE000
000000
000000
000000
000000
000000
ENDCHAR
STARTCHAR U+0282
ENCODING 642
SWIDTH 500 0
DWIDTH 12 0
BBX 19 24 -3 -2
BITMAP 
000000
000000
000000
000000
000000
000000
000000
000000
000000
01FC00
03FE00
030200
060000
03F000
01F000
001800
001800
0FF800
1FE000
180000
180000
1E0000
0E0000
000000
ENDCHAR
STARTCHAR U+0283
ENCODING 643
SWIDTH 500 0
DWIDTH 12 0
BBX 19 24 -3 -2
BITMAP 
000000
000000
000000
000000
000000
000700
001E00
003800
003000
006000
006000
006000
00C000
00C000
00C000
018000
018000
018000
030000
030000
070000
3C0000
380000
000000
ENDCHAR
STARTCHAR U+0284
ENCODING 644
SWIDTH 500 0
DWIDTH 12 0
BBX 19 24 -3 -2
BITMAP 
000000
000000
000000
000000
000000
000700
001E00
003800
003000
006000
03FC00
03FC00
00C000
00C000
00C000
018000
0FF000
0FF000
030000
030000
070000
3C0000
380000
000000
ENDCHAR
STARTCHAR U+0285
ENCODING 645
SWIDTH 500 0
DWIDTH 12 0
BBX 19 24 -3 -2
BITMAP 
000000
000000
000000
000000
000000
000000
000000
000000
000000
038000
03C000
00E000
00C000
00C000
00C000
018000
018000
018000
030000
030000
038000
03C000
01C000
000000
ENDCHAR
STARTCHAR U+0286
ENCODING 646
SWIDTH 500 0
DWIDTH 12 0
BBX 19 24 -3 -2
BITMAP 
000000
000000
000000
000000
000000
000380
000F00
001C00
001800
003000
003000
003000
006000
006000
006000
00C000
00C000
06C000
1F8000
1B8000
19C000
3FE000
1C6000
000000
ENDCHAR
STARTCHAR U+0287
ENCODING 647
SWIDTH 500 0
DWIDTH 12 0
BBX 19 24 -3 -2
BITMAP 
000000
000000
000000
000000
000000
000000
00E000
00F000
003000
006000
006000
006000
00C000
00C000
03F000
07E000
018000
018000
030000
000000
000000
000000
000000
000000
ENDCHAR
STARTCHAR U+0288
ENCODING 648
SWIDTH 500 0
DWIDTH 12 0
BBX 19 24 -3 -2
BITMAP 
000000
000000
000000
000000
000000
000000
003000
003000
003000
01F800
01F800
006000
00C000
00C000
00C000
018000
018000
018000
030000
030000
01E000
01C000
000000
000000
ENDCHAR
STARTCHAR U+0289
ENCODING 649
SWIDTH 500 0
DWIDTH 12 0
BBX 19 24 -3 -2
BITMAP 
000000
000000
000000
000000
000000
000000
000000
000000
000000
030C00
030C00
030C00
0FFC00
0FFC00
061800
0C3000
0E7000
07F000
076000
000000
000000
000000
000000
000000
ENDCHAR
STARTCHAR U+028A
ENCODING 650
SWIDTH 500 0
DWIDTH 12 0
BBX 19 24 -3 -2
BITMAP 
000000
000000
000000
000000
000000
000000
000000
000000
000000
03DE00
03DE00
00D800
01B000
031800
060C00
0C1800
0E3800
07F000
07C000
000000
000000
000000
000000
000000
ENDCHAR
STARTCHAR U+028B
ENCODING 651
SWIDTH 500 0
DWIDTH 12 0
BBX 19 24 -3 -2
BITMAP 
000000
000000
000000
000000
000000
000000
000000
000000
000000
038C00
038E00
018600
030C00
030C00
031800
063000
066000
07E000
070000
000000
000000
000000
000000
000000
ENDCHAR
STARTCHAR U+028C
ENCODING 652
SWIDTH 500 0
DWIDTH 12 0
BBX 19 24 -3 -2
BITMAP 
000000
000000
000000
000000
000000
000000
000000
000000
000000
007000
007000
00D800
01B000
031800
031800
063000
0C1800
0C1800
183000
000000
000000
000000
000000
000000
ENDCHAR
STARTCHAR U+028D
ENCODING 653
SWIDTH 500 0
DWIDTH 12 0
BBX 19 24 -3 -2
BITMAP 
000000
000000
000000
000000
000000
000000
000000
000000
000000
018C00
018C00
018C00
03B800
06EC00
06EC00
0DD800
0C9800
0C1800
183000
000000
000000
000000
000000
000000
ENDCHAR
STARTCHAR U+028E
ENCODING 654
SWIDTH 500 0
DWIDTH 12 0
BBX 19 24 -3 -2
BITMAP 
000000
000000
000000
000000
000000
000300
000E00
000C00
001C00
003000
007000
007000
01F000
01B000
03B800
063000
0E3800
0C1800
183000
000000
000000
000000
000000
000000
ENDCHAR
STARTCHAR U+028F
ENCODING 655
SWIDTH 500 0
DWIDTH 12 0
BBX 19 24 -3 -2
BITMAP 
000000
000000
000000
000000
000000
000000
000000
000000
000000
060600
070E00
039C00
03F000
01E000
00C000
018000
018000
018000
030000
000000
000000
000000
000000
000000
ENDCHAR
STARTCHAR U+0290
ENCODING 656
SWIDTH 500 0
DWIDTH 12 0
BBX 19 24 -3 -2
BITMAP 
000000
000000
000000
000000
000000
000000
000000
000000
000000
03F800
03F800
001800
006000
00C000
018000
060000
0C0000
0FE000
1FC000
00C000
007000
006000
000000
000000
ENDCHAR
STARTCHAR U+0291
ENCODING 657
SWIDTH 500 0
DWIDTH 12 0
BBX 19 24 -3 -2
BITMAP 
000000
000000
000000
000000
000000
000000
000000
000000
000000
03FC00
03FC00
001800
006000
00C000
018000
067000
0CD800
0FD800
1FE000
030000
060000
000000
000000
000000
ENDCHAR
STARTCHAR U+0292
ENCODING 658
SWIDTH 500 0
DWIDTH 12 0
BBX 19 24 -3 -2
BITMAP 
000000
000000
000000
000000
000000
000000
000000
000000
000000
01F800
01F800
001800
006000
00C000
01E000
03E000
007000
003000
006000
006000
18E000
3F8000
1F0000
000000
ENDCHAR
STARTCHAR U+0293
ENCODING 659
SWIDTH 500 0
DWIDTH 12 0
BBX 19 24 -3 -2
BITMAP 
000000
000000
000000
000000
000000
000000
000000
000000
000000
01F800
01F800
001800
006000
00C000
01E000
03E000
007000
003000
0E6000
1F6000
19C000
3FC000
1F4000
000000
ENDCHAR
STARTCHAR U+0294
ENCODING 660
SWIDTH 500 0
DWIDTH 12 0
BBX 19 24 -3 -2
BITMAP 
000000
000000
000000
000000
000000
003800
00F800
00CC00
000C00
001800
001800
001800
007000
00E000
00C000
018000
018000
018000
030000
000000
000000
000000
000000
000000
ENDCHAR
STARTCHAR U+0295
ENCODING 661
SWIDTH 500 0
DWIDTH 12 0
BBX 19 24 -3 -2
BITMAP 
000000
000000
000000
000000
000000
001C00
007C00
00CC00
00C000
018000
018000
018000
038000
01C000
00C000
018000
018000
018000
030000
000000
000000
000000
000000
000000
ENDCHAR
STARTCHAR U+0296
ENCODING 662
SWIDTH 500 0
DWIDTH 12 0
BBX 19 24 -3 -2
BITMAP 
000000
000000
000000
000000
000000
001800
003000
003000
003000
006000
007000
003800
003000
003000
003000
006000
066000
07C000
070000
000000
000000
000000
000000
000000
ENDCHAR
STARTCHAR U+0297
ENCODING 663
SWIDTH 500 0
DWIDTH 12 0
BBX 19 24 -3 -2
BITMAP 
000000
000000
000000
000000
000000
003C00
00FC00
01CE00
018600
030000
030000
030000
060000
060000
060000
0C3000
0E7000
07E000
078000
000000
000000
000000
000000
000000
ENDCHAR
STARTCHAR U+0298
ENCODING 664
SWIDTH 500 0
DWIDTH 12 0
BBX 19 24 -3 -2
BITMAP 
000000
000000
000000
000000
000000
000000
000000
000000
000000
00F800
01FC00
038E00
060C00
06EC00
06EC00
0C1800
0E3800
07F000
07C000
000000
000000
000000
000000
000000
ENDCHAR
STARTCHAR U+0299
ENCODING 665
SWIDTH 500 0
DWIDTH 12 0
BBX 19 24 -3 -2
BITMAP 
000000
000000
000000
000000
000000
000000
000000
000000
000000
03F000
03F800
030C00
061800
07F000
07F800
0C3800
0C1800
0FF000
1FC000
000000
000000
000000
000000
000000
ENDCHAR
STARTCHAR U+029A
ENCODING 666
SWIDTH 500 0
DWIDTH 12 0
BBX 19 24 -3 -2
BITMAP 
000000
000000
000000
000000
000000
000000
000000
000000
000000
00F800
01FC00
030600
060C00
03EC00
03EC00
0C1800
0C1800
07F000
07C000
000000
000000
000000
000000
000000
ENDCHAR
STARTCHAR U+029B
ENCODING 667
SWIDTH 500 0
DWIDTH 12 0
BBX 19 24 -3 -2
BITMAP 
000000
000000
000000
000000
000000
000000
000700
000F00
000C00
01F800
03F800
070000
0C0000
0C0000
0C7800
18F000
1C3000
0FF000
0FC000
000000
000000
000000
000000
000000
ENDCHAR
STARTCHAR U+029C
ENCODING 668
SWIDTH 500 0
DWIDTH 12 0
BBX 19 24 -3 -2
BITMAP 
000000
000000
000000
000000
000000
000000
000000
000000
000000
030600
030600
030600
060C00
07FC00
07FC00
0C1800
0C1800
0C1800
183000
000000
000000
000000
000000
000000
ENDCHAR
STARTCHAR U+029D
ENCODING 669
SWIDTH 500 0
DWIDTH 12 0
BBX 19 24 -3 -2
BITMAP 
000000
000000
000000
000000
000000
000C00
001800
000000
000000
003000
003000
003000
006000
006000
006000
00C000
00C000
03F000
0FE000
198000
198000
1E0000
0C0000
000000
ENDCHAR
STARTCHAR U+029E
ENCODING 670
SWIDTH 500 0
DWIDTH 12 0
BBX 19 24 -3 -2
BITMAP 
000000
000000
000000
000000
000000
000000
000000
000000
018600
038C00
01CC00
00EC00
00F800
007800
00F800
03B000
073000
0E3000
186000
006000
006000
000000
000000
000000
ENDCHAR
STARTCHAR U+029F
ENCODING 671
SWIDTH 500 0
DWIDTH 12 0
BBX 19 24 -3 -2
BITMAP 
000000
000000
000000
000000
000000
000000
000000
000000
000000
030000
030000
030000
060000
060000
060000
0C0000
0C0000
0FF800
1FF000
000000
000000
000000
000000
000000
ENDCHAR
STARTCHAR U+02A0
ENCODING 672
SWIDTH 500 0
DWIDTH 12 0
BBX 19 24 -3 -2
BITMAP 
000000
000000
000000
000000
000000
000000
000000
000300
000700
019800
03D800
077800
0C7000
0C3000
0C3000
18E000
1DE000
0F6000
0CC000
00C000
00C000
018000
018000
000000
ENDCHAR
STARTCHAR U+02A1
ENCODING 673
SWIDTH 500 0
DWIDTH 12 0
BBX 19 24 -3 -2
BITMAP 
000000
000000
000000
000000
000000
003800
00F800
00CC00
000C00
001800
001800
001800
007000
00E000
00C000
0FF000
0FF000
018000
030000
000000
000000
000000
000000
000000
ENDCHAR
STARTCHAR U+02A2
ENCODING 674
SWIDTH 500 0
DWIDTH 12 0
BBX 19 24 -3 -2
BITMAP 
000000
000000
000000
000000
000000
001C00
007C00
00CC00
00C000
018000
018000
018000
038000
01C000
00C000
0FF000
0FF000
018000
030000
000000
000000
000000
000000
000000
ENDCHAR
STARTCHAR U+02A3
ENCODING 675
SWIDTH 500 0
DWIDTH 12 0
BBX 19 24 -3 -2
BITMAP 
000000
000000
000000
000000
000000
003000
006000
006000
006000
03FE00
07FE00
06C600
0D8C00
0D9800
0D9800
1B6000
1B6000
1FF800
1BF000
000000
000000
000000
000000
000000
ENDCHAR
STARTCHAR U+02A4
ENCODING 676
SWIDTH 500 0
DWIDTH 12 0
BBX 19 24 -3 -2
BITMAP 
000000
000000
000000
000000
000000
003000
006000
006000
006000
03FC00
07FC00
06CC00
0DB000
0DE000
0DF800
1B3800
1B1800
1F9800
1B3000
003000
007000
0FC000
078000
000000
ENDCHAR
STARTCHAR U+02A5
ENCODING 677
SWIDTH 500 0
DWIDTH 12 0
BBX 19 24 -3 -2
BITMAP 
000000
000000
000000
000000
000000
003000
006000
006000
006000
03FE00
07FE00
06C600
0D9800
0DB000
0DF000
1BF800
1BD800
1FF800
1BE000
018000
030000
000000
000000
000000
ENDCHAR
STARTCHAR U+02A6
ENCODING 678
SWIDTH 500 0
DWIDTH 12 0
BBX 19 24 -3 -2
BITMAP 
000000
000000
000000
000000
000000
000000
018000
018000
018000
07FC00
07FE00
036200
06C000
067000
063000
0C1800
0C1800
0FF800
0FE000
000000
000000
000000
000000
000000
ENDCHAR
STARTCHAR U+02A7
ENCODING 679
SWIDTH 500 0
DWIDTH 12 0
BBX 19 24 -3 -2
BITMAP 
000000
000000
000000
000000
000180
000380
00CC00
00CC00
00CC00
07F800
07F800
019800
033000
033000
033000
066000
066000
07E000
07C000
00C000
00C000
070000
060000
000000
ENDCHAR
STARTCHAR U+02A8
ENCODING 680
SWIDTH 500 0
DWIDTH 12 0
BBX 19 24 -3 -2
BITMAP 
000000
000000
000000
000000
000000
000000
018000
018000
018000
07BC00
07FE00
03A200
06C000
06C000
06D800
0DF800
0DD800
0FF800
0FE000
000000
000000
000000
000000
000000
ENDCHAR
STARTCHAR U+02B0
ENCODING 688
SWIDTH 500 0
DWIDTH 12 0
BBX 19 24 -3 -2
BITMAP 
003000
003000
003000
006C00
007E00
007600
00CC00
00CC00
00CC00
019800
000000
000000
000000
000000
000000
000000
000000
000000
000000
000000
000000
000000
000000
000000
ENDCHAR
STARTCHAR U+02B1
ENCODING 689
SWIDTH 500 0
DWIDTH 12 0
BBX 19 24 -3 -2
BITMAP 
001C00
003C00
003000
006C00
007E00
007600
00CC00
00CC00
00CC00
019800
000000
000000
000000
000000
000000
000000
000000
000000
000000
000000
000000
000000
000000
000000
ENDCHAR
STARTCHAR U+02B2
ENCODING 690
SWIDTH 500 0
DWIDTH 12 0
BBX 19 24 -3 -2
BITMAP 
000600
000600
000000
000C00
000C00
000C00
001800
001800
007800
00E000
000000
000000
000000
000000
000000
000000
000000
000000
000000
000000
000000
000000
000000
000000
ENDCHAR
STARTCHAR U+02B3
ENCODING 691
SWIDTH 500 0
DWIDTH 12 0
BBX 19 24 -3 -2
BITMAP 
003600
003F00
003B00
006000
006000
006000
00C000
00C000
000000
000000
000000
000000
000000
000000
000000
000000
000000
000000
000000
000000
000000
000000
000000
000000
ENDCHAR
STARTCHAR U+02B4
ENCODING 692
SWIDTH 500 0
DWIDTH 12 0
BBX 19 24 -3 -2
BITMAP 
000300
000300
000300
000600
000600
006E00
00FC00
006C00
000000
000000
000000
000000
000000
000000
000000
000000
000000
000000
000000
000000
000000
000000
000000
000000
ENDCHAR
STARTCHAR U+02B5
ENCODING 693
SWIDTH 500 0
DWIDTH 12 0
BBX 19 24 -3 -2
BITMAP 
000300
000300
000300
000600
000600
006E00
00FC00
006C00
000C00
001C00
000C00
000000
000000
000000
000000
000000
000000
000000
000000
000000
000000
000000
000000
000000
ENDCHAR
STARTCHAR U+02B6
ENCODING 694
SWIDTH 500 0
DWIDTH 12 0
BBX 19 24 -3 -2
BITMAP 
003180
003300
003300
006C00
007C00
007C00
00CC00
00CC00
00FC00
01F000
000000
000000
000000
000000
000000
000000
000000
000000
000000
000000
000000
000000
000000
000000
ENDCHAR
STARTCHAR U+02B7
ENCODING 695
SWIDTH 500 0
DWIDTH 12 0
BBX 19 24 -3 -2
BITMAP 
006300
006300
006B00
00D600
007C00
007C00
00D800
00D800
000000
000000
000000
000000
000000
000000
000000
000000
000000
000000
000000
000000
000000
000000
000000
000000
ENDCHAR
STARTCHAR U+02B8
ENCODING 696
SWIDTH 500 0
DWIDTH 12 0
BBX 19 24 -3 -2
BITMAP 
003300
003300
003300
006600
006E00
007E00
006C00
000C00
00FC00
00F000
000000
000000
000000
000000
000000
000000
000000
000000
000000
000000
000000
000000
000000
000000
ENDCHAR
STARTCHAR U+02B9
ENCODING 697
SWIDTH 500 0
DWIDTH 12 0
BBX 19 24 -3 -2
BITMAP 
000000
000000
000600
000C00
001C00
001800
006000
006000
00C000
010000
000000
000000
000000
000000
000000
000000
000000
000000
000000
000000
000000
000000
000000
000000
ENDCHAR
STARTCHAR U+02BA
ENCODING 698
SWIDTH 500 0
DWIDTH 12 0
BBX 19 24 -3 -2
BITMAP 
000000
000000
001980
003300
007700
006600
019800
019800
033000
044000
000000
000000
000000
000000
000000
000000
000000
000000
000000
000000
000000
000000
000000
000000
ENDCHAR
STARTCHAR U+02BB
ENCODING 699
SWIDTH 500 0
DWIDTH 12 0
BBX 19 24 -3 -2
BITMAP 
000000
000000
000000
000000
000C00
001800
006000
006000
007800
00F000
006000
000000
000000
000000
000000
000000
000000
000000
000000
000000
000000
000000
000000
000000
ENDCHAR
STARTCHAR U+02BC
ENCODING 700
SWIDTH 500 0
DWIDTH 12 0
BBX 19 24 -3 -2
BITMAP 
000000
000000
000000
000000
001800
003C00
007800
001800
001800
006000
00C000
000000
000000
000000
000000
000000
000000
000000
000000
000000
000000
000000
000000
000000
ENDCHAR
STARTCHAR U+02BD
ENCODING 701
SWIDTH 500 0
DWIDTH 12 0
BBX 19 24 -3 -2
BITMAP 
000000
000000
000000
000000
001800
003C00
007800
006000
006000
006000
003000
000000
000000
000000
000000
000000
000000
000000
000000
000000
000000
000000
000000
000000
ENDCHAR
STARTCHAR U+02BE
ENCODING 702
SWIDTH 500 0
DWIDTH 12 0
BBX 19 24 -3 -2
BITMAP 
000000
000000
000600
000600
000600
000C00
000000
000000
000000
000000
000000
000000
000000
000000
000000
000000
000000
000000
000000
000000
000000
000000
000000
000000
ENDCHAR
STARTCHAR U+02BF
ENCODING 703
SWIDTH 500 0
DWIDTH 12 0
BBX 19 24 -3 -2
BITMAP 
000000
000000
001800
006000
006000
003000
000000
000000
000000
000000
000000
000000
000000
000000
000000
000000
000000
000000
000000
000000
000000
000000
000000
000000
ENDCHAR
STARTCHAR U+02C0
ENCODING 704
SWIDTH 500 0
DWIDTH 12 0
BBX 19 24 -3 -2
BITMAP 
000000
001E00
001B00
000600
000600
000E00
003000
003000
000000
000000
000000
000000
000000
000000
000000
000000
000000
000000
000000
000000
000000
000000
000000
000000
ENDCHAR
STARTCHAR U+02C1
ENCODING 705
SWIDTH 500 0
DWIDTH 12 0
BBX 19 24 -3 -2
BITMAP 
000000
000F00
001B00
003000
003000
003000
001800
001800
000000
000000
000000
000000
000000
000000
000000
000000
000000
000000
000000
000000
000000
000000
000000
000000
ENDCHAR
STARTCHAR U+02C2
ENCODING 706
SWIDTH 500 0
DWIDTH 12 0
BBX 19 24 -3 -2
BITMAP 
000180
000780
001E00
00F000
00F000
003C00
001E00
000600
000000
000000
000000
000000
000000
000000
000000
000000
000000
000000
000000
000000
000000
000000
000000
000000
ENDCHAR
STARTCHAR U+02C3
ENCODING 707
SWIDTH 500 0
DWIDTH 12 0
BBX 19 24 -3 -2
BITMAP 
006000
007800
001E00
000F00
000F00
003C00
01E000
018000
000000
000000
000000
000000
000000
000000
000000
000000
000000
000000
000000
000000
000000
000000
000000
000000
ENDCHAR
STARTCHAR U+02C4
ENCODING 708
SWIDTH 500 0
DWIDTH 12 0
BBX 19 24 -3 -2
BITMAP 
000C00
000C00
001E00
003C00
006600
006600
018600
018600
000000
000000
000000
000000
000000
000000
000000
000000
000000
000000
000000
000000
000000
000000
000000
000000
ENDCHAR
STARTCHAR U+02C5
ENCODING 709
SWIDTH 500 0
DWIDTH 12 0
BBX 19 24 -3 -2
BITMAP 
006180
006180
003300
006600
003C00
003C00
003000
003000
000000
000000
000000
000000
000000
000000
000000
000000
000000
000000
000000
000000
000000
000000
000000
000000
ENDCHAR
STARTCHAR U+02C6
ENCODING 710
SWIDTH 500 0
DWIDTH 12 0
BBX 19 24 -3 -2
BITMAP 
000E00
001F00
003180
000000
000000
000000
000000
000000
000000
000000
000000
000000
000000
000000
000000
000000
000000
000000
000000
000000
000000
000000
000000
000000
ENDCHAR
STARTCHAR U+02C7
ENCODING 711
SWIDTH 500 0
DWIDTH 12 0
BBX 19 24 -3 -2
BITMAP 
003300
001E00
000C00
000000
000000
000000
000000
000000
000000
000000
000000
000000
000000
000000
000000
000000
000000
000000
000000
000000
000000
000000
000000
000000
ENDCHAR
STARTCHAR U+02C8
ENCODING 712
SWIDTH 500 0
DWIDTH 12 0
BBX 19 24 -3 -2
BITMAP 
000C00
000C00
000C00
001800
000000
000000
000000
000000
000000
000000
000000
000000
000000
000000
000000
000000
000000
000000
000000
000000
000000
000000
000000
000000
ENDCHAR
STARTCHAR U+02C9
ENCODING 713
SWIDTH 500 0
DWIDTH 12 0
BBX 19 24 -3 -2
BITMAP 
000000
003F80
003F80
000000
000000
000000
000000
000000
000000
000000
000000
000000
000000
000000
000000
000000
000000
000000
000000
000000
000000
000000
000000
000000
ENDCHAR
STARTCHAR U+02CA
ENCODING 714
SWIDTH 500 0
DWIDTH 12 0
BBX 19 24 -3 -2
BITMAP 
000000
000600
000E00
003000
000000
000000
000000
000000
000000
000000
000000
000000
000000
000000
000000
000000
000000
000000
000000
000000
000000
000000
000000
000000
ENDCHAR
STARTCHAR U+02CB
ENCODING 715
SWIDTH 500 0
DWIDTH 12 0
BBX 19 24 -3 -2
BITMAP 
000000
001800
001800
000C00
000000
000000
000000
000000
000000
000000
000000
000000
000000
000000
000000
000000
000000
000000
000000
000000
000000
000000
000000
000000
ENDCHAR
STARTCHAR U+02CC
ENCODING 716
SWIDTH 500 0
DWIDTH 12 0
BBX 19 24 -3 -2
BITMAP 
000000
000000
000000
000000
000000
000000
000000
000000
000000
000000
000000
000000
000000
000000
000000
000000
000000
000000
000000
030000
030000
060000
060000
000000
ENDCHAR
STARTCHAR U+02CD
ENCODING 717
SWIDTH 500 0
DWIDTH 12 0
BBX 19 24 -3 -2
BITMAP 
000000
000000
000000
000000
000000
000000
000000
000000
000000
000000
000000
000000
000000
000000
000000
000000
000000
000000
000000
000000
000000
1FC000
1FC000
000000
ENDCHAR
STARTCHAR U+02CE
ENCODING 718
SWIDTH 500 0
DWIDTH 12 0
BBX 19 24 -3 -2
BITMAP 
000000
000000
000000
000000
000000
000000
000000
000000
000000
000000
000000
000000
000000
000000
000000
000000
000000
000000
000000
000000
060000
0E0000
030000
000000
ENDCHAR
STARTCHAR U+02CF
ENCODING 719
SWIDTH 500 0
DWIDTH 12 0
BBX 19 24 -3 -2
BITMAP 
000000
000000
000000
000000
000000
000000
000000
000000
000000
000000
000000
000000
000000
000000
000000
000000
000000
000000
000000
000000
018000
070000
0C0000
000000
ENDCHAR
STARTCHAR U+02D0
ENCODING 720
SWIDTH 500 0
DWIDTH 12 0
BBX 19 24 -3 -2
BITMAP 
000000
000000
000000
000000
000000
000000
000000
000000
007C00
007000
007000
002000
000000
000000
000000
008000
01C000
01C000
07C000
000000
000000
000000
000000
000000
ENDCHAR
STARTCHAR U+02D1
ENCODING 721
SWIDTH 500 0
DWIDTH 12 0
BBX 19 24 -3 -2
BITMAP 
000000
000000
000000
000000
000000
000000
000000
000000
000000
000000
00F800
007000
00E000
004000
000000
000000
000000
000000
000000
000000
000000
000000
000000
000000
ENDCHAR
STARTCHAR U+02D2
ENCODING 722
SWIDTH 500 0
DWIDTH 12 0
BBX 19 24 -3 -2
BITMAP 
000000
000000
000000
000000
000000
000000
000000
000000
000000
000000
000000
003000
003000
003000
006000
000000
000000
000000
000000
000000
000000
000000
000000
000000
ENDCHAR
STARTCHAR U+02D3
ENCODING 723
SWIDTH 500 0
DWIDTH 12 0
BBX 19 24 -3 -2
BITMAP 
000000
000000
000000
000000
000000
000000
000000
000000
000000
000000
000000
00C000
030000
030000
018000
000000
000000
000000
000000
000000
000000
000000
000000
000000
ENDCHAR
STARTCHAR U+02D4
ENCODING 724
SWIDTH 500 0
DWIDTH 12 0
BBX 19 24 -3 -2
BITMAP 
000000
000000
000000
000000
000000
000000
000000
000000
000000
000000
000000
006000
00C000
03F000
03F000
000000
000000
000000
000000
000000
000000
000000
000000
000000
ENDCHAR
STARTCHAR U+02D5
ENCODING 725
SWIDTH 500 0
DWIDTH 12 0
BBX 19 24 -3 -2
BITMAP 
000000
000000
000000
000000
000000
000000
000000
000000
000000
000000
000000
000000
000000
03F000
03F000
018000
018000
000000
000000
000000
000000
000000
000000
000000
ENDCHAR
STARTCHAR U+02D6
ENCODING 726
SWIDTH 500 0
DWIDTH 12 0
BBX 19 24 -3 -2
BITMAP 
000000
000000
000000
000000
000000
000000
000000
000000
000000
000000
000000
006000
00C000
03F000
03F000
018000
018000
000000
000000
000000
000000
000000
000000
000000
ENDCHAR
STARTCHAR U+02D7
ENCODING 727
SWIDTH 500 0
DWIDTH 12 0
BBX 19 24 -3 -2
BITMAP 
000000
000000
000000
000000
000000
000000
000000
000000
000000
000000
000000
000000
000000
03F000
03F000
000000
000000
000000
000000
000000
000000
000000
000000
000000
ENDCHAR
STARTCHAR U+02D8
ENCODING 728
SWIDTH 500 0
DWIDTH 12 0
BBX 19 24 -3 -2
BITMAP 
003180
003180
001F00
000000
000000
000000
000000
000000
000000
000000
000000
000000
000000
000000
000000
000000
000000
000000
000000
000000
000000
000000
000000
000000
ENDCHAR
STARTCHAR U+02D9
ENCODING 729
SWIDTH 500 0
DWIDTH 12 0
BBX 19 24 -3 -2
BITMAP 
000000
000C00
000C00
000000
000000
000000
000000
000000
000000
000000
000000
000000
000000
000000
000000
000000
000000
000000
000000
000000
000000
000000
000000
000000
ENDCHAR
STARTCHAR U+02DA
ENCODING 730
SWIDTH 500 0
DWIDTH 12 0
BBX 19 24 -3 -2
BITMAP 
000E00
001B00
001B00
001C00
000000
000000
000000
000000
000000
000000
000000
000000
000000
000000
000000
000000
000000
000000
000000
000000
000000
000000
000000
000000
ENDCHAR
STARTCHAR U+02DB
ENCODING 731
SWIDTH 500 0
DWIDTH 12 0
BBX 19 24 -3 -2
BITMAP 
000000
000000
000000
000000
000000
000000
000000
000000
000000
000000
000000
000000
000000
000000
000000
000000
000000
000000
000000
007800
00E000
030000
03E000
01E000
ENDCHAR
STARTCHAR U+02DC
ENCODING 732
SWIDTH 500 0
DWIDTH 12 0
BBX 19 24 -3 -2
BITMAP 
003880
006D80
004700
000000
000000
000000
000000
000000
000000
000000
000000
000000
000000
000000
000000
000000
000000
000000
000000
000000
000000
000000
000000
000000
ENDCHAR
STARTCHAR U+02DD
ENCODING 733
SWIDTH 500 0
DWIDTH 12 0
BBX 19 24 -3 -2
BITMAP 
0018C0
0039C0
006300
000000
000000
000000
000000
000000
000000
000000
000000
000000
000000
000000
000000
000000
000000
000000
000000
000000
000000
000000
000000
000000
ENDCHAR
STARTCHAR U+0300
ENCODING 768
SWIDTH 500 0
DWIDTH 12 0
BBX 19 24 -3 -2
BITMAP 
000000
001800
001800
000C00
000000
000000
000000
000000
000000
000000
000000
000000
000000
000000
000000
000000
000000
000000
000000
000000
000000
000000
000000
000000
ENDCHAR
STARTCHAR U+0301
ENCODING 769
SWIDTH 500 0
DWIDTH 12 0
BBX 19 24 -3 -2
BITMAP 
000000
000600
000E00
003000
000000
000000
000000
000000
000000
000000
000000
000000
000000
000000
000000
000000
000000
000000
000000
000000
000000
000000
000000
000000
ENDCHAR
STARTCHAR U+0302
ENCODING 770
SWIDTH 500 0
DWIDTH 12 0
BBX 19 24 -3 -2
BITMAP 
000000
000400
000C00
003600
006300
00C180
000000
000000
000000
000000
000000
000000
000000
000000
000000
000000
000000
000000
000000
000000
000000
000000
000000
000000
ENDCHAR
STARTCHAR U+0303
ENCODING 771
SWIDTH 500 0
DWIDTH 12 0
BBX 19 24 -3 -2
BITMAP 
000000
003880
006980
008E00
000000
000000
000000
000000
000000
000000
000000
000000
000000
000000
000000
000000
000000
000000
000000
000000
000000
000000
000000
000000
ENDCHAR
STARTCHAR U+0304
ENCODING 772
SWIDTH 500 0
DWIDTH 12 0
BBX 19 24 -3 -2
BITMAP 
000000
007F80
007F80
000000
000000
000000
000000
000000
000000
000000
000000
000000
000000
000000
000000
000000
000000
000000
000000
000000
000000
000000
000000
000000
ENDCHAR
STARTCHAR U+0305
ENCODING 773
SWIDTH 500 0
DWIDTH 12 0
BBX 19 24 -3 -2
BITMAP 
000000
01FFE0
01FFE0
000000
000000
000000
000000
000000
000000
000000
000000
000000
000000
000000
000000
000000
000000
000000
000000
000000
000000
000000
000000
000000
ENDCHAR
STARTCHAR U+0306
ENCODING 774
SWIDTH 500 0
DWIDTH 12 0
BBX 19 24 -3 -2
BITMAP 
000000
003180
003180
003E00
000000
000000
000000
000000
000000
000000
000000
000000
000000
000000
000000
000000
000000
000000
000000
000000
000000
000000
000000
000000
ENDCHAR
STARTCHAR U+0307
ENCODING 775
SWIDTH 500 0
DWIDTH 12 0
BBX 19 24 -3 -2
BITMAP 
000000
000C00
000C00
000000
000000
000000
000000
000000
000000
000000
000000
000000
000000
000000
000000
000000
000000
000000
000000
000000
000000
000000
000000
000000
ENDCHAR
STARTCHAR U+0308
ENCODING 776
SWIDTH 500 0
DWIDTH 12 0
BBX 19 24 -3 -2
BITMAP 
000000
003180
003180
000000
000000
000000
000000
000000
000000
000000
000000
000000
000000
000000
000000
000000
000000
000000
000000
000000
000000
000000
000000
000000
ENDCHAR
STARTCHAR U+0309
ENCODING 777
SWIDTH 500 0
DWIDTH 12 0
BBX 19 24 -3 -2
BITMAP 
000000
001C00
001600
000C00
001800
001800
000000
000000
000000
000000
000000
000000
000000
000000
000000
000000
000000
000000
000000
000000
000000
000000
000000
000000
ENDCHAR
STARTCHAR U+030A
ENCODING 778
SWIDTH 500 0
DWIDTH 12 0
BBX 19 24 -3 -2
BITMAP 
000000
000E00
001B00
003600
001C00
000000
000000
000000
000000
000000
000000
000000
000000
000000
000000
000000
000000
000000
000000
000000
000000
000000
000000
000000
ENDCHAR
STARTCHAR U+030B
ENCODING 779
SWIDTH 500 0
DWIDTH 12 0
BBX 19 24 -3 -2
BITMAP 
000000
0018C0
0039C0
00C600
000000
000000
000000
000000
000000
000000
000000
000000
000000
000000
000000
000000
000000
000000
000000
000000
000000
000000
000000
000000
ENDCHAR
STARTCHAR U+030C
ENCODING 780
SWIDTH 500 0
DWIDTH 12 0
BBX 19 24 -3 -2
BITMAP 
000000
0060C0
002180
003600
001C00
000800
000000
000000
000000
000000
000000
000000
000000
000000
000000
000000
000000
000000
000000
000000
000000
000000
000000
000000
ENDCHAR
STARTCHAR U+030D
ENCODING 781
SWIDTH 500 0
DWIDTH 12 0
BBX 19 24 -3 -2
BITMAP 
000800
000C00
000C00
001800
001800
000800
000000
000000
000000
000000
000000
000000
000000
000000
000000
000000
000000
000000
000000
000000
000000
000000
000000
000000
ENDCHAR
STARTCHAR U+030E
ENCODING 782
SWIDTH 500 0
DWIDTH 12 0
BBX 19 24 -3 -2
BITMAP 
002200
003300
003300
006600
006600
002200
000000
000000
000000
000000
000000
000000
000000
000000
000000
000000
000000
000000
000000
000000
000000
000000
000000
000000
ENDCHAR
STARTCHAR U+030F
ENCODING 783
SWIDTH 500 0
DWIDTH 12 0
BBX 19 24 -3 -2
BITMAP 
000000
006300
006380
003180
000000
000000
000000
000000
000000
000000
000000
000000
000000
000000
000000
000000
000000
000000
000000
000000
000000
000000
000000
000000
ENDCHAR
STARTCHAR U+0310
ENCODING 784
SWIDTH 500 0
DWIDTH 12 0
BBX 19 24 -3 -2
BITMAP 
000000
000C00
004C80
00C300
007E00
001800
000000
000000
000000
000000
000000
000000
000000
000000
000000
000000
000000
000000
000000
000000
000000
000000
000000
000000
ENDCHAR
STARTCHAR U+0311
ENCODING 785
SWIDTH 500 0
DWIDTH 12 0
BBX 19 24 -3 -2
BITMAP 
000000
001F00
003180
006300
000000
000000
000000
000000
000000
000000
000000
000000
000000
000000
000000
000000
000000
000000
000000
000000
000000
000000
000000
000000
ENDCHAR
STARTCHAR U+0312
ENCODING 786
SWIDTH 500 0
DWIDTH 12 0
BBX 19 24 -3 -2
BITMAP 
000000
000000
000000
000000
000C00
001800
006000
006000
007800
00F000
006000
000000
000000
000000
000000
000000
000000
000000
000000
000000
000000
000000
000000
000000
ENDCHAR
STARTCHAR U+0313
ENCODING 787
SWIDTH 500 0
DWIDTH 12 0
BBX 19 24 -3 -2
BITMAP 
000000
000000
000000
003800
003800
000800
003000
006000
000000
000000
000000
000000
000000
000000
000000
000000
000000
000000
000000
000000
000000
000000
000000
000000
ENDCHAR
STARTCHAR U+0314
ENCODING 788
SWIDTH 500 0
DWIDTH 12 0
BBX 19 24 -3 -2
BITMAP 
000000
000000
000000
003800
003800
002000
006000
003000
000000
000000
000000
000000
000000
000000
000000
000000
000000
000000
000000
000000
000000
000000
000000
000000
ENDCHAR
STARTCHAR U+0315
ENCODING 789
SWIDTH 500 0
DWIDTH 12 0
BBX 19 24 -3 -2
BITMAP 
000000
000000
000000
000000
000180
0003C0
000780
000180
000180
000600
000C00
000000
000000
000000
000000
000000
000000
000000
000000
000000
000000
000000
000000
000000
ENDCHAR
STARTCHAR U+0316
ENCODING 790
SWIDTH 500 0
DWIDTH 12 0
BBX 19 24 -3 -2
BITMAP 
000000
000000
000000
000000
000000
000000
000000
000000
000000
000000
000000
000000
000000
000000
000000
000000
000000
000000
000000
000000
060000
0E0000
030000
000000
ENDCHAR
STARTCHAR U+0317
ENCODING 791
SWIDTH 500 0
DWIDTH 12 0
BBX 19 24 -3 -2
BITMAP 
000000
000000
000000
000000
000000
000000
000000
000000
000000
000000
000000
000000
000000
000000
000000
000000
000000
000000
000000
000000
018000
070000
0C0000
000000
ENDCHAR
STARTCHAR U+0318
ENCODING 792
SWIDTH 500 0
DWIDTH 12 0
BBX 19 24 -3 -2
BITMAP 
000000
000000
000000
000000
000000
000000
000000
000000
000000
000000
000000
000000
000000
000000
000000
000000
000000
006000
00C000
0FC000
0FC000
018000
018000
000000
ENDCHAR
STARTCHAR U+0319
ENCODING 793
SWIDTH 500 0
DWIDTH 12 0
BBX 19 24 -3 -2
BITMAP 
000000
000000
000000
000000
000000
000000
000000
000000
000000
000000
000000
000000
000000
000000
000000
000000
000000
060000
0C0000
0FC000
0FC000
180000
180000
000000
ENDCHAR
STARTCHAR U+031A
ENCODING 794
SWIDTH 500 0
DWIDTH 12 0
BBX 19 24 -3 -2
BITMAP 
000000
007F80
007F80
000300
000300
000300
000000
000000
000000
000000
000000
000000
000000
000000
000000
000000
000000
000000
000000
000000
000000
000000
000000
000000
ENDCHAR
STARTCHAR U+031B
ENCODING 795
SWIDTH 500 0
DWIDTH 12 0
BBX 19 24 -3 -2
BITMAP 
000000
000000
000000
000180
000180
000780
000600
000000
000000
000000
000000
000000
000000
000000
000000
000000
000000
000000
000000
000000
000000
000000
000000
000000
ENDCHAR
STARTCHAR U+031C
ENCODING 796
SWIDTH 500 0
DWIDTH 12 0
BBX 19 24 -3 -2
BITMAP 
000000
000000
000000
000000
000000
000000
000000
000000
000000
000000
000000
000000
000000
000000
000000
000000
000000
000000
000000
070000
0C0000
180000
0E0000
000000
ENDCHAR
STARTCHAR U+031D
ENCODING 797
SWIDTH 500 0
DWIDTH 12 0
BBX 19 24 -3 -2
BITMAP 
000000
000000
000000
000000
000000
000000
000000
000000
000000
000000
000000
000000
000000
000000
000000
000000
000000
018000
030000
030000
030000
1F8000
1F8000
000000
ENDCHAR
STARTCHAR U+031E
ENCODING 798
SWIDTH 500 0
DWIDTH 12 0
BBX 19 24 -3 -2
BITMAP 
000000
000000
000000
000000
000000
000000
000000
000000
000000
000000
000000
000000
000000
000000
000000
000000
000000
07E000
0FC000
030000
030000
060000
060000
000000
ENDCHAR
STARTCHAR U+031F
ENCODING 799
SWIDTH 500 0
DWIDTH 12 0
BBX 19 24 -3 -2
BITMAP 
000000
000000
000000
000000
000000
000000
000000
000000
000000
000000
000000
000000
000000
000000
000000
000000
000000
018000
030000
0FC000
0FC000
060000
060000
000000
ENDCHAR
STARTCHAR U+0320
ENCODING 800
SWIDTH 500 0
DWIDTH 12 0
BBX 19 24 -3 -2
BITMAP 
000000
000000
000000
000000
000000
000000
000000
000000
000000
000000
000000
000000
000000
000000
000000
000000
000000
000000
000000
000000
000000
1F8000
1F8000
000000
ENDCHAR
STARTCHAR U+0321
ENCODING 801
SWIDTH 500 0
DWIDTH 12 0
BBX 19 24 -3 -2
BITMAP 
000000
000000
000000
000000
000000
000000
000000
000000
000000
000000
000000
000000
000000
000000
000000
000000
001800
001800
003000
003000
01B000
01E000
00C000
000000
ENDCHAR
STARTCHAR U+0322
ENCODING 802
SWIDTH 500 0
DWIDTH 12 0
BBX 19 24 -3 -2
BITMAP 
000000
000000
000000
000000
000000
000000
000000
000000
000000
000000
000000
000000
000000
000000
000000
000000
006000
006000
00C000
00C000
00C000
01F000
00E000
000000
ENDCHAR
STARTCHAR U+0323
ENCODING 803
SWIDTH 500 0
DWIDTH 12 0
BBX 19 24 -3 -2
BITMAP 
000000
000000
000000
000000
000000
000000
000000
000000
000000
000000
000000
000000
000000
000000
000000
000000
000000
000000
000000
000000
000000
060000
060000
000000
ENDCHAR
STARTCHAR U+0324
ENCODING 804
SWIDTH 500 0
DWIDTH 12 0
BBX 19 24 -3 -2
BITMAP 
000000
000000
000000
000000
000000
000000
000000
000000
000000
000000
000000
000000
000000
000000
000000
000000
000000
000000
000000
000000
000000
18C000
18C000
000000
ENDCHAR
STARTCHAR U+0325
ENCODING 805
SWIDTH 500 0
DWIDTH 12 0
BBX 19 24 -3 -2
BITMAP 
000000
000000
000000
000000
000000
000000
000000
000000
000000
000000
000000
000000
000000
000000
000000
000000
000000
000000
000000
038000
06C000
0D8000
070000
000000
ENDCHAR
STARTCHAR U+0326
ENCODING 806
SWIDTH 500 0
DWIDTH 12 0
BBX 19 24 -3 -2
BITMAP 
000000
000000
000000
000000
000000
000000
000000
000000
000000
000000
000000
000000
000000
000000
000000
000000
000000
000000
070000
070000
010000
060000
0C0000
000000
ENDCHAR
STARTCHAR U+0327
ENCODING 807
SWIDTH 500 0
DWIDTH 12 0
BBX 19 24 -3 -2
BITMAP 
000000
000000
000000
000000
000000
000000
000000
000000
000000
000000
000000
000000
000000
000000
000000
000000
000000
000000
030000
030000
030000
018000
0F8000
0F0000
ENDCHAR
STARTCHAR U+0328
ENCODING 808
SWIDTH 500 0
DWIDTH 12 0
BBX 19 24 -3 -2
BITMAP 
000000
000000
000000
000000
000000
000000
000000
000000
000000
000000
000000
000000
000000
000000
000000
000000
000000
000000
00C000
018000
018000
03E000
01C000
000000
ENDCHAR
STARTCHAR U+0329
ENCODING 809
SWIDTH 500 0
DWIDTH 12 0
BBX 19 24 -3 -2
BITMAP 
000000
000000
000000
000000
000000
000000
000000
000000
000000
000000
000000
000000
000000
000000
000000
000000
000000
000000
000000
030000
030000
060000
060000
000000
ENDCHAR
STARTCHAR U+032A
ENCODING 810
SWIDTH 500 0
DWIDTH 12 0
BBX 19 24 -3 -2
BITMAP 
000000
000000
000000
000000
000000
000000
000000
000000
000000
000000
000000
000000
000000
000000
000000
000000
000000
000000
000000
1FE000
1FE000
30C000
30C000
000000
ENDCHAR
STARTCHAR U+032B
ENCODING 811
SWIDTH 500 0
DWIDTH 12 0
BBX 19 24 -3 -2
BITMAP 
000000
000000
000000
000000
000000
000000
000000
000000
000000
000000
000000
000000
000000
000000
000000
000000
000000
000000
333000
333000
333000
3FC000
198000
000000
ENDCHAR
STARTCHAR U+032C
ENCODING 812
SWIDTH 500 0
DWIDTH 12 0
BBX 19 24 -3 -2
BITMAP 
000000
000000
000000
000000
000000
000000
000000
000000
000000
000000
000000
000000
000000
000000
000000
000000
000000
000000
183000
0C6000
04C000
070000
020000
000000
ENDCHAR
STARTCHAR U+032D
ENCODING 813
SWIDTH 500 0
DWIDTH 12 0
BBX 19 24 -3 -2
BITMAP 
000000
000000
000000
000000
000000
000000
000000
000000
000000
000000
000000
000000
000000
000000
000000
000000
000000
000000
010000
038000
068000
18C000
306000
000000
ENDCHAR
STARTCHAR U+032E
ENCODING 814
SWIDTH 500 0
DWIDTH 12 0
BBX 19 24 -3 -2
BITMAP 
000000
000000
000000
000000
000000
000000
000000
000000
000000
000000
000000
000000
000000
000000
000000
000000
000000
000000
000000
000000
0C6000
18C000
0F8000
000000
ENDCHAR
STARTCHAR U+032F
ENCODING 815
SWIDTH 500 0
DWIDTH 12 0
BBX 19 24 -3 -2
BITMAP 
000000
000000
000000
000000
000000
000000
000000
000000
000000
000000
000000
000000
000000
000000
000000
000000
000000
000000
000000
000000
07C000
18C000
18C000
000000
ENDCHAR
STARTCHAR U+0330
ENCODING 816
SWIDTH 500 0
DWIDTH 12 0
BBX 19 24 -3 -2
BITMAP 
000000
000000
000000
000000
000000
000000
000000
000000
000000
000000
000000
000000
000000
000000
000000
000000
000000
000000
000000
000000
000000
1C2000
366000
23C000
ENDCHAR
STARTCHAR U+0331
ENCODING 817
SWIDTH 500 0
DWIDTH 12 0
BBX 19 24 -3 -2
BITMAP 
000000
000000
000000
000000
000000
000000
000000
000000
000000
000000
000000
000000
000000
000000
000000
000000
000000
000000
000000
000000
000000
3FC000
3FC000
000000
ENDCHAR
STARTCHAR U+0332
ENCODING 818
SWIDTH 500 0
DWIDTH 12 0
BBX 19 24 -3 -2
BITMAP 
000000
000000
000000
000000
000000
000000
000000
000000
000000
000000
000000
000000
000000
000000
000000
000000
000000
000000
000000
000000
7FF800
FFF000
000000
000000
ENDCHAR
STARTCHAR U+0333
ENCODING 819
SWIDTH 500 0
DWIDTH 12 0
BBX 19 24 -3 -2
BITMAP 
000000
000000
000000
000000
000000
000000
000000
000000
000000
000000
000000
000000
000000
000000
000000
000000
000000
000000
1FF000
1FF000
000000
3FE000
3FE000
000000
ENDCHAR
STARTCHAR U+0334
ENCODING 820
SWIDTH 500 0
DWIDTH 12 0
BBX 19 24 -3 -2
BITMAP 
000000
000000
000000
000000
000000
000000
000000
000000
000000
000000
03C200
06E200
08EC00
087800
000000
000000
000000
000000
000000
000000
000000
000000
000000
000000
ENDCHAR
STARTCHAR U+0335
ENCODING 821
SWIDTH 500 0
DWIDTH 12 0
BBX 19 24 -3 -2
BITMAP 
000000
000000
000000
000000
000000
000000
000000
000000
000000
000000
000000
03FC00
07F800
000000
000000
000000
000000
000000
000000
000000
000000
000000
000000
000000
ENDCHAR
STARTCHAR U+0336
ENCODING 822
SWIDTH 500 0
DWIDTH 12 0
BBX 19 24 -3 -2
BITMAP 
000000
000000
000000
000000
000000
000000
000000
000000
000000
000000
000000
0FFF00
1FFE00
000000
000000
000000
000000
000000
000000
000000
000000
000000
000000
000000
ENDCHAR
STARTCHAR U+0337
ENCODING 823
SWIDTH 500 0
DWIDTH 12 0
BBX 19 24 -3 -2
BITMAP 
000000
000000
000000
000000
000000
000000
000000
000000
000200
000C00
001800
003000
00C000
018000
030000
040000
080000
000000
000000
000000
000000
000000
000000
000000
ENDCHAR
STARTCHAR U+0338
ENCODING 824
SWIDTH 500 0
DWIDTH 12 0
BBX 19 24 -3 -2
BITMAP 
000000
000000
000000
000000
000100
000100
000200
000400
000C00
001000
003000
002000
004000
008000
018000
020000
060000
040000
080000
100000
100000
000000
000000
000000
ENDCHAR
STARTCHAR U+0339
ENCODING 825
SWIDTH 500 0
DWIDTH 12 0
BBX 19 24 -3 -2
BITMAP 
000000
000000
000000
000000
000000
000000
000000
000000
000000
000000
000000
000000
000000
000000
000000
000000
000000
000000
000000
038000
00C000
018000
070000
000000
ENDCHAR
STARTCHAR U+033A
ENCODING 826
SWIDTH 500 0
DWIDTH 12 0
BBX 19 24 -3 -2
BITMAP 
000000
000000
000000
000000
000000
000000
000000
000000
000000
000000
000000
000000
000000
000000
000000
000000
000000
000000
000000
186000
186000
3FC000
3FC000
000000
ENDCHAR
STARTCHAR U+033B
ENCODING 827
SWIDTH 500 0
DWIDTH 12 0
BBX 19 24 -3 -2
BITMAP 
000000
000000
000000
000000
000000
000000
000000
000000
000000
000000
000000
000000
000000
000000
000000
000000
000000
000000
000000
078000
048000
090000
0F0000
000000
ENDCHAR
STARTCHAR U+033C
ENCODING 828
SWIDTH 500 0
DWIDTH 12 0
BBX 19 24 -3 -2
BITMAP 
000000
000000
000000
000000
000000
000000
000000
000000
000000
000000
000000
000000
000000
000000
000000
000000
000000
000000
000000
0CC000
3FF000
462000
060000
000000
ENDCHAR
STARTCHAR U+033D
ENCODING 829
SWIDTH 500 0
DWIDTH 12 0
BBX 19 24 -3 -2
BITMAP 
004080
003300
001C00
006200
008100
000000
000000
000000
000000
000000
000000
000000
000000
000000
000000
000000
000000
000000
000000
000000
000000
000000
000000
000000
ENDCHAR
STARTCHAR U+033E
ENCODING 830
SWIDTH 500 0
DWIDTH 12 0
BBX 19 24 -3 -2
BITMAP 
000C00
001800
001800
001800
001800
003000
000000
000000
000000
000000
000000
000000
000000
000000
000000
000000
000000
000000
000000
000000
000000
000000
000000
000000
ENDCHAR
STARTCHAR U+033F
ENCODING 831
SWIDTH 500 0
DWIDTH 12 0
BBX 19 24 -3 -2
BITMAP 
000000
00FFC0
00FFC0
000000
01FF80
01FF80
000000
000000
000000
000000
000000
000000
000000
000000
000000
000000
000000
000000
000000
000000
000000
000000
000000
000000
ENDCHAR
STARTCHAR U+0340
ENCODING 832
SWIDTH 500 0
DWIDTH 12 0
BBX 19 24 -3 -2
BITMAP 
000000
001800
001800
000C00
000000
000000
000000
000000
000000
000000
000000
000000
000000
000000
000000
000000
000000
000000
000000
000000
000000
000000
000000
000000
ENDCHAR
STARTCHAR U+0341
ENCODING 833
SWIDTH 500 0
DWIDTH 12 0
BBX 19 24 -3 -2
BITMAP 
000000
000600
000E00
003000
000000
000000
000000
000000
000000
000000
000000
000000
000000
000000
000000
000000
000000
000000
000000
000000
000000
000000
000000
000000
ENDCHAR
STARTCHAR U+0342
ENCODING 834
SWIDTH 500 0
DWIDTH 12 0
BBX 19 24 -3 -2
BITMAP 
003900
002700
000000
000000
000000
000000
000000
000000
000000
000000
000000
000000
000000
000000
000000
000000
000000
000000
000000
000000
000000
000000
000000
000000
ENDCHAR
STARTCHAR U+0343
ENCODING 835
SWIDTH 500 0
DWIDTH 12 0
BBX 19 24 -3 -2
BITMAP 
000000
000000
000000
003800
003800
000800
003000
006000
000000
000000
000000
000000
000000
000000
000000
000000
000000
000000
000000
000000
000000
000000
000000
000000
ENDCHAR
STARTCHAR U+0344
ENCODING 836
SWIDTH 500 0
DWIDTH 12 0
BBX 19 24 -3 -2
BITMAP 
000000
000800
004900
01D700
009200
001000
000000
000000
000000
000000
000000
000000
000000
000000
000000
000000
000000
000000
000000
000000
000000
000000
000000
000000
ENDCHAR
STARTCHAR U+0345
ENCODING 837
SWIDTH 500 0
DWIDTH 12 0
BBX 19 24 -3 -2
BITMAP 
000000
000000
000000
000000
000000
000000
000000
000000
000000
000000
000000
000000
000000
000000
000000
000000
000000
000000
000000
000000
060000
0C0000
0C0000
070000
ENDCHAR
STARTCHAR U+0346
ENCODING 838
SWIDTH 500 0
DWIDTH 12 0
BBX 19 24 -3 -2
BITMAP 
000000
003F00
003F00
006600
006600
000000
000000
000000
000000
000000
000000
000000
000000
000000
000000
000000
000000
000000
000000
000000
000000
000000
000000
000000
ENDCHAR
STARTCHAR U+0347
ENCODING 839
SWIDTH 500 0
DWIDTH 12 0
BBX 19 24 -3 -2
BITMAP 
000000
000000
000000
000000
000000
000000
000000
000000
000000
000000
000000
000000
000000
000000
000000
000000
000000
000000
0FC000
0FC000
000000
1F8000
1F8000
000000
ENDCHAR
STARTCHAR U+0348
ENCODING 840
SWIDTH 500 0
DWIDTH 12 0
BBX 19 24 -3 -2
BITMAP 
000000
000000
000000
000000
000000
000000
000000
000000
000000
000000
000000
000000
000000
000000
000000
000000
000000
000000
0CC000
0CC000
0CC000
198000
198000
000000
ENDCHAR
STARTCHAR U+0349
ENCODING 841
SWIDTH 500 0
DWIDTH 12 0
BBX 19 24 -3 -2
BITMAP 
000000
000000
000000
000000
000000
000000
000000
000000
000000
000000
000000
000000
000000
000000
000000
000000
000000
000000
000000
0FC000
0FC000
018000
018000
000000
ENDCHAR
STARTCHAR U+034A
ENCODING 842
SWIDTH 500 0
DWIDTH 12 0
BBX 19 24 -3 -2
BITMAP 
000000
000200
003C80
005B00
009E00
002000
000000
000000
000000
000000
000000
000000
000000
000000
000000
000000
000000
000000
000000
000000
000000
000000
000000
000000
ENDCHAR
STARTCHAR U+034B
ENCODING 843
SWIDTH 500 0
DWIDTH 12 0
BBX 19 24 -3 -2
BITMAP 
000600
000600
007840
009980
010F00
003000
006000
000000
000000
000000
000000
000000
000000
000000
000000
000000
000000
000000
000000
000000
000000
000000
000000
000000
ENDCHAR
STARTCHAR U+034C
ENCODING 844
SWIDTH 500 0
DWIDTH 12 0
BBX 19 24 -3 -2
BITMAP 
000000
003800
004C80
007600
008900
000600
000000
000000
000000
000000
000000
000000
000000
000000
000000
000000
000000
000000
000000
000000
000000
000000
000000
000000
ENDCHAR
STARTCHAR U+034D
ENCODING 845
SWIDTH 500 0
DWIDTH 12 0
BBX 19 24 -3 -2
BITMAP 
000000
000000
000000
000000
000000
000000
000000
000000
000000
000000
000000
000000
000000
000000
000000
000000
000000
0C2000
102000
3FF000
3FF000
204000
108000
000000
ENDCHAR
STARTCHAR U+034E
ENCODING 846
SWIDTH 500 0
DWIDTH 12 0
BBX 19 24 -3 -2
BITMAP 
000000
000000
000000
000000
000000
000000
000000
000000
000000
000000
000000
000000
000000
000000
000000
000000
000000
018000
078000
0FC000
0B4000
060000
060000
000000
ENDCHAR
STARTCHAR U+0374
ENCODING 884
SWIDTH 500 0
DWIDTH 12 0
BBX 19 24 -3 -2
BITMAP 
000000
000000
000000
000000
000000
001C00
003800
007000
006000
008000
010000
000000
000000
000000
000000
000000
000000
000000
000000
000000
000000
000000
000000
000000
ENDCHAR
STARTCHAR U+0375
ENCODING 885
SWIDTH 500 0
DWIDTH 12 0
BBX 19 24 -3 -2
BITMAP 
000000
000000
000000
000000
000000
000000
000000
000000
000000
000000
000000
000000
000000
000000
000000
000000
000000
01C000
038000
070000
060000
080000
100000
000000
ENDCHAR
STARTCHAR U+037A
ENCODING 890
SWIDTH 500 0
DWIDTH 12 0
BBX 19 24 -3 -2
BITMAP 
000000
000000
000000
000000
000000
000000
000000
000000
000000
000000
000000
000000
000000
000000
000000
000000
000000
000000
000000
000000
060000
0C0000
0C0000
070000
ENDCHAR
STARTCHAR U+037E
ENCODING 894
SWIDTH 500 0
DWIDTH 12 0
BBX 19 24 -3 -2
BITMAP 
000000
000000
000000
000000
000000
000000
000000
000000
000000
000000
000000
006000
00C000
000000
000000
000000
000000
000000
060000
070000
030000
020000
060000
040000
ENDCHAR
STARTCHAR U+0384
ENCODING 900
SWIDTH 500 0
DWIDTH 12 0
BBX 19 24 -3 -2
BITMAP 
000C00
000C00
000C00
001800
000000
000000
000000
000000
000000
000000
000000
000000
000000
000000
000000
000000
000000
000000
000000
000000
000000
000000
000000
000000
ENDCHAR
STARTCHAR U+0385
ENCODING 901
SWIDTH 500 0
DWIDTH 12 0
BBX 19 24 -3 -2
BITMAP 
000C00
000C00
000C00
001800
000000
000000
00CC00
00CC00
000000
000000
000000
000000
000000
000000
000000
000000
000000
000000
000000
000000
000000
000000
000000
000000
ENDCHAR
STARTCHAR U+0386
ENCODING 902
SWIDTH 500 0
DWIDTH 12 0
BBX 19 24 -3 -2
BITMAP 
00C000
00C000
00C000
018000
000000
001C00
003800
003800
006C00
00D800
00D800
018C00
031800
03F800
03F800
0C1800
0C1800
0C1800
183000
000000
000000
000000
000000
000000
ENDCHAR
STARTCHAR U+0387
ENCODING 903
SWIDTH 500 0
DWIDTH 12 0
BBX 19 24 -3 -2
BITMAP 
000000
000000
000000
000000
000000
000000
000000
000000
000000
000000
000000
004000
01C000
008000
000000
000000
000000
000000
000000
000000
000000
000000
000000
000000
ENDCHAR
STARTCHAR U+0388
ENCODING 904
SWIDTH 500 0
DWIDTH 12 0
BBX 19 24 -3 -2
BITMAP 
00C000
00C000
00C000
018000
000000
00FF80
01FF00
018000
018000
030000
030000
03F800
07F000
060000
060000
0C0000
0C0000
0FF800
1FF000
000000
000000
000000
000000
000000
ENDCHAR
STARTCHAR U+0389
ENCODING 905
SWIDTH 500 0
DWIDTH 12 0
BBX 19 24 -3 -2
BITMAP 
00C000
00C000
00C000
018000
000000
00C180
018300
018300
018300
030600
030600
03FE00
07FC00
060C00
060C00
0C1800
0C1800
0C1800
183000
000000
000000
000000
000000
000000
ENDCHAR
STARTCHAR U+038A
ENCODING 906
SWIDTH 500 0
DWIDTH 12 0
BBX 19 24 -3 -2
BITMAP 
00C000
00C000
00C000
018000
000000
007E00
00FC00
003000
003000
006000
006000
006000
00C000
00C000
00C000
018000
018000
07E000
0FC000
000000
000000
000000
000000
000000
ENDCHAR
STARTCHAR U+038C
ENCODING 908
SWIDTH 500 0
DWIDTH 12 0
BBX 19 24 -3 -2
BITMAP 
00C000
00C000
00C000
018000
000000
003E00
00FE00
01C700
018300
030600
030600
030600
060C00
060C00
060C00
0C1800
0E3800
07F000
07C000
000000
000000
000000
000000
000000
ENDCHAR
STARTCHAR U+038E
ENCODING 910
SWIDTH 500 0
DWIDTH 12 0
BBX 19 24 -3 -2
BITMAP 
00C000
00C000
00C000
018000
000000
018180
030300
018600
018600
019800
01F800
00F000
00C000
00C000
00C000
018000
018000
018000
030000
000000
000000
000000
000000
000000
ENDCHAR
STARTCHAR U+038F
ENCODING 911
SWIDTH 500 0
DWIDTH 12 0
BBX 19 24 -3 -2
BITMAP 
00C000
00C000
00C000
018000
000000
003E00
00FE00
01C700
018300
030600
030600
030600
060C00
060C00
071C00
063000
036000
036000
1EF000
1EF000
000000
000000
000000
000000
ENDCHAR
STARTCHAR U+0390
ENCODING 912
SWIDTH 500 0
DWIDTH 12 0
BBX 19 24 -3 -2
BITMAP 
000C00
000C00
000C00
001800
000000
000000
00CC00
00CC00
000000
006000
006000
006000
00C000
00C000
00C000
018000
018000
01E000
01C000
000000
000000
000000
000000
000000
ENDCHAR
STARTCHAR U+0391
ENCODING 913
SWIDTH 500 0
DWIDTH 12 0
BBX 19 24 -3 -2
BITMAP 
000000
000000
000000
000000
000000
001C00
003800
003800
006C00
00D800
00D800
018C00
031800
03F800
03F800
0C1800
0C1800
0C1800
183000
000000
000000
000000
000000
000000
ENDCHAR
STARTCHAR U+0392
ENCODING 914
SWIDTH 500 0
DWIDTH 12 0
BBX 19 24 -3 -2
BITMAP 
000000
000000
000000
000000
000000
00FC00
01FC00
018E00
018600
030C00
031800
03F800
07F800
061800
060C00
0C1800
0C3800
0FF000
1FC000
000000
000000
000000
000000
000000
ENDCHAR
STARTCHAR U+0393
ENCODING 915
SWIDTH 500 0
DWIDTH 12 0
BBX 19 24 -3 -2
BITMAP 
000000
000000
000000
000000
000000
00FF80
01FF00
018000
018000
030000
030000
030000
060000
060000
060000
0C0000
0C0000
0C0000
180000
000000
000000
000000
000000
000000
ENDCHAR
STARTCHAR U+0394
ENCODING 916
SWIDTH 500 0
DWIDTH 12 0
BBX 19 24 -3 -2
BITMAP 
000000
000000
000000
000000
000000
001C00
003800
003800
006C00
00D800
00D800
018C00
031800
031800
060C00
0C1800
0C1800
0FF800
1FF000
000000
000000
000000
000000
000000
ENDCHAR
STARTCHAR U+0395
ENCODING 917
SWIDTH 500 0
DWIDTH 12 0
BBX 19 24 -3 -2
BITMAP 
000000
000000
000000
000000
000000
00FF80
01FF00
018000
018000
030000
030000
03F800
07F000
060000
060000
0C0000
0C0000
0FF800
1FF000
000000
000000
000000
000000
000000
ENDCHAR
STARTCHAR U+0396
ENCODING 918
SWIDTH 500 0
DWIDTH 12 0
BBX 19 24 -3 -2
BITMAP 
000000
000000
000000
000000
000000
01FF80
03FF00
000300
000700
001C00
003800
007000
01C000
038000
070000
1C0000
180000
1FF800
3FF000
000000
000000
000000
000000
000000
ENDCHAR
STARTCHAR U+0397
ENCODING 919
SWIDTH 500 0
DWIDTH 12 0
BBX 19 24 -3 -2
BITMAP 
000000
000000
000000
000000
000000
00C180
018300
018300
018300
030600
030600
03FE00
07FC00
060C00
060C00
0C1800
0C1800
0C1800
183000
000000
000000
000000
000000
000000
ENDCHAR
STARTCHAR U+0398
ENCODING 920
SWIDTH 500 0
DWIDTH 12 0
BBX 19 24 -3 -2
BITMAP 
000000
000000
000000
000000
000000
003E00
00FE00
01C700
018300
030600
030600
037600
06EC00
060C00
060C00
0C1800
0E3800
07F000
07C000
000000
000000
000000
000000
000000
ENDCHAR
STARTCHAR U+0399
ENCODING 921
SWIDTH 500 0
DWIDTH 12 0
BBX 19 24 -3 -2
BITMAP 
000000
000000
000000
000000
000000
007E00
00FC00
003000
003000
006000
006000
006000
00C000
00C000
00C000
018000
018000
07E000
0FC000
000000
000000
000000
000000
000000
ENDCHAR
STARTCHAR U+039A
ENCODING 922
SWIDTH 500 0
DWIDTH 12 0
BBX 19 24 -3 -2
BITMAP 
000000
000000
000000
000000
000000
00C180
018600
018C00
019800
036000
03C000
038000
078000
06C000
064000
0C6000
0C3000
0C1000
181000
000000
000000
000000
000000
000000
ENDCHAR
STARTCHAR U+039B
ENCODING 923
SWIDTH 500 0
DWIDTH 12 0
BBX 19 24 -3 -2
BITMAP 
000000
000000
000000
000000
000000
001C00
003800
003800
006C00
00D800
00D800
018C00
031800
031800
031800
0C1800
0C1800
0C1800
183000
000000
000000
000000
000000
000000
ENDCHAR
STARTCHAR U+039C
ENCODING 924
SWIDTH 500 0
DWIDTH 12 0
BBX 19 24 -3 -2
BITMAP 
000000
000000
000000
000000
000000
00C180
01C700
01C700
01EF00
03FE00
037600
037600
064C00
060C00
060C00
0C1800
0C1800
0C1800
183000
000000
000000
000000
000000
000000
ENDCHAR
STARTCHAR U+039D
ENCODING 925
SWIDTH 500 0
DWIDTH 12 0
BBX 19 24 -3 -2
BITMAP 
000000
000000
000000
000000
000000
00C180
01C300
01C300
01E300
03C600
036600
036600
066C00
066C00
063C00
0C7800
0C3800
0C3800
183000
000000
000000
000000
000000
000000
ENDCHAR
STARTCHAR U+039E
ENCODING 926
SWIDTH 500 0
DWIDTH 12 0
BBX 19 24 -3 -2
BITMAP 
000000
000000
000000
000000
000000
00FF80
01FF00
000000
000000
000000
000000
01FC00
03F800
000000
000000
000000
000000
0FF800
1FF000
000000
000000
000000
000000
000000
ENDCHAR
STARTCHAR U+039F
ENCODING 927
SWIDTH 500 0
DWIDTH 12 0
BBX 19 24 -3 -2
BITMAP 
000000
000000
000000
000000
000000
003E00
00FE00
01C300
018300
030600
030600
030600
060C00
060C00
060C00
0C1800
0E3800
07F000
07C000
000000
000000
000000
000000
000000
ENDCHAR
STARTCHAR U+03A0
ENCODING 928
SWIDTH 500 0
DWIDTH 12 0
BBX 19 24 -3 -2
BITMAP 
000000
000000
000000
000000
000000
01FF80
03FF00
018600
018600
030C00
030C00
030C00
061800
061800
061800
0C3000
0C3000
0C3000
186000
000000
000000
000000
000000
000000
ENDCHAR
STARTCHAR U+03A1
ENCODING 929
SWIDTH 500 0
DWIDTH 12 0
BBX 19 24 -3 -2
BITMAP 
000000
000000
000000
000000
000000
00FE00
01FE00
018700
018300
030600
030E00
03FC00
07F000
060000
060000
0C0000
0C0000
0C0000
180000
000000
000000
000000
000000
000000
ENDCHAR
STARTCHAR U+03A3
ENCODING 931
SWIDTH 500 0
DWIDTH 12 0
BBX 19 24 -3 -2
BITMAP 
000000
000000
000000
000000
000000
00FF80
01FF00
01C000
00E000
00E000
007000
003800
007000
00E000
01C000
070000
0E0000
0FF800
1FF000
000000
000000
000000
000000
000000
ENDCHAR
STARTCHAR U+03A4
ENCODING 932
SWIDTH 500 0
DWIDTH 12 0
BBX 19 24 -3 -2
BITMAP 
000000
000000
000000
000000
000000
01FF80
03FF00
003000
003000
006000
006000
006000
00C000
00C000
00C000
018000
018000
018000
030000
000000
000000
000000
000000
000000
ENDCHAR
STARTCHAR U+03A5
ENCODING 933
SWIDTH 500 0
DWIDTH 12 0
BBX 19 24 -3 -2
BITMAP 
000000
000000
000000
000000
000000
018180
030300
018600
018600
019800
01F800
00F000
00C000
00C000
00C000
018000
018000
018000
030000
000000
000000
000000
000000
000000
ENDCHAR
STARTCHAR U+03A6
ENCODING 934
SWIDTH 500 0
DWIDTH 12 0
BBX 19 24 -3 -2
BITMAP 
000000
000000
000000
000000
000000
001800
003000
00FC00
01FC00
066600
066600
066600
0CCC00
0CCC00
0CCC00
0FF000
07E000
018000
030000
000000
000000
000000
000000
000000
ENDCHAR
STARTCHAR U+03A7
ENCODING 935
SWIDTH 500 0
DWIDTH 12 0
BBX 19 24 -3 -2
BITMAP 
000000
000000
000000
000000
000000
00C180
018300
00C600
00C600
00D800
00D800
007000
00E000
01B000
01B000
063000
063000
0C1800
183000
000000
000000
000000
000000
000000
ENDCHAR
STARTCHAR U+03A8
ENCODING 936
SWIDTH 500 0
DWIDTH 12 0
BBX 19 24 -3 -2
BITMAP 
000000
000000
000000
000000
000000
019980
033300
033300
033300
066600
066600
076E00
07F800
03F000
00C000
018000
018000
018000
030000
000000
000000
000000
000000
000000
ENDCHAR
STARTCHAR U+03A9
ENCODING 937
SWIDTH 500 0
DWIDTH 12 0
BBX 19 24 -3 -2
BITMAP 
000000
000000
000000
000000
000000
003E00
00FE00
01C700
018300
030600
030600
030600
060C00
071C00
031800
036000
036000
0F7800
1EF000
000000
000000
000000
000000
000000
ENDCHAR
STARTCHAR U+03AA
ENCODING 938
SWIDTH 500 0
DWIDTH 12 0
BBX 19 24 -3 -2
BITMAP 
000000
003300
003300
000000
000000
007E00
00FC00
003000
003000
006000
006000
006000
00C000
00C000
00C000
018000
018000
07E000
0FC000
000000
000000
000000
000000
000000
ENDCHAR
STARTCHAR U+03AB
ENCODING 939
SWIDTH 500 0
DWIDTH 12 0
BBX 19 24 -3 -2
BITMAP 
000000
003300
003300
000000
000000
018180
030300
018600
018600
019800
01F800
00F000
00C000
00C000
00C000
018000
018000
018000
030000
000000
000000
000000
000000
000000
ENDCHAR
STARTCHAR U+03AC
ENCODING 940
SWIDTH 500 0
DWIDTH 12 0
BBX 19 24 -3 -2
BITMAP 
000000
000000
000000
001800
001800
001800
003000
000000
000000
01C600
03E600
062400
0C3800
0C3000
0C3000
187000
18D000
0F9800
0E3000
000000
000000
000000
000000
000000
ENDCHAR
STARTCHAR U+03AD
ENCODING 941
SWIDTH 500 0
DWIDTH 12 0
BBX 19 24 -3 -2
BITMAP 
000000
000000
000000
001800
001800
001800
003000
000000
000000
00F800
01FC00
030000
060000
07F000
07F000
0C0000
0C0000
07F000
07C000
000000
000000
000000
000000
000000
ENDCHAR
STARTCHAR U+03AE
ENCODING 942
SWIDTH 500 0
DWIDTH 12 0
BBX 19 24 -3 -2
BITMAP 
000000
000000
000000
001800
001800
001800
003000
000000
000000
033800
037C00
03C600
070C00
060C00
060C00
0C1800
0C1800
0C1800
183000
003000
003000
006000
006000
006000
ENDCHAR
STARTCHAR U+03AF
ENCODING 943
SWIDTH 500 0
DWIDTH 12 0
BBX 19 24 -3 -2
BITMAP 
000000
000000
000000
001800
001800
001800
003000
000000
000000
006000
006000
006000
00C000
00C000
00C000
018000
018000
01E000
01C000
000000
000000
000000
000000
000000
ENDCHAR
STARTCHAR U+03B0
ENCODING 944
SWIDTH 500 0
DWIDTH 12 0
BBX 19 24 -3 -2
BITMAP 
000C00
000C00
000C00
001800
000000
006300
00C600
000000
000000
030600
030600
030600
060C00
060C00
060C00
0C1800
0E3800
07F000
07C000
000000
000000
000000
000000
000000
ENDCHAR
STARTCHAR U+03B1
ENCODING 945
SWIDTH 500 0
DWIDTH 12 0
BBX 19 24 -3 -2
BITMAP 
000000
000000
000000
000000
000000
000000
000000
000000
000000
01C600
03E600
062400
0C3800
0C3000
0C3000
187000
18D000
0F9800
0E3000
000000
000000
000000
000000
000000
ENDCHAR
STARTCHAR U+03B2
ENCODING 946
SWIDTH 500 0
DWIDTH 12 0
BBX 19 24 -3 -2
BITMAP 
000000
000000
000000
000000
000000
003800
00FC00
01CE00
018600
030C00
030C00
03F800
07F800
060C00
060C00
0C1800
0C3800
0FF000
1FC000
180000
180000
300000
300000
000000
ENDCHAR
STARTCHAR U+03B3
ENCODING 947
SWIDTH 500 0
DWIDTH 12 0
BBX 19 24 -3 -2
BITMAP 
000000
000000
000000
000000
000000
000000
000000
000000
000000
01C600
03C600
036C00
00D800
007000
007000
00C000
00C000
018000
030000
060000
060000
000000
000000
000000
ENDCHAR
STARTCHAR U+03B4
ENCODING 948
SWIDTH 500 0
DWIDTH 12 0
BBX 19 24 -3 -2
BITMAP 
000000
000000
000000
000000
000000
003E00
00FC00
00C000
00C000
00C000
00F800
01FC00
071C00
060C00
060C00
0C1800
0E3800
07F000
07C000
000000
000000
000000
000000
000000
ENDCHAR
STARTCHAR U+03B5
ENCODING 949
SWIDTH 500 0
DWIDTH 12 0
BBX 19 24 -3 -2
BITMAP 
000000
000000
000000
000000
000000
000000
000000
000000
000000
00F800
01FC00
038000
060000
07F000
07F000
0C0000
0E0000
07F000
07C000
000000
000000
000000
000000
000000
ENDCHAR
STARTCHAR U+03B6
ENCODING 950
SWIDTH 500 0
DWIDTH 12 0
BBX 19 24 -3 -2
BITMAP 
000000
000000
000000
000000
000000
007E00
00FC00
003800
003000
00E000
00C000
01C000
030000
030000
060000
0C0000
0C0000
0FE000
0FE000
003000
003000
006000
07C000
078000
ENDCHAR
STARTCHAR U+03B7
ENCODING 951
SWIDTH 500 0
DWIDTH 12 0
BBX 19 24 -3 -2
BITMAP 
000000
000000
000000
000000
000000
000000
000000
000000
000000
033800
037C00
03C600
070C00
060C00
060C00
0C1800
0C1800
0C1800
183000
003000
003000
006000
006000
006000
ENDCHAR
STARTCHAR U+03B8
ENCODING 952
SWIDTH 500 0
DWIDTH 12 0
BBX 19 24 -3 -2
BITMAP 
000000
000000
000000
000000
000000
003C00
00FC00
00CC00
018600
030C00
030C00
03FC00
07F800
061800
061800
0C3000
066000
07E000
078000
000000
000000
000000
000000
000000
ENDCHAR
STARTCHAR U+03B9
ENCODING 953
SWIDTH 500 0
DWIDTH 12 0
BBX 19 24 -3 -2
BITMAP 
000000
000000
000000
000000
000000
000000
000000
000000
000000
006000
006000
006000
00C000
00C000
00C000
018000
018000
01E000
01C000
000000
000000
000000
000000
000000
ENDCHAR
STARTCHAR U+03BA
ENCODING 954
SWIDTH 500 0
DWIDTH 12 0
BBX 19 24 -3 -2
BITMAP 
000000
000000
000000
000000
000000
000000
000000
000000
000000
030C00
031C00
033800
06E000
07C000
07C000
0DC000
0CE000
0C7000
186000
000000
000000
000000
000000
000000
ENDCHAR
STARTCHAR U+03BB
ENCODING 955
SWIDTH 500 0
DWIDTH 12 0
BBX 19 24 -3 -2
BITMAP 
000000
000000
000000
000000
000000
007000
00E000
003000
003000
003000
003000
007800
00F000
01B000
019800
063000
063000
0C1800
183000
000000
000000
000000
000000
000000
ENDCHAR
STARTCHAR U+03BC
ENCODING 956
SWIDTH 500 0
DWIDTH 12 0
BBX 19 24 -3 -2
BITMAP 
000000
000000
000000
000000
000000
000000
000000
000000
000000
030600
030600
030600
060C00
060C00
071C00
0F7800
0FF800
0DD800
183000
180000
180000
300000
300000
300000
ENDCHAR
STARTCHAR U+03BD
ENCODING 957
SWIDTH 500 0
DWIDTH 12 0
BBX 19 24 -3 -2
BITMAP 
000000
000000
000000
000000
000000
000000
000000
000000
000000
030600
030600
030600
060C00
061C00
061800
0C7000
0DE000
0FC000
1E0000
000000
000000
000000
000000
000000
ENDCHAR
STARTCHAR U+03BE
ENCODING 958
SWIDTH 500 0
DWIDTH 12 0
BBX 19 24 -3 -2
BITMAP 
000000
000000
000000
000000
000000
006000
00C000
007E00
00FE00
030000
030000
030000
03FC00
03FC00
060000
0C0000
0C0000
07E000
07E000
003000
003000
006000
0FC000
0F8000
ENDCHAR
STARTCHAR U+03BF
ENCODING 959
SWIDTH 500 0
DWIDTH 12 0
BBX 19 24 -3 -2
BITMAP 
000000
000000
000000
000000
000000
000000
000000
000000
000000
00F800
01FC00
038E00
060C00
060C00
060C00
0C1800
0E3800
07F000
07C000
000000
000000
000000
000000
000000
ENDCHAR
STARTCHAR U+03C0
ENCODING 960
SWIDTH 500 0
DWIDTH 12 0
BBX 19 24 -3 -2
BITMAP 
000000
000000
000000
000000
000000
000000
000000
000000
000000
07FE00
07FE00
019800
033000
033000
033000
066000
066000
066000
0CC000
000000
000000
000000
000000
000000
ENDCHAR
STARTCHAR U+03C1
ENCODING 961
SWIDTH 500 0
DWIDTH 12 0
BBX 19 24 -3 -2
BITMAP 
000000
000000
000000
000000
000000
000000
000000
000000
000000
00F800
01FC00
038E00
060C00
060C00
060C00
0C1800
0E3800
0FF000
1BC000
180000
180000
300000
300000
300000
ENDCHAR
STARTCHAR U+03C2
ENCODING 962
SWIDTH 500 0
DWIDTH 12 0
BBX 19 24 -3 -2
BITMAP 
000000
000000
000000
000000
000000
000000
000000
000000
000000
00FC00
01FE00
038600
060000
060000
060000
0E0000
070000
03F000
03F000
003000
0FF000
1FC000
000000
000000
ENDCHAR
STARTCHAR U+03C3
ENCODING 963
SWIDTH 500 0
DWIDTH 12 0
BBX 19 24 -3 -2
BITMAP 
000000
000000
000000
000000
000000
000000
000000
000000
000000
01FE00
03FE00
073000
0C3000
0C3000
0C3000
186000
1CE000
0FC000
0F0000
000000
000000
000000
000000
000000
ENDCHAR
STARTCHAR U+03C4
ENCODING 964
SWIDTH 500 0
DWIDTH 12 0
BBX 19 24 -3 -2
BITMAP 
000000
000000
000000
000000
000000
000000
000000
000000
000000
03FC00
03FC00
006000
00C000
00C000
00C000
018000
018000
018000
030000
000000
000000
000000
000000
000000
ENDCHAR
STARTCHAR U+03C5
ENCODING 965
SWIDTH 500 0
DWIDTH 12 0
BBX 19 24 -3 -2
BITMAP 
000000
000000
000000
000000
000000
000000
000000
000000
000000
030600
030600
030600
060C00
060C00
060C00
0C1800
0E3800
07F000
07C000
000000
000000
000000
000000
000000
ENDCHAR
STARTCHAR U+03C6
ENCODING 966
SWIDTH 500 0
DWIDTH 12 0
BBX 19 24 -3 -2
BITMAP 
000000
000000
000000
000000
000000
000000
000000
000000
000000
01F800
03FC00
076E00
0CCC00
0CCC00
0CCC00
199800
1DB800
0FF000
0FC000
030000
030000
060000
060000
060000
ENDCHAR
STARTCHAR U+03C7
ENCODING 967
SWIDTH 500 0
DWIDTH 12 0
BBX 19 24 -3 -2
BITMAP 
000000
000000
000000
000000
000000
000000
000000
000000
000000
030600
030600
018C00
031800
01B000
01B000
01C000
01C000
01C000
06C000
06C000
0C6000
18C000
306000
306000
ENDCHAR
STARTCHAR U+03C8
ENCODING 968
SWIDTH 500 0
DWIDTH 12 0
BBX 19 24 -3 -2
BITMAP 
000000
000000
000000
000000
000000
000000
003000
003000
003000
066600
066600
066600
0CCC00
0CCC00
0CCC00
199800
1DB800
0FF000
0FC000
030000
030000
060000
060000
060000
ENDCHAR
STARTCHAR U+03C9
ENCODING 969
SWIDTH 500 0
DWIDTH 12 0
BBX 19 24 -3 -2
BITMAP 
000000
000000
000000
000000
000000
000000
000000
000000
000000
030C00
030C00
060600
0CCC00
0CCC00
0CCC00
199800
199800
0FF000
0CC000
000000
000000
000000
000000
000000
ENDCHAR
STARTCHAR U+03CA
ENCODING 970
SWIDTH 500 0
DWIDTH 12 0
BBX 19 24 -3 -2
BITMAP 
000000
000000
000000
000000
000000
006600
00CC00
000000
000000
006000
006000
006000
00C000
00C000
00C000
018000
018000
01E000
01C000
000000
000000
000000
000000
000000
ENDCHAR
STARTCHAR U+03CB
ENCODING 971
SWIDTH 500 0
DWIDTH 12 0
BBX 19 24 -3 -2
BITMAP 
000000
000000
000000
000000
000000
006300
00C600
000000
000000
030600
030600
030600
060C00
060C00
060C00
0C1800
0E3800
07F000
07C000
000000
000000
000000
000000
000000
ENDCHAR
STARTCHAR U+03CC
ENCODING 972
SWIDTH 500 0
DWIDTH 12 0
BBX 19 24 -3 -2
BITMAP 
000000
000000
000000
001800
001800
001800
003000
000000
000000
00F800
01FC00
038E00
060C00
060C00
060C00
0C1800
0E3800
07F000
07C000
000000
000000
000000
000000
000000
ENDCHAR
STARTCHAR U+03CD
ENCODING 973
SWIDTH 500 0
DWIDTH 12 0
BBX 19 24 -3 -2
BITMAP 
000000
000000
000000
001800
001800
001800
003000
000000
000000
030600
030600
030600
060C00
060C00
060C00
0C1800
0E3800
07F000
07C000
000000
000000
000000
000000
000000
ENDCHAR
STARTCHAR U+03CE
ENCODING 974
SWIDTH 500 0
DWIDTH 12 0
BBX 19 24 -3 -2
BITMAP 
000000
000000
000000
001800
001800
001800
003000
000000
000000
030C00
030C00
060600
0C0C00
0CCC00
0CCC00
199800
199800
0FF000
0CC000
000000
000000
000000
000000
000000
ENDCHAR
STARTCHAR U+0401
ENCODING 1025
SWIDTH 500 0
DWIDTH 12 0
BBX 19 24 -3 -2
BITMAP 
000000
003180
003180
000000
000000
00FF80
01FF00
018000
018000
030000
030000
03F800
07F000
060000
060000
0C0000
0C0000
0FF800
1FF000
000000
000000
000000
000000
000000
ENDCHAR
STARTCHAR U+0402
ENCODING 1026
SWIDTH 500 0
DWIDTH 12 0
BBX 19 24 -3 -2
BITMAP 
000000
000000
000000
000000
000000
01FF00
03FE00
006000
006000
00C000
00C000
00FC00
01FC00
018C00
018C00
031800
031800
03F800
07E000
000000
000000
000000
000000
000000
ENDCHAR
STARTCHAR U+0403
ENCODING 1027
SWIDTH 500 0
DWIDTH 12 0
BBX 19 24 -3 -2
BITMAP 
000600
000E00
001800
000000
000000
00FF80
01FF00
018000
018000
030000
030000
030000
060000
060000
060000
0C0000
0C0000
0C0000
180000
000000
000000
000000
000000
000000
ENDCHAR
STARTCHAR U+0404
ENCODING 1028
SWIDTH 500 0
DWIDTH 12 0
BBX 19 24 -3 -2
BITMAP 
000000
000000
000000
000000
000000
003E00
00FE00
01C600
018300
030000
030000
03F800
07F000
060000
060000
0C1800
0E3800
07F000
07C000
000000
000000
000000
000000
000000
ENDCHAR
STARTCHAR U+0405
ENCODING 1029
SWIDTH 500 0
DWIDTH 12 0
BBX 19 24 -3 -2
BITMAP 
000000
000000
000000
000000
000000
003E00
00FE00
018700
018300
030000
038000
01F800
01F800
001C00
000C00
0C1800
0C3800
0FF000
0FC000
000000
000000
000000
000000
000000
ENDCHAR
STARTCHAR U+0406
ENCODING 1030
SWIDTH 500 0
DWIDTH 12 0
BBX 19 24 -3 -2
BITMAP 
000000
000000
000000
000000
000000
007E00
00FC00
003000
003000
006000
006000
006000
00C000
00C000
00C000
018000
018000
07E000
0FC000
000000
000000
000000
000000
000000
ENDCHAR
STARTCHAR U+0407
ENCODING 1031
SWIDTH 500 0
DWIDTH 12 0
BBX 19 24 -3 -2
BITMAP 
000000
003300
003300
000000
000000
007E00
00FC00
003000
003000
006000
006000
006000
00C000
00C000
00C000
018000
018000
07E000
0FC000
000000
000000
000000
000000
000000
ENDCHAR
STARTCHAR U+0408
ENCODING 1032
SWIDTH 500 0
DWIDTH 12 0
BBX 19 24 -3 -2
BITMAP 
000000
000000
000000
000000
000000
000180
000300
000300
000300
000600
000600
000600
000C00
000C00
000C00
0C1800
0C3800
07F000
07C000
000000
000000
000000
000000
000000
ENDCHAR
STARTCHAR U+0409
ENCODING 1033
SWIDTH 500 0
DWIDTH 12 0
BBX 19 24 -3 -2
BITMAP 
000000
000000
000000
000000
000000
007C00
00F800
00D800
00D800
01B000
01B000
01BC00
037C00
036C00
036C00
06D800
06D800
1EF800
31E000
000000
000000
000000
000000
000000
ENDCHAR
STARTCHAR U+040A
ENCODING 1034
SWIDTH 500 0
DWIDTH 12 0
BBX 19 24 -3 -2
BITMAP 
000000
000000
000000
000000
000000
019800
033000
033000
033000
066000
066000
07FC00
0FFC00
0CCC00
0CCC00
199800
199800
19F800
33E000
000000
000000
000000
000000
000000
ENDCHAR
STARTCHAR U+040B
ENCODING 1035
SWIDTH 500 0
DWIDTH 12 0
BBX 19 24 -3 -2
BITMAP 
000000
000000
000000
000000
000000
01FF00
03FE00
006000
006000
00C000
00C000
00DC00
01FC00
01CC00
018C00
031800
031800
031800
063000
000000
000000
000000
000000
000000
ENDCHAR
STARTCHAR U+040C
ENCODING 1036
SWIDTH 500 0
DWIDTH 12 0
BBX 19 24 -3 -2
BITMAP 
000600
000E00
001800
000000
000000
00C180
018700
018C00
018C00
033000
033000
03E000
07C000
066000
063000
0C6000
0C3000
0C1800
183000
000000
000000
000000
000000
000000
ENDCHAR
STARTCHAR U+040E
ENCODING 1038
SWIDTH 500 0
DWIDTH 12 0
BBX 19 24 -3 -2
BITMAP 
003180
003180
001F00
000000
000000
00C180
018300
018300
01C700
018C00
01DC00
00D800
01F000
00E000
00E000
018000
038000
0F0000
1C0000
000000
000000
000000
000000
000000
ENDCHAR
STARTCHAR U+040F
ENCODING 1039
SWIDTH 500 0
DWIDTH 12 0
BBX 19 24 -3 -2
BITMAP 
000000
000000
000000
000000
000000
00C300
018600
018600
018600
030C00
030C00
030C00
061800
07F800
07F800
018000
018000
018000
030000
000000
000000
000000
000000
000000
ENDCHAR
STARTCHAR U+0410
ENCODING 1040
SWIDTH 500 0
DWIDTH 12 0
BBX 19 24 -3 -2
BITMAP 
000000
000000
000000
000000
000000
003E00
00FE00
01C700
018300
030600
030600
03FE00
07FC00
060C00
060C00
0C1800
0C1800
0C1800
183000
000000
000000
000000
000000
000000
ENDCHAR
STARTCHAR U+0411
ENCODING 1041
SWIDTH 500 0
DWIDTH 12 0
BBX 19 24 -3 -2
BITMAP 
000000
000000
000000
000000
000000
00FE00
01FC00
018000
018000
030000
030000
03F800
07F800
061C00
060C00
0C1800
0C3800
0FF000
1FC000
000000
000000
000000
000000
000000
ENDCHAR
STARTCHAR U+0412
ENCODING 1042
SWIDTH 500 0
DWIDTH 12 0
BBX 19 24 -3 -2
BITMAP 
000000
000000
000000
000000
000000
00FC00
01FC00
018E00
018600
030C00
031800
03F800
07F800
061800
060C00
0C1800
0C3800
0FF000
1FC000
000000
000000
000000
000000
000000
ENDCHAR
STARTCHAR U+0413
ENCODING 1043
SWIDTH 500 0
DWIDTH 12 0
BBX 19 24 -3 -2
BITMAP 
000000
000000
000000
000000
000000
00FF80
01FF00
018000
018000
030000
030000
030000
060000
060000
060000
0C0000
0C0000
0C0000
180000
000000
000000
000000
000000
000000
ENDCHAR
STARTCHAR U+0414
ENCODING 1044
SWIDTH 500 0
DWIDTH 12 0
BBX 19 24 -3 -2
BITMAP 
000000
000000
000000
000000
000000
001F00
007E00
006600
006600
018C00
018C00
018C00
061800
061800
061800
183000
183000
1FF000
3FE000
003000
001000
000000
000000
000000
ENDCHAR
STARTCHAR U+0415
ENCODING 1045
SWIDTH 500 0
DWIDTH 12 0
BBX 19 24 -3 -2
BITMAP 
000000
000000
000000
000000
000000
00FF80
01FF00
018000
018000
030000
030000
03F800
07F000
060000
060000
0C0000
0C0000
0FF800
1FF000
000000
000000
000000
000000
000000
ENDCHAR
STARTCHAR U+0416
ENCODING 1046
SWIDTH 500 0
DWIDTH 12 0
BBX 19 24 -3 -2
BITMAP 
000000
000000
000000
000000
000000
019980
033300
01B600
01B600
036C00
01F800
01F800
01E000
03F000
03F000
0DB000
0DB000
199800
333000
000000
000000
000000
000000
000000
ENDCHAR
STARTCHAR U+0417
ENCODING 1047
SWIDTH 500 0
DWIDTH 12 0
BBX 19 24 -3 -2
BITMAP 
000000
000000
000000
000000
000000
003E00
00FE00
018300
018300
000600
000C00
007800
00F000
001800
000C00
0C1800
0C1800
07F000
07C000
000000
000000
000000
000000
000000
ENDCHAR
STARTCHAR U+0418
ENCODING 1048
SWIDTH 500 0
DWIDTH 12 0
BBX 19 24 -3 -2
BITMAP 
000000
000000
000000
000000
000000
00C180
018700
018700
018F00
031E00
033600
033600
06CC00
06CC00
078C00
0F1800
0E1800
0E1800
183000
000000
000000
000000
000000
000000
ENDCHAR
STARTCHAR U+0419
ENCODING 1049
SWIDTH 500 0
DWIDTH 12 0
BBX 19 24 -3 -2
BITMAP 
003180
003180
001F00
000000
000000
00C180
018700
018700
018F00
031E00
033600
033600
06CC00
06CC00
078C00
0F1800
0E1800
0E1800
183000
000000
000000
000000
000000
000000
ENDCHAR
STARTCHAR U+041A
ENCODING 1050
SWIDTH 500 0
DWIDTH 12 0
BBX 19 24 -3 -2
BITMAP 
000000
000000
000000
000000
000000
00C180
018700
018C00
018C00
033000
033000
03E000
07C000
066000
063000
0C6000
0C3000
0C1800
183000
000000
000000
000000
000000
000000
ENDCHAR
ENDFONT
